<svg height="100%" version="1.1" id="Layer_1" xmlns="http://www.w3.org/2000/svg" x="0" y="0" viewBox="0 0 2048 2048" xml:space="preserve">
                            <style>
                                .mapChart1{fill:#E0E0E1}
                                .mapChart2{fill:#965591}
                                .mapChartLocation{fill: #2c3136}
                            </style>
                            <path class="mapChartLocation" d="M968.9 984.6c1.3 3-3.2 18-7 22.9-5.1 6.6-52.5 30.9-62.2 36.1-1 .6-2.2.9-3.4.9l-6 .2c-2.9.1-5.5 1.8-6.7 4.4l-9.8 20c-.4.8-.5 1.7-.4 2.6.3 3.1 1.3 10.7 3.2 16.3 1.4 4.3 8.3 10.1 13.6 14.1 2.8 2.1 6.9.4 7.2-3.2l.7-6.7c.4-4.2 5-6.7 8.8-4.6 4.7 2.6 10.2 6 12.7 9 3.6 4.3 9.4 24.5 12 34.1.8 2.9-.7 6-3.5 7.2l-32 13.7c-2.1.9-3.5 2.8-3.7 5.1l-.5 5.2c-.3 3.7 2.7 6.9 6.5 6.6 6-.4 14.1-1.1 17.8-2.5 6.2-2.4 14.4-4.8 19.6-3.4 2.5.7 7.2 3.3 11.3 5.7 3.9 2.3 8.8-.2 9.2-4.7l1.1-13c.3-3.3 2-6.4 4.7-8.4l19.8-14.7c2.4-1.8 5.4-2.9 8.4-3l65.8-3.8c8-.5 15.2-5 18.9-12.1l15.1-28.2c.6-1 .8-2.2.7-3.4l-.8-9.7c-.3-3 1.8-5.8 4.7-6.5l3-.7c1.5-.3 2.9-1.3 3.7-2.6l24.8-37.2c.4-.7.8-1.4.9-2.2l3.1-15.6 3.3-16.7c.3-1.6 1.3-3 2.6-3.9l8-5.4c.9-.6 1.6-1.4 2.1-2.3 1.7-3.3 0-7.3-3.5-8.5-3.5-1.2-7.5-2.5-9.7-3-4.3-1-8.6 1.4-17.2 4.3-7.1 2.4-19.7 9.9-23.9 12.5-1 .6-2 .9-3.2.9h-9.1c-1.9 0-3.8-.9-4.9-2.5l-13.7-18.6c-1.3-1.8-1.6-4.2-.6-6.2 2.3-5 6.8-14 9.5-16.8 3.8-3.8 12-7.2 15.3-12.4s1.9-14.8-1.4-22-8.4-5.5-14.5-4.1c-6.1 1.4-2 5.4-4.6 6.6-4.1 1.9-10.9 4.7-19.2 7-10.8 3-22.1 4.5-26.6 5-1.4.2-2.6.8-3.6 1.8l-50 50.5c-.7.7-1.1 1.7-1.1 2.6l-.2 6.8c-.1 6.6 3.5 3.2 4.9 6.5z"></path>
                            <path class="mapChart1" d="M988 1776.7c-7-.3-13.9-.7-20.9-1.2l.4-5.2c6.9.5 13.8.9 20.7 1.1l-.2 5.3zm62.7 0l-.2-5.2c6.9-.3 13.8-.7 20.7-1.2l.4 5.2c-7 .5-14 .9-20.9 1.2zm-104.5-2.8c-7-.7-13.9-1.5-20.8-2.3l.6-5.2c6.9.9 13.7 1.6 20.6 2.3l-.4 5.2zm146.2-.2l-.5-5.2c6.9-.7 13.8-1.5 20.6-2.3l.7 5.2c-6.9.8-13.8 1.6-20.8 2.3zm-187.7-5.1c-6.9-1.1-13.8-2.2-20.6-3.5l.9-5.1c6.8 1.3 13.6 2.4 20.5 3.5l-.8 5.1zm229.2-.2l-.8-5.1c6.9-1.1 13.7-2.2 20.5-3.5l.9 5.1c-6.8 1.2-13.7 2.4-20.6 3.5zm-270.3-7.4c-6.9-1.5-13.7-3-20.5-4.7l1.2-5c6.7 1.6 13.5 3.2 20.3 4.7l-1 5zm311.4-.2l-1.1-5.1c6.8-1.5 13.5-3 20.2-4.6l1.2 5c-6.6 1.6-13.4 3.2-20.3 4.7zm-352.2-9.8c-6.8-1.9-13.5-3.8-20.1-5.9l1.5-5c6.6 2 13.3 4 20 5.8l-1.4 5.1zm392.9-.1l-1.4-5c6.7-1.8 13.3-3.8 20-5.8l1.5 5c-6.7 2-13.4 3.9-20.1 5.8zm-433-12.2c-6.6-2.2-13.2-4.6-19.8-7l1.8-4.9c6.5 2.4 13 4.7 19.6 6.9l-1.6 5zm473-.1l-1.7-4.9c6.6-2.2 13.1-4.5 19.6-6.9l1.8 4.9c-6.5 2.4-13.1 4.7-19.7 6.9zm39.3-14.4l-1.9-4.8c6.4-2.6 12.8-5.3 19.2-8l2.1 4.8c-6.5 2.7-13 5.3-19.4 8zm-551.6 0c-6.5-2.6-12.9-5.3-19.3-8.1l2.1-4.8c6.4 2.8 12.7 5.5 19.2 8.1l-2 4.8zm589.9-16.7l-2.2-4.7c6.3-2.9 12.5-6 18.6-9.1l2.3 4.6c-6.1 3.2-12.4 6.2-18.7 9.2zm-628.3-.1c-6.3-3-12.6-6-18.8-9.2l2.4-4.6c6.2 3.1 12.4 6.2 18.7 9.1l-2.3 4.7zm665.6-18.7l-2.5-4.6c6.1-3.3 12.1-6.7 18.1-10.1l2.6 4.5c-6 3.5-12.1 6.9-18.2 10.2zm-703-.2c-6.1-3.3-12.2-6.7-18.3-10.2l2.6-4.5c6 3.5 12 6.9 18.1 10.2l-2.4 4.5zm739.1-20.7l-2.7-4.4c5.9-3.6 11.7-7.3 17.5-11.1l2.9 4.3c-5.9 3.8-11.8 7.5-17.7 11.2zm-775.4-.3c-5.9-3.7-11.8-7.4-17.7-11.2l2.9-4.3c5.8 3.8 11.6 7.5 17.5 11.2l-2.7 4.3zm810.3-22.6l-3-4.3c5.7-4 11.3-8 16.8-12.1l3.1 4.2c-5.5 4.1-11.2 8.2-16.9 12.2zm-845.3-.4c-5.7-4-11.4-8.1-17-12.2l3.1-4.2c5.6 4.1 11.2 8.2 16.9 12.1l-3 4.3zm878.9-24.5l-3.2-4.1c5.4-4.3 10.8-8.6 16.1-13l3.3 4c-5.3 4.5-10.8 8.8-16.2 13.1zm-912.5-.4c-5.5-4.3-10.9-8.7-16.3-13.1l3.3-4c5.3 4.4 10.7 8.8 16.2 13.1l-3.2 4zm944.6-26.3l-3.4-3.9c5.2-4.6 10.3-9.2 15.4-13.9l3.5 3.8c-5.1 4.7-10.3 9.4-15.5 14zm-976.8-.4c-5.2-4.6-10.4-9.3-15.5-14l3.5-3.8c5.1 4.7 10.2 9.4 15.4 13.9l-3.4 3.9zm1007.4-28.1l-3.7-3.7c4.9-4.9 9.8-9.8 14.6-14.8l3.8 3.6c-4.9 5-9.8 10-14.7 14.9zm-1038-.4c-5-4.9-9.9-9.9-14.7-14.9l3.8-3.6c4.8 5 9.7 9.9 14.6 14.8l-3.7 3.7zm1066.9-29.8l-3.8-3.5c4.6-5.1 9.2-10.3 13.7-15.6l3.9 3.4c-4.5 5.3-9.1 10.6-13.8 15.7zm-1095.8-.4c-4.7-5.2-9.3-10.4-13.8-15.7l3.9-3.4c4.5 5.3 9.1 10.4 13.7 15.6l-3.8 3.5zm1123-31.3l-4-3.3c4.4-5.4 8.6-10.8 12.8-16.3l4.1 3.2c-4.2 5.4-8.5 10.9-12.9 16.4zm-1150.2-.4c-4.4-5.4-8.7-10.9-12.9-16.4l4.1-3.2c4.2 5.5 8.5 10.9 12.8 16.3l-4 3.3zm1175.6-32.9l-4.2-3c4.1-5.6 8-11.3 11.9-17l4.3 2.9c-3.9 5.7-7.9 11.4-12 17.1zm-1200.9-.3c-4.1-5.6-8.1-11.4-12-17.1l4.3-2.9c3.9 5.7 7.8 11.4 11.9 17l-4.2 3zm1224.4-34.4l-4.4-2.8c3.7-5.8 7.4-11.7 10.9-17.7l4.5 2.7c-3.6 6-7.3 12-11 17.8zm-1247.9-.2c-3.7-5.9-7.4-11.8-11-17.8l4.5-2.7c3.5 5.9 7.2 11.8 10.9 17.6l-4.4 2.9zm1269.4-35.7l-4.5-2.5c3.4-6 6.7-12.1 9.9-18.3l4.6 2.4c-3.3 6.2-6.6 12.3-10 18.4zm-1290.8-.1c-3.4-6.1-6.7-12.2-9.9-18.3l4.6-2.4c3.2 6.1 6.5 12.2 9.9 18.2l-4.6 2.5zm1310.2-37l-4.7-2.3c3-6.2 6-12.5 8.9-18.8l4.7 2.2c-2.8 6.3-5.8 12.6-8.9 18.9zm-1329.5 0c-3.1-6.3-6-12.6-8.9-18.9l4.7-2.1c2.9 6.3 5.8 12.6 8.8 18.8l-4.6 2.2zm-17.3-38.1c-2.7-6.4-5.3-12.9-7.8-19.4l4.9-1.9c2.5 6.5 5.1 12.9 7.7 19.3l-4.8 2zm1364.2-.1l-4.8-2c2.7-6.4 5.3-12.8 7.8-19.3l4.9 1.9c-2.6 6.5-5.2 13-7.9 19.4zm-1379.2-39c-2.3-6.6-4.5-13.2-6.7-19.8l4.9-1.6c2.1 6.6 4.3 13.2 6.6 19.7l-4.8 1.7zm1394.3-.1l-4.9-1.7c2.3-6.5 4.5-13.1 6.7-19.7l4.9 1.6c-2.1 6.6-4.4 13.3-6.7 19.8zm-1407.1-39.7c-1.9-6.7-3.8-13.4-5.5-20.2l5-1.3c1.7 6.7 3.6 13.4 5.5 20l-5 1.5zm1420-.2l-5-1.5c1.9-6.7 3.8-13.4 5.5-20.1l5 1.3c-1.7 6.9-3.6 13.6-5.5 20.3zm-1430.5-40.3c-1.6-6.8-3-13.6-4.4-20.5l5.1-1c1.4 6.8 2.8 13.6 4.4 20.3l-5.1 1.2zm1441-.3l-5.1-1.2c1.6-6.8 3-13.6 4.4-20.4l5.1 1c-1.3 7-2.8 13.8-4.4 20.6zm-1449.2-40.7c-1.2-6.9-2.3-13.7-3.2-20.7l5.1-.7c1 6.9 2 13.7 3.2 20.5l-5.1.9zm1457.5-.4l-5.1-.9c1.2-6.8 2.2-13.7 3.2-20.5l5.1.7c-1 7-2 13.9-3.2 20.7zm-1463.4-41c-.8-6.9-1.5-13.8-2.1-20.8l5.2-.4c.6 6.9 1.3 13.8 2.1 20.7l-5.2.5zm1469.2-.4l-5.2-.6c.8-6.9 1.5-13.8 2-20.7l5.2.4c-.5 7-1.2 14-2 20.9zM281 1080.3c-.4-7-.7-14-.9-20.9l5.2-.2c.2 6.9.5 13.8.9 20.8l-5.2.3zm1476.4-.4l-5.2-.3c.4-6.9.7-13.8.9-20.8l5.2.1c-.3 7.1-.6 14.1-.9 21zm-1472.5-41.4h-5.2v-1.3c0-6.6.1-13.1.3-19.6l5.2.1c-.2 6.5-.3 13-.3 19.5v1.3zm1468.4-.4c0-6.9-.1-13.8-.3-20.8l5.2-.2c.2 7 .3 14 .3 20.9h-5.2zM286 996.9l-5.2-.3c.4-7 .9-13.9 1.4-20.9l5.2.4c-.5 7-1 13.9-1.4 20.8zm1466.1-.3c-.4-6.9-.9-13.8-1.5-20.7l-.1-1.1 5.2-.4.1 1.1c.6 7 1.1 14 1.5 20.9l-5.2.2zM289.5 955.5l-5.2-.6c.8-6.9 1.7-13.9 2.6-20.8l5.1.7c-.9 7-1.7 13.8-2.5 20.7zm1458.9-1.5c-.8-6.9-1.7-13.8-2.7-20.6l5.1-.7c1 6.9 1.9 13.8 2.7 20.7l-5.1.6zM295.3 914.4l-5.1-.9c1.2-6.9 2.4-13.7 3.8-20.6l5.1 1c-1.4 6.8-2.6 13.7-3.8 20.5zm1447.3-1.5c-1.2-6.8-2.4-13.7-3.8-20.4l5.1-1c1.4 6.8 2.6 13.7 3.8 20.6l-5.1.8zM303.4 873.6l-5.1-1.2c1.6-6.8 3.2-13.6 5-20.4l5 1.3c-1.7 6.8-3.3 13.5-4.9 20.3zm1431-1.4c-1.6-6.8-3.2-13.5-4.9-20.2l5-1.3c1.8 6.7 3.4 13.5 5 20.3l-5.1 1.2zM313.9 833.3l-5-1.5c2-6.7 4-13.4 6.1-20.1l4.9 1.6c-2 6.6-4 13.3-6 20zm1410-1.3c-1.9-6.7-4-13.3-6.1-19.9l4.9-1.6c2.1 6.6 4.2 13.3 6.1 20l-4.9 1.5zM326.7 793.6l-4.9-1.7c2.3-6.6 4.8-13.2 7.3-19.7l4.8 1.9c-2.5 6.5-4.9 13-7.2 19.5zm1384.5-1.2c-2.3-6.5-4.7-13-7.2-19.5l4.9-1.9c2.5 6.5 4.9 13 7.3 19.6l-5 1.8zM341.7 754.8l-4.8-2c2.7-6.4 5.5-12.9 8.4-19.2l4.7 2.1c-2.9 6.3-5.7 12.7-8.3 19.1zm1354.5-1.1c-2.7-6.4-5.5-12.7-8.3-19l4.7-2.2c2.9 6.3 5.7 12.7 8.4 19.2l-4.8 2zM358.8 716.9l-4.7-2.3c3.1-6.3 6.2-12.5 9.4-18.7l4.6 2.4c-3.1 6.1-6.2 12.3-9.3 18.6zm1320.2-1c-3-6.2-6.2-12.4-9.4-18.5l4.6-2.4c3.2 6.2 6.4 12.4 9.4 18.6l-4.6 2.3zM378.1 680l-4.5-2.5c3.4-6.1 6.9-12.1 10.5-18.1l4.5 2.7c-3.6 5.9-7.1 11.9-10.5 17.9zm1281.7-.8c-3.4-6-6.8-12-10.4-17.9l4.5-2.7c3.6 6 7.1 12 10.5 18.1l-4.6 2.5zM399.4 644.3l-4.4-2.8c3.7-5.9 7.6-11.7 11.5-17.5l4.3 2.9c-3.9 5.8-7.7 11.6-11.4 17.4zm1239.1-.7c-3.7-5.8-7.5-11.6-11.4-17.3l4.3-2.9c3.9 5.8 7.7 11.6 11.5 17.4l-4.4 2.8zM422.7 609.9l-4.2-3c4.1-5.7 8.2-11.3 12.4-16.8l4.1 3.1c-4.1 5.5-8.2 11.1-12.3 16.7zm1192.5-.6c-4-5.6-8.2-11.2-12.4-16.7l4.1-3.2c4.2 5.5 8.4 11.1 12.5 16.8l-4.2 3.1zM447.9 576.8l-4-3.3c4.4-5.4 8.8-10.8 13.4-16.1l3.9 3.4c-4.5 5.3-8.9 10.6-13.3 16zm1142.1-.4c-4.4-5.4-8.8-10.7-13.3-15.9l3.9-3.4c4.5 5.3 9 10.6 13.4 16.1l-4 3.2zM474.9 545.3l-3.9-3.5c4.7-5.2 9.4-10.3 14.2-15.3l3.8 3.6c-4.7 5-9.5 10-14.1 15.2zm1088.1-.4c-4.7-5.1-9.4-10.2-14.2-15.2l3.7-3.6c4.8 5 9.6 10.1 14.3 15.3l-3.8 3.5zM503.6 515.3l-3.6-3.7c5-4.9 10-9.7 15.1-14.5l3.5 3.8c-5.1 4.7-10.1 9.5-15 14.4zm1030.7-.4c-4.9-4.9-9.9-9.6-15-14.4l3.5-3.8c5.1 4.7 10.1 9.6 15.1 14.5l-3.6 3.7zM534 486.9l-3.4-3.9c5.2-4.6 10.5-9.1 15.9-13.6l3.3 4c-5.4 4.5-10.6 9-15.8 13.5zm969.9-.3c-5.2-4.6-10.5-9.1-15.8-13.5l3.3-4c5.4 4.5 10.7 9 15.9 13.6l-3.4 3.9zm-938-26.2l-3.2-4.1c5.5-4.3 11-8.5 16.6-12.7l3.1 4.2c-5.6 4.1-11.1 8.3-16.5 12.6zm906-.3c-5.4-4.3-11-8.5-16.5-12.6l3.1-4.2c5.6 4.1 11.2 8.4 16.6 12.7l-3.2 4.1zm-872.7-24.4l-3-4.3c5.7-4 11.5-7.9 17.3-11.7l2.9 4.3c-5.8 3.9-11.6 7.7-17.2 11.7zm839.3-.3c-5.7-4-11.4-7.8-17.2-11.6l2.8-4.3c5.8 3.8 11.6 7.7 17.3 11.7l-2.9 4.2zm-804.7-22.5l-2.7-4.4c5.9-3.6 11.9-7.2 17.9-10.7l2.6 4.5c-6 3.4-11.9 7-17.8 10.6zm769.9-.3c-5.9-3.6-11.9-7.2-17.9-10.7l2.6-4.5c6 3.5 12 7.1 18 10.7l-2.7 4.5zm-734-20.4l-2.5-4.6c6.1-3.3 12.3-6.5 18.5-9.7l2.3 4.6c-6.2 3.2-12.3 6.4-18.3 9.7zm698-.4c-6.1-3.3-12.2-6.5-18.4-9.6l2.3-4.6c6.2 3.1 12.4 6.4 18.6 9.7l-2.5 4.5zm-661.1-18.3l-2.2-4.7c6.3-3 12.7-5.8 19.1-8.6l2.1 4.8c-6.4 2.7-12.7 5.5-19 8.5zm624-.4c-6.3-2.9-12.6-5.8-19-8.6l2.1-4.8c6.4 2.8 12.8 5.7 19.1 8.6l-2.2 4.8zm-585.9-16.2l-1.9-4.8c6.5-2.6 13-5.1 19.5-7.5l1.8 4.9c-6.5 2.3-13 4.8-19.4 7.4zm547.7-.5c-6.4-2.6-12.9-5.1-19.4-7.5l1.8-4.9c6.6 2.4 13.1 4.9 19.6 7.5l-2 4.9zm-508.7-13.9l-1.7-4.9c6.6-2.2 13.2-4.4 19.9-6.4l1.5 5c-6.6 1.9-13.2 4.1-19.7 6.3zm469.6-.5c-6.6-2.2-13.2-4.3-19.8-6.4l1.5-5c6.7 2.1 13.3 4.2 20 6.4l-1.7 5zm-429.9-11.7l-1.4-5c6.7-1.8 13.5-3.6 20.2-5.3l1.2 5c-6.6 1.7-13.3 3.5-20 5.3zm390.1-.5c-6.7-1.8-13.4-3.6-20.2-5.2l1.2-5c6.8 1.7 13.6 3.4 20.3 5.3l-1.3 4.9zm-349.8-9.4l-1.1-5.1c6.8-1.5 13.6-2.8 20.5-4.1l1 5.1c-6.8 1.3-13.6 2.7-20.4 4.1zm309.3-.4c-6.8-1.4-13.6-2.8-20.4-4.1l.9-5.1c6.9 1.3 13.7 2.6 20.5 4.1l-1 5.1zm-268.4-7.2l-.8-5.1c6.9-1.1 13.8-2.1 20.7-3l.7 5.2c-6.9.9-13.8 1.8-20.6 2.9zm227.6-.4c-6.8-1.1-13.7-2-20.6-2.9l.6-5.2c6.9.9 13.8 1.8 20.7 2.9l-.7 5.2zm-186.4-4.9l-.5-5.2c3.8-.4 7.5-.7 11.3-1 3.2-.3 6.4-.5 9.6-.8l.4 5.2c-3.2.2-6.3.5-9.5.7-3.9.4-7.6.8-11.3 1.1zm145.2-.2c-6.9-.7-13.8-1.2-20.7-1.7l.4-5.2c7 .5 13.9 1.1 20.9 1.7l-.6 5.2zm-103.8-2.8l-.2-5.2c7-.3 14-.5 20.9-.6l.1 5.2c-6.9.1-13.9.3-20.8.6zm62.3-.1c-6.9-.3-13.8-.5-20.8-.5l.1-5.2c7 .1 14 .3 20.9.5l-.2 5.2zM1049.5 1333.8l-.5-5.2c6.7-.7 13.5-1.6 20.2-2.8l.9 5.1c-6.9 1.2-13.8 2.2-20.6 2.9zm-62.1-.2c-3.5-.4-7-.8-10.6-1.3-3.3-.5-6.7-1-10-1.6l.9-5.1c3.2.6 6.5 1.1 9.8 1.6 3.5.5 6.9.9 10.4 1.3l-.5 5.1zm102.9-6.9l-1.2-5c6.5-1.6 13.1-3.5 19.6-5.6l1.6 4.9c-6.6 2.2-13.3 4.1-20 5.7zm-143.7-.4c-6.7-1.7-13.4-3.6-19.9-5.7l1.6-4.9c6.4 2.1 13 4 19.6 5.6l-1.3 5zm183.2-12.3l-1.9-4.8c6.3-2.5 12.5-5.3 18.6-8.3l2.3 4.7c-6.3 3-12.7 5.8-19 8.4zm-222.6-.5c-6.4-2.6-12.7-5.4-18.9-8.5l2.3-4.7c6.1 3 12.3 5.8 18.6 8.3l-2 4.9zm259.8-17.6l-2.6-4.5c5.8-3.4 11.7-7 17.3-10.8l2.9 4.3c-5.7 3.9-11.6 7.6-17.6 11zm-297.1-.7c-5.9-3.5-11.9-7.2-17.6-11l2.9-4.3c5.6 3.8 11.4 7.5 17.3 10.9l-2.6 4.4zm331.6-22.4l-3.2-4.1c5.4-4.2 10.6-8.6 15.7-13.1l3.5 3.9c-5.2 4.6-10.6 9.1-16 13.3zm-365.9-.9c-5.4-4.2-10.7-8.8-15.9-13.4l3.5-3.8c5 4.5 10.3 9 15.6 13.1l-3.2 4.1zm396.8-26.7l-3.7-3.6c4.7-4.8 9.3-9.9 13.7-15.1l4 3.4c-4.5 5.2-9.2 10.3-14 15.3zm-427.6-1.1c-4.8-5-9.4-10.2-13.8-15.5l4-3.3c4.3 5.2 8.9 10.3 13.6 15.2l-3.8 3.6zm454.4-30.6l-4.2-3.1c4-5.5 7.9-11.1 11.5-16.9l4.4 2.8c-3.8 5.9-7.7 11.6-11.7 17.2zm-480.9-1.2c-4-5.6-7.9-11.4-11.6-17.2l4.4-2.8c3.6 5.7 7.4 11.4 11.4 16.9l-4.2 3.1zm503-33.9l-4.6-2.5c3.2-6 6.2-12.1 9-18.3l4.7 2.1c-2.8 6.3-5.9 12.6-9.1 18.7zm-525-1.3c-3.2-6.1-6.3-12.4-9.1-18.6l4.8-2.1c2.7 6.2 5.7 12.3 8.9 18.3l-4.6 2.4zm541.9-36.6l-4.9-1.8c2.3-6.4 4.5-12.9 6.3-19.4l5 1.4c-1.8 6.7-4 13.4-6.4 19.8zm-558.7-1.3c-2.3-6.5-4.5-13.1-6.4-19.7l5-1.4c1.9 6.5 4 13 6.3 19.4l-4.9 1.7zm570.2-38.5l-5.1-1.1c1.4-6.6 2.6-13.4 3.6-20.1l.2-1.1 5.1.7-.2 1.1c-.9 6.9-2.1 13.8-3.6 20.5zm-581.5-1.3c-1.4-6.7-2.6-13.6-3.6-20.4l5.1-.7c.9 6.7 2.1 13.5 3.5 20.1l-5 1zm587.5-40.8l-5.2-.4c.5-6.8.7-13.6.7-20.4h5.2c0 6.9-.2 13.9-.7 20.8zm-593.2-.3c-.4-6.6-.7-13.3-.7-19.9v-.8h5.2v.8c0 6.5.2 13.1.7 19.6l-5.2.3zm588.1-40.8c-.5-6.8-1.2-13.6-2.1-20.3l5.1-.7c1 6.8 1.7 13.7 2.2 20.6l-5.2.4zm-582.8-.3l-5.2-.4c.5-6.8 1.2-13.8 2.2-20.6l5.1.7c-.9 6.8-1.7 13.6-2.1 20.3zm577.1-40c-1.4-6.6-3.1-13.3-4.9-19.8l5-1.4c1.9 6.6 3.6 13.4 5 20.1l-5.1 1.1zm-571.4-.3l-5.1-1.1c1.4-6.7 3.1-13.5 5-20.1l5 1.4c-1.9 6.5-3.5 13.2-4.9 19.8zm560.1-38.9c-2.3-6.3-4.9-12.7-7.6-18.9l4.7-2.1c2.8 6.3 5.4 12.8 7.8 19.2l-4.9 1.8zm-548.9-.3l-4.9-1.8c2.4-6.5 5-12.9 7.8-19.2l4.7 2.1c-2.7 6.2-5.3 12.6-7.6 18.9zm532.3-36.8c-3.2-6-6.6-11.9-10.2-17.6l4.4-2.8c3.7 5.8 7.1 11.9 10.4 17.9l-4.6 2.5zm-515.7-.4l-4.6-2.4c3.2-6.1 6.8-12.1 10.4-18l4.4 2.8c-3.6 5.7-7 11.6-10.2 17.6zm494.2-34.2c-4-5.5-8.2-10.9-12.5-16.1l4-3.3c4.4 5.3 8.7 10.8 12.8 16.3l-4.3 3.1zM783 866l-4.2-3.1c4.1-5.6 8.4-11.1 12.8-16.3l4 3.4c-4.4 5.1-8.7 10.5-12.6 16zm446.3-30.9c-4.7-4.9-9.6-9.6-14.6-14.2l3.5-3.9c5.1 4.6 10.1 9.5 14.9 14.4l-3.8 3.7zm-420.1-.3l-3.7-3.6c4.8-4.9 9.8-9.8 14.9-14.4l3.5 3.9c-5 4.5-10 9.3-14.7 14.1zm389.8-27c-5.3-4.2-10.9-8.2-16.5-12l2.9-4.3c5.7 3.9 11.4 8 16.8 12.2l-3.2 4.1zm-359.5-.2l-3.2-4.1c5.4-4.2 11.1-8.3 16.8-12.2l2.9 4.3c-5.6 3.8-11.1 7.9-16.5 12zm325.8-22.6c-5.8-3.4-11.9-6.6-18-9.6l2.3-4.7c6.2 3 12.4 6.3 18.3 9.8l-2.6 4.5zm-292-.1l-2.6-4.5c6-3.4 12.1-6.7 18.3-9.7l2.3 4.7c-6 2.9-12.1 6.1-18 9.5zm255.3-17.8c-6.2-2.5-12.7-4.9-19.2-7l1.6-4.9c6.6 2.1 13.1 4.5 19.5 7.1l-1.9 4.8zm-218.7-.1l-1.9-4.8c6.4-2.6 13-5 19.5-7.1l1.6 4.9c-6.4 2.1-12.9 4.5-19.2 7zm180-12.4c-6.5-1.6-13.2-3-19.9-4.2l.9-5.1c6.8 1.2 13.7 2.6 20.3 4.3l-1.3 5zm-141.3-.1l-1.3-5c6.7-1.7 13.5-3.1 20.3-4.3l.9 5.1c-6.6 1.1-13.3 2.5-19.9 4.2zm101.2-7c-6.8-.7-13.6-1.2-20.3-1.4l.2-5.2c6.8.3 13.8.7 20.7 1.5l-.6 5.1zm-61.1-.1l-.5-5.2c6.9-.7 13.8-1.2 20.7-1.4l.2 5.2c-6.8.2-13.6.7-20.4 1.4zM1049.4 1184.9l-1-5.1c6.7-1.4 13.4-3.2 19.9-5.6l1.8 4.9c-6.9 2.4-13.8 4.3-20.7 5.8zm-63.8-.7c-7-1.6-13.8-3.7-20.5-6.2l1.9-4.9c6.4 2.5 13 4.5 19.7 6l-1.1 5.1zm103.9-13.8l-2.4-4.6c6.1-3.2 11.9-6.9 17.5-11l3.1 4.2c-5.8 4.3-11.9 8.1-18.2 11.4zm-143.7-1.6c-6.2-3.5-12.2-7.5-17.9-11.8l3.2-4.1c5.4 4.2 11.2 8 17.2 11.4l-2.5 4.5zm178.1-23.6l-3.6-3.7c4.9-4.8 9.5-10 13.7-15.4l4.1 3.2c-4.3 5.6-9.1 10.9-14.2 15.9zm26-33.8l-4.5-2.5c3.4-6 6.3-12.3 8.8-18.7l4.8 1.9c-2.5 6.6-5.6 13.1-9.1 19.3zm-263.2-2.9c-3.3-6.3-6.3-12.9-8.7-19.5l4.9-1.8c2.3 6.5 5.1 12.8 8.4 18.9l-4.6 2.4zm-14.4-40.2c-1.4-7-2.4-14.1-2.8-21.2l5.2-.3c.4 6.9 1.3 13.7 2.7 20.5l-5.1 1zm2.6-42.1l-5.2-.4c.6-7.1 1.7-14.2 3.2-21.1l5.1 1.2c-1.5 6.5-2.6 13.4-3.1 20.3zm280.5-37.2c-2.3-6.5-5.1-12.8-8.3-18.9l4.6-2.4c3.3 6.3 6.2 12.9 8.6 19.6l-4.9 1.7zM884 986l-4.9-1.9c2.6-6.6 5.6-13.2 9.1-19.4l4.5 2.5c-3.3 6.1-6.2 12.4-8.7 18.8zm252.1-33.3c-4-5.5-8.5-10.8-13.3-15.8l3.4-4 .4.4c5 5.1 9.6 10.6 13.8 16.3l-4.3 3.1zm-232-2.6l-4.1-3.2c4.3-5.6 9.1-11 14.2-16l3.6 3.7c-4.9 4.9-9.5 10.1-13.7 15.5zm202.8-27.2c-5.5-4.2-11.3-8-17.2-11.3l2.5-4.5c6.2 3.5 12.2 7.4 17.9 11.7l-3.2 4.1zm-173.4-1.7l-3.1-4.2c5.7-4.2 11.8-8.1 18.1-11.4l2.4 4.6c-6 3.3-11.8 7-17.4 11zm137.5-18.4c-6.4-2.5-13-4.5-19.8-6l1.1-5.1c7 1.6 13.8 3.7 20.5 6.2l-1.8 4.9zm-101.1-.9l-1.8-4.9c6.7-2.4 13.6-4.4 20.6-5.8l1.1 5.1c-6.8 1.3-13.5 3.2-19.9 5.6zm60.9-8.2c-4-.3-8-.4-12-.5-2.9 0-5.8.1-8.7.3l-.3-5.2c3.1-.2 6.2-.3 9.2-.3 4 0 8.1.2 12.1.5l-.3 5.2zM1168 1016c-.6-4.4-1.3-8.8-2.3-13.2l-5.1 1.1c.9 4.2 1.6 8.5 2.2 12.7l5.2-.6zM1162.6 1059.1c-.7 4.2-1.6 8.3-2.7 12.4l5 1.4c1.1-4.2 2-8.4 2.8-12.7l-5.1-1.1z"></path>
                            <path class="mapChart2" d="M1019.5 1037.3h147.4M1019.5 1034.7h147.3v5.2h-147.3z"></path>
                            <circle class="mapChart2" cx="1167.5" cy="1037.4" r="11.1"></circle>
                            <path class="mapChart2" d="M1019.4 1038.4l524.8 517.8"></path>
                            <path transform="rotate(-45.388 1281.798 1297.235)" class="mapChart2" d="M1279.2 928.6h5.2v737.3h-5.2z"></path>
                            <circle class="mapChart2" cx="1543.6" cy="1555.6" r="11.1"></circle>
                            <path class="mapChart1" d="M712.6 635.3V529.4h70.1v18.5H735v25.2h43v18.5h-43v43.7h-22.4zM796 635.3v-79.4h21.3v13.9h.8c1.4-4.9 3.9-8.7 7.3-11.2s7.3-3.8 11.8-3.8c1.1 0 2.3.1 3.6.2 1.3.1 2.4.3 3.4.6v19.5c-1-.3-2.5-.6-4.3-.8-1.8-.2-3.5-.4-5-.4-3.2 0-6.1.7-8.7 2.1-2.5 1.4-4.5 3.3-6 5.8s-2.2 5.3-2.2 8.6v44.9h-22zM875.9 636.8c-5.1 0-9.6-.9-13.5-2.7-4-1.8-7.1-4.4-9.4-7.9-2.3-3.5-3.4-7.9-3.4-13.1 0-4.4.8-8.1 2.4-11.1 1.6-3 3.8-5.4 6.6-7.2 2.8-1.8 6-3.2 9.5-4.1 3.6-.9 7.3-1.6 11.2-2 4.6-.5 8.3-.9 11.2-1.4 2.8-.4 4.9-1.1 6.2-1.9 1.3-.9 1.9-2.1 1.9-3.8v-.3c0-3.3-1-5.8-3.1-7.6-2.1-1.8-5-2.7-8.7-2.7-4 0-7.1.9-9.5 2.6-2.3 1.7-3.9 3.9-4.7 6.5l-20.4-1.7c1-4.8 3.1-9 6.1-12.5 3-3.5 7-6.3 11.8-8.2 4.8-1.9 10.4-2.9 16.7-2.9 4.4 0 8.6.5 12.7 1.6 4 1 7.6 2.6 10.8 4.8 3.2 2.2 5.6 5 7.5 8.3 1.8 3.4 2.7 7.5 2.7 12.2v53.5h-20.9v-11h-.6c-1.3 2.5-3 4.7-5.1 6.5-2.1 1.9-4.7 3.3-7.7 4.4-2.9 1.1-6.4 1.7-10.3 1.7zm6.3-15.2c3.2 0 6.1-.6 8.6-1.9s4.4-3 5.8-5.2c1.4-2.2 2.1-4.7 2.1-7.5v-8.4c-.7.4-1.6.9-2.8 1.2-1.2.4-2.5.7-4 1-1.5.3-3 .6-4.4.8-1.5.2-2.8.4-4 .6-2.6.4-4.8 1-6.8 1.8-1.9.8-3.4 1.9-4.5 3.3s-1.6 3.1-1.6 5.2c0 3 1.1 5.3 3.3 6.8 2.1 1.5 4.9 2.3 8.3 2.3zM959.7 589.4v45.9h-22v-79.4h21v14h.9c1.8-4.6 4.7-8.3 8.8-11 4.1-2.7 9.1-4.1 15-4.1 5.5 0 10.3 1.2 14.4 3.6 4.1 2.4 7.3 5.8 9.6 10.3 2.3 4.5 3.4 9.8 3.4 15.9v50.5h-22v-46.6c0-4.9-1.2-8.7-3.7-11.4-2.5-2.7-6-4.1-10.4-4.1-3 0-5.6.6-7.8 1.9-2.3 1.3-4 3.1-5.3 5.6-1.2 2.5-1.9 5.5-1.9 8.9zM1028.2 635.3V529.4h22v105.9h-22zm19.9-22.9l.1-26.4h3.2l25.4-30.1h25.3l-34.2 39.9h-5.2l-14.6 16.6zm29.7 22.9l-23.4-34.6 14.7-15.6 34.5 50.1h-25.8zM1155.5 555.9v16.5h-49v-16.5h49zm-37.7 79.4v-85.1c0-5.8 1.1-10.5 3.4-14.3 2.3-3.8 5.3-6.6 9.3-8.5 3.9-1.9 8.4-2.8 13.4-2.8 3.4 0 6.5.3 9.3.8 2.8.5 4.9 1 6.3 1.4l-3.9 16.5c-.9-.3-1.9-.5-3.2-.8-1.3-.2-2.5-.4-3.9-.4-3.2 0-5.5.7-6.8 2.2-1.3 1.5-1.9 3.6-1.9 6.3v84.7h-22zM1219.9 601.5v-45.6h22v79.4h-21.1v-14.4h-.8c-1.8 4.7-4.8 8.4-8.9 11.2-4.2 2.8-9.2 4.2-15.2 4.2-5.3 0-10-1.2-14-3.6-4-2.4-7.2-5.8-9.4-10.3-2.3-4.4-3.4-9.8-3.4-16v-50.5h22v46.6c0 4.7 1.3 8.4 3.8 11.1 2.5 2.7 5.8 4.1 10 4.1 2.7 0 5.1-.6 7.4-1.8 2.3-1.2 4.2-3 5.6-5.5 1.3-2.4 2-5.4 2-8.9zM1259.5 635.3v-79.4h21.3v13.9h.8c1.4-4.9 3.9-8.7 7.3-11.2s7.3-3.8 11.8-3.8c1.1 0 2.3.1 3.6.2 1.3.1 2.4.3 3.4.6v19.5c-1-.3-2.5-.6-4.3-.8-1.8-.2-3.5-.4-5-.4-3.2 0-6.1.7-8.7 2.1-2.5 1.4-4.5 3.3-6 5.8s-2.2 5.3-2.2 8.6v44.9h-22zM1365.2 555.9v16.5h-47.8v-16.5h47.8zm-37-19h22v74c0 2 .3 3.6.9 4.7.6 1.1 1.5 1.9 2.6 2.4 1.1.4 2.4.7 3.9.7 1 0 2.1-.1 3.1-.3 1-.2 1.8-.3 2.4-.4l3.5 16.4c-1.1.3-2.7.7-4.7 1.2s-4.4.7-7.3.9c-5.3.2-10-.5-13.9-2.1s-7.1-4.1-9.3-7.5-3.3-7.7-3.3-12.9v-77.1z"></path>
                            <g>
                                <path class="mapChart1" d="M939.1 1408.7l14.4-14.2c4.1-4.2 6.2-6.6 6.2-10.1 0-3.9-2.9-6.3-6.9-6.3-4.1 0-6.8 2.7-6.8 6.9h-7.2c0-7.9 5.8-13 14.1-13 8.4 0 14 5.1 14 12.1 0 4.7-2.2 8.5-10.3 16.2l-7.2 7.3v.3h18.1v6.3H939v-5.5zM974 1393.4c0-13.6 6-21.4 16-21.4s16 7.8 16 21.4c0 13.6-6 21.6-16 21.5-10 .1-16-7.9-16-21.5zm24.4 0c0-9.9-3.2-15.1-8.4-15.1s-8.4 5.2-8.4 15.1c0 10 3.2 15.2 8.4 15.2s8.4-5.2 8.4-15.2zM1041.2 1372.6h7.4v22.9h.5l11.2-12.5h8.6l-12.1 13.5 12.8 17.7h-8.8l-9.5-13.3-2.7 2.9v10.5h-7.4v-41.7zM1073.8 1383h7v5.3h.4c1.3-3.6 4.4-5.7 8.6-5.7 4.2 0 7.2 2.2 8.4 5.7h.3c1.4-3.5 4.8-5.7 9.4-5.7 5.7 0 9.7 3.7 9.7 10.7v20.9h-7.4v-19.8c0-3.9-2.4-5.6-5.3-5.6-3.6 0-5.6 2.4-5.6 6v19.5h-7.2v-20.1c0-3.2-2.1-5.3-5.2-5.3-3.2 0-5.7 2.6-5.7 6.4v19h-7.4V1383z"></path>
                            </g>
                            <g>
                                <path class="mapChart2" d="M565.2 1377.7c-7.7 0-14.6-1.3-20.6-4-6-2.7-10.8-6.4-14.2-11.1s-5.2-10.1-5.3-16.3h22.5c.1 2.6 1 4.9 2.6 6.8 1.6 1.9 3.7 3.5 6.3 4.5 2.6 1.1 5.6 1.6 8.8 1.6 3.4 0 6.4-.6 9-1.8 2.6-1.2 4.7-2.9 6.2-5s2.2-4.6 2.2-7.4c0-2.8-.8-5.3-2.4-7.5-1.6-2.2-3.8-3.9-6.7-5.1-2.9-1.2-6.4-1.9-10.4-1.9h-9.9V1314h9.9c3.4 0 6.4-.6 9-1.8 2.6-1.2 4.6-2.8 6.1-4.9s2.2-4.5 2.2-7.3c0-2.7-.6-5-1.9-7-1.3-2-3-3.6-5.3-4.7s-4.9-1.7-7.9-1.7-5.8.5-8.3 1.6c-2.5 1.1-4.5 2.6-6 4.6-1.5 2-2.3 4.3-2.4 7h-21.4c.1-6.1 1.8-11.5 5.2-16.1 3.4-4.7 7.9-8.3 13.7-10.9 5.7-2.6 12.2-4 19.5-4 7.3 0 13.7 1.3 19.2 4s9.7 6.2 12.8 10.7c3 4.5 4.6 9.5 4.5 15.1 0 5.9-1.8 10.9-5.5 14.8-3.7 4-8.5 6.5-14.4 7.5v.8c7.8 1 13.7 3.7 17.8 8.1s6.1 9.9 6.1 16.5c0 6-1.7 11.4-5.2 16.1-3.5 4.7-8.3 8.4-14.4 11.1-6.5 2.8-13.5 4.2-21.4 4.2zM668.1 1270.4v105.9h-22.4v-84.6h-.6l-24.2 15.2V1287l26.2-16.6h21zM734.8 1378.5c-8.9 0-16.5-2.2-22.9-6.6-6.4-4.3-11.3-10.6-14.7-18.9-3.4-8.2-5.1-18.1-5.1-29.7 0-11.5 1.7-21.4 5.1-29.5 3.4-8.1 8.3-14.3 14.7-18.6 6.4-4.3 14-6.4 22.9-6.4 8.9 0 16.5 2.1 22.9 6.4 6.4 4.3 11.3 10.5 14.8 18.6 3.4 8.1 5.2 17.9 5.1 29.5 0 11.6-1.7 21.5-5.1 29.8-3.4 8.2-8.3 14.5-14.7 18.9-6.5 4.4-14.1 6.5-23 6.5zm0-18.5c6.1 0 10.9-3 14.5-9.1 3.6-6.1 5.4-15.2 5.4-27.4 0-8-.8-14.7-2.5-20.1-1.6-5.3-3.9-9.4-6.9-12-3-2.7-6.5-4-10.5-4-6 0-10.9 3-14.5 9-3.6 6-5.4 15.1-5.5 27.1 0 8.1.8 14.9 2.5 20.3 1.6 5.4 4 9.5 7 12.2 2.9 2.6 6.4 4 10.5 4zM496.6 1454.2V1405H515c3.8 0 6.9.7 9.5 2.1 2.6 1.4 4.5 3.3 5.8 5.8 1.3 2.5 2 5.2 2 8.4s-.7 6-2 8.4c-1.3 2.4-3.3 4.4-5.9 5.8-2.6 1.4-5.8 2.1-9.6 2.1h-12.2v-7.3h11c2.2 0 4-.4 5.4-1.2 1.4-.8 2.5-1.8 3.1-3.2.7-1.3 1-2.9 1-4.6 0-1.7-.3-3.3-1-4.6-.7-1.3-1.7-2.4-3.1-3.1-1.4-.7-3.2-1.1-5.5-1.1h-8.2v41.7h-8.7zM555.5 1454.9c-3.7 0-6.9-.8-9.6-2.3s-4.7-3.7-6.2-6.6c-1.4-2.8-2.2-6.2-2.2-10s.7-7.1 2.2-10c1.4-2.9 3.5-5.1 6.1-6.7 2.6-1.6 5.7-2.4 9.2-2.4 2.3 0 4.4.4 6.4 1.1 2 .7 3.8 1.9 5.4 3.4 1.6 1.5 2.8 3.5 3.7 5.8.9 2.3 1.3 5.1 1.3 8.4v2.7h-30.2v-5.9h21.9c0-1.7-.4-3.1-1.1-4.5-.7-1.3-1.7-2.3-2.9-3.1-1.3-.8-2.7-1.1-4.4-1.1-1.8 0-3.3.4-4.7 1.3-1.3.9-2.4 2-3.1 3.4-.7 1.4-1.1 2.9-1.1 4.5v5.1c0 2.1.4 4 1.2 5.5.8 1.5 1.9 2.7 3.3 3.5 1.4.8 3.1 1.2 4.9 1.2 1.3 0 2.4-.2 3.4-.5 1-.4 1.9-.9 2.7-1.6s1.3-1.6 1.7-2.6l8.1.9c-.5 2.1-1.5 4-2.9 5.6-1.4 1.6-3.3 2.8-5.5 3.7s-4.8 1.2-7.6 1.2zM597.6 1417.3v6.7h-21.2v-6.7h21.2zm-15.9-8.8h8.7v34.6c0 1.2.2 2.1.5 2.7.4.6.8 1 1.4 1.3.6.2 1.2.3 2 .3.5 0 1 0 1.5-.1s.8-.2 1-.2l1.5 6.8c-.5.2-1.1.3-2 .5-.9.2-1.9.3-3.1.3-2.2.1-4.1-.3-5.9-1-1.7-.7-3.1-1.9-4.1-3.4-1-1.5-1.5-3.5-1.5-5.8v-36zM615.5 1454.9c-2.3 0-4.4-.4-6.3-1.3-1.9-.8-3.3-2.1-4.4-3.7-1.1-1.6-1.6-3.7-1.6-6.1 0-2.1.4-3.8 1.2-5.2.8-1.4 1.8-2.4 3.1-3.3 1.3-.8 2.8-1.4 4.5-1.9s3.4-.7 5.2-.9c2.2-.2 3.9-.4 5.3-.6 1.3-.2 2.3-.5 2.9-.9.6-.4.9-1 .9-1.8v-.1c0-1.8-.5-3.2-1.6-4.2s-2.6-1.5-4.6-1.5c-2.1 0-3.8.5-5.1 1.4-1.2.9-2.1 2-2.5 3.3l-8.1-1.2c.6-2.2 1.7-4.1 3.2-5.6 1.5-1.5 3.3-2.6 5.4-3.4 2.1-.8 4.5-1.1 7.1-1.1 1.8 0 3.5.2 5.3.6s3.4 1.1 4.8 2.1c1.5 1 2.6 2.2 3.5 3.9.9 1.6 1.3 3.7 1.3 6.1v24.7h-8.4v-5.1h-.3c-.5 1-1.3 2-2.2 2.9-1 .9-2.1 1.6-3.6 2.1-1.4.6-3.1.8-5 .8zm2.3-6.4c1.7 0 3.3-.3 4.5-1 1.3-.7 2.3-1.6 3-2.8.7-1.2 1-2.4 1-3.8v-4.3c-.3.2-.7.4-1.4.6-.6.2-1.4.4-2.2.5-.8.1-1.6.3-2.4.4-.8.1-1.5.2-2 .3-1.3.2-2.5.5-3.5.9s-1.8 1-2.4 1.7c-.6.7-.9 1.6-.9 2.7 0 1.6.6 2.8 1.8 3.6 1.2.8 2.6 1.2 4.5 1.2zM644.1 1454.2V1405h8.7v18.4h.4c.4-.9 1.1-1.9 1.9-2.9.8-1 1.9-1.9 3.3-2.6 1.4-.7 3.2-1.1 5.3-1.1 2.8 0 5.4.7 7.7 2.2 2.3 1.4 4.1 3.6 5.5 6.4 1.4 2.8 2 6.3 2 10.4 0 4-.7 7.5-2 10.3-1.3 2.8-3.1 5-5.4 6.5-2.3 1.5-4.9 2.2-7.8 2.2-2.1 0-3.9-.4-5.3-1.1-1.4-.7-2.5-1.6-3.3-2.6-.8-1-1.5-1.9-2-2.8h-.5v5.8h-8.5zm8.5-18.4c0 2.4.3 4.5 1 6.3.7 1.8 1.7 3.2 3 4.2s2.9 1.5 4.7 1.5c1.9 0 3.5-.5 4.8-1.5 1.3-1 2.3-2.4 2.9-4.2.7-1.8 1-3.9 1-6.2 0-2.3-.3-4.3-1-6.1-.7-1.8-1.6-3.2-2.9-4.2-1.3-1-2.9-1.5-4.8-1.5s-3.4.5-4.7 1.5-2.3 2.3-2.9 4.1-1.1 3.7-1.1 6.1zM690.4 1468c-1.2 0-2.3-.1-3.3-.3s-1.8-.4-2.4-.6l2-6.8c1.3.4 2.4.5 3.4.5s1.9-.3 2.6-.9 1.4-1.6 1.9-3l.7-2-13.4-37.6h9.2l8.5 27.8h.4l8.5-27.8h9.2l-14.8 41.3c-.7 2-1.6 3.6-2.7 5s-2.5 2.5-4.2 3.2c-1.3.8-3.3 1.2-5.6 1.2zM742.4 1417.3v6.7h-21.2v-6.7h21.2zm-16-8.8h8.7v34.6c0 1.2.2 2.1.5 2.7.4.6.8 1 1.4 1.3.6.2 1.2.3 2 .3.5 0 1 0 1.5-.1s.8-.2 1-.2l1.5 6.8c-.5.2-1.1.3-2 .5-.9.2-1.9.3-3.1.3-2.2.1-4.1-.3-5.9-1-1.7-.7-3.1-1.9-4.1-3.4-1-1.5-1.5-3.5-1.5-5.8v-36zM765.6 1454.9c-3.7 0-6.9-.8-9.6-2.3s-4.7-3.7-6.2-6.6c-1.4-2.8-2.2-6.2-2.2-10s.7-7.1 2.2-10c1.4-2.9 3.5-5.1 6.1-6.7 2.6-1.6 5.7-2.4 9.2-2.4 2.3 0 4.4.4 6.4 1.1 2 .7 3.8 1.9 5.4 3.4 1.6 1.5 2.8 3.5 3.7 5.8.9 2.3 1.3 5.1 1.3 8.4v2.7h-30.2v-5.9h21.9c0-1.7-.4-3.1-1.1-4.5-.7-1.3-1.7-2.3-2.9-3.1-1.3-.8-2.7-1.1-4.4-1.1-1.8 0-3.3.4-4.7 1.3-1.3.9-2.4 2-3.1 3.4-.7 1.4-1.1 2.9-1.1 4.5v5.1c0 2.1.4 4 1.2 5.5.8 1.5 1.9 2.7 3.3 3.5 1.4.8 3.1 1.2 4.9 1.2 1.3 0 2.4-.2 3.4-.5 1-.4 1.9-.9 2.7-1.6s1.3-1.6 1.7-2.6l8.1.9c-.5 2.1-1.5 4-2.9 5.6-1.4 1.6-3.3 2.8-5.5 3.7s-4.8 1.2-7.6 1.2z"></path>
                            </g>
                            <g>
                                <path class="mapChart2" d="M1610.1 1566.1c5.4 0 10.7.9 15.7 2.7s9.6 4.7 13.5 8.7 7.1 9.3 9.5 15.9c2.3 6.6 3.5 14.7 3.5 24.3 0 9-1 17-3 24.1-2 7-4.9 13-8.7 18s-8.3 8.7-13.6 11.2c-5.3 2.6-11.2 3.9-17.8 3.9-7.1 0-13.3-1.4-18.7-4.1-5.4-2.7-9.8-6.5-13.1-11.2-3.3-4.7-5.3-10.1-6-16h22.1c.9 3.9 2.7 6.8 5.4 9s6.2 3.2 10.2 3.2c6.9 0 12.1-3 15.7-9 3.6-6 5.4-14.3 5.4-24.7h-.7c-1.6 3.1-3.7 5.8-6.4 8s-5.8 3.9-9.2 5.1c-3.5 1.2-7.1 1.8-11 1.8-6.2 0-11.8-1.5-16.7-4.4-4.9-2.9-8.8-7-11.6-12.1-2.8-5.1-4.2-11-4.2-17.6 0-7.1 1.6-13.4 4.9-19 3.3-5.5 7.9-9.9 13.9-13.1 6.1-3.1 13.1-4.7 20.9-4.7zm.2 17.6c-3.5 0-6.6.8-9.3 2.5-2.7 1.7-4.8 3.9-6.4 6.7-1.6 2.8-2.3 5.9-2.3 9.4s.8 6.6 2.3 9.4 3.6 5 6.3 6.6c2.7 1.6 5.7 2.5 9.2 2.5 2.6 0 5-.5 7.2-1.4 2.2-1 4.1-2.3 5.8-4 1.6-1.7 2.9-3.7 3.9-5.9.9-2.2 1.4-4.6 1.4-7.1 0-3.3-.8-6.4-2.4-9.2s-3.7-5-6.4-6.7c-2.8-2-5.9-2.8-9.3-2.8zM1707.1 1674.9c-7.7 0-14.6-1.3-20.6-4s-10.8-6.4-14.2-11.1-5.2-10.1-5.3-16.3h22.5c.1 2.6 1 4.9 2.6 6.8 1.6 1.9 3.7 3.5 6.3 4.5 2.6 1.1 5.6 1.6 8.8 1.6 3.4 0 6.4-.6 9-1.8 2.6-1.2 4.7-2.9 6.2-5s2.2-4.6 2.2-7.4c0-2.8-.8-5.3-2.4-7.5-1.6-2.2-3.8-3.9-6.7-5.1-2.9-1.2-6.4-1.9-10.4-1.9h-9.9v-16.4h9.9c3.4 0 6.4-.6 9-1.8 2.6-1.2 4.6-2.8 6.1-4.9 1.4-2.1 2.2-4.5 2.2-7.3 0-2.7-.6-5-1.9-7-1.3-2-3-3.6-5.3-4.7s-4.9-1.7-7.9-1.7-5.8.5-8.3 1.6c-2.5 1.1-4.5 2.6-6 4.6-1.5 2-2.3 4.3-2.4 7H1669c.1-6.1 1.8-11.5 5.2-16.1 3.4-4.7 7.9-8.3 13.7-10.9 5.7-2.6 12.2-4 19.5-4 7.3 0 13.7 1.3 19.2 4s9.7 6.2 12.8 10.7c3 4.5 4.6 9.5 4.5 15.1 0 5.9-1.8 10.9-5.5 14.8-3.7 4-8.5 6.5-14.4 7.5v.8c7.8 1 13.7 3.7 17.8 8.1s6.1 9.9 6.1 16.5c0 6-1.7 11.4-5.2 16.1-3.5 4.7-8.3 8.4-14.4 11.1-6.3 2.7-13.3 4.1-21.2 4.1zM1805.4 1675.8c-8.9 0-16.5-2.2-22.9-6.6s-11.3-10.6-14.7-18.9c-3.4-8.2-5.1-18.1-5.1-29.7 0-11.5 1.7-21.4 5.1-29.5 3.4-8.1 8.3-14.3 14.7-18.6 6.4-4.3 14-6.4 22.9-6.4 8.9 0 16.5 2.1 22.9 6.4 6.4 4.3 11.3 10.5 14.8 18.6 3.4 8.1 5.2 17.9 5.1 29.5 0 11.6-1.7 21.5-5.1 29.8-3.4 8.2-8.3 14.5-14.7 18.9-6.5 4.3-14.1 6.5-23 6.5zm0-18.6c6.1 0 10.9-3 14.5-9.1 3.6-6.1 5.4-15.2 5.4-27.4 0-8-.8-14.7-2.5-20.1s-3.9-9.4-6.9-12-6.5-4-10.5-4c-6 0-10.9 3-14.5 9-3.6 6-5.4 15.1-5.5 27.1 0 8.1.8 14.9 2.5 20.3 1.6 5.4 4 9.5 7 12.2s6.5 4 10.5 4zM1568.1 1751.4v-49.1h18.4c3.8 0 6.9.7 9.5 2.1 2.6 1.4 4.5 3.3 5.8 5.8 1.3 2.5 2 5.2 2 8.4s-.7 6-2 8.4-3.3 4.4-5.9 5.8c-2.6 1.4-5.8 2.1-9.6 2.1h-12.2v-7.3h11c2.2 0 4-.4 5.4-1.2 1.4-.8 2.5-1.8 3.1-3.2s1-2.9 1-4.6c0-1.7-.3-3.3-1-4.6s-1.7-2.4-3.1-3.1c-1.4-.7-3.2-1.1-5.5-1.1h-8.2v41.7h-8.7zM1627 1752.1c-3.7 0-6.9-.8-9.6-2.3-2.7-1.5-4.7-3.7-6.2-6.6-1.4-2.8-2.2-6.2-2.2-10s.7-7.1 2.2-10c1.4-2.9 3.5-5.1 6.1-6.7 2.6-1.6 5.7-2.4 9.2-2.4 2.3 0 4.4.4 6.4 1.1 2 .7 3.8 1.9 5.4 3.4 1.6 1.5 2.8 3.5 3.7 5.8.9 2.3 1.3 5.1 1.3 8.4v2.7h-30.2v-5.9h21.9c0-1.7-.4-3.1-1.1-4.5s-1.7-2.3-2.9-3.1c-1.3-.8-2.7-1.1-4.4-1.1-1.8 0-3.3.4-4.7 1.3-1.3.9-2.4 2-3.1 3.4-.7 1.4-1.1 2.9-1.1 4.5v5.1c0 2.1.4 4 1.2 5.5.8 1.5 1.9 2.7 3.3 3.5 1.4.8 3.1 1.2 4.9 1.2 1.3 0 2.4-.2 3.4-.5 1-.4 1.9-.9 2.7-1.6s1.3-1.6 1.7-2.6l8.1.9c-.5 2.1-1.5 4-2.9 5.6-1.4 1.6-3.3 2.8-5.5 3.7s-4.7 1.2-7.6 1.2zM1669.1 1714.5v6.7h-21.2v-6.7h21.2zm-15.9-8.8h8.7v34.6c0 1.2.2 2.1.5 2.7.4.6.8 1 1.4 1.3.6.2 1.2.3 2 .3.5 0 1 0 1.5-.1s.8-.2 1-.2l1.5 6.8c-.5.2-1.1.3-2 .5-.9.2-1.9.3-3.1.3-2.2.1-4.1-.3-5.9-1-1.7-.7-3.1-1.9-4.1-3.4-1-1.5-1.5-3.5-1.5-5.8v-36zM1687 1752.1c-2.3 0-4.4-.4-6.3-1.3s-3.3-2.1-4.4-3.7-1.6-3.7-1.6-6.1c0-2.1.4-3.8 1.2-5.2.8-1.4 1.8-2.4 3.1-3.3 1.3-.8 2.8-1.4 4.5-1.9s3.4-.7 5.2-.9c2.2-.2 3.9-.4 5.3-.6 1.3-.2 2.3-.5 2.9-.9.6-.4.9-1 .9-1.8v-.1c0-1.8-.5-3.2-1.6-4.2s-2.6-1.5-4.6-1.5c-2.1 0-3.8.5-5.1 1.4-1.2.9-2.1 2-2.5 3.3l-8.1-1.2c.6-2.2 1.7-4.1 3.2-5.6 1.5-1.5 3.3-2.6 5.4-3.4 2.1-.8 4.5-1.1 7.1-1.1 1.8 0 3.5.2 5.3.6s3.4 1.1 4.8 2.1 2.6 2.2 3.5 3.9 1.3 3.7 1.3 6.1v24.7h-8.4v-5.1h-.3c-.5 1-1.3 2-2.2 2.9-1 .9-2.1 1.6-3.6 2.1-1.4.6-3.1.8-5 .8zm2.3-6.3c1.7 0 3.3-.3 4.5-1 1.3-.7 2.3-1.6 3-2.8.7-1.2 1-2.4 1-3.8v-4.3c-.3.2-.7.4-1.4.6-.6.2-1.4.4-2.2.5-.8.1-1.6.3-2.4.4-.8.1-1.5.2-2 .3-1.3.2-2.5.5-3.5.9s-1.8 1-2.4 1.7-.9 1.6-.9 2.7c0 1.6.6 2.8 1.8 3.6 1.2.8 2.7 1.2 4.5 1.2zM1715.6 1751.4v-49.1h8.7v18.4h.4c.4-.9 1.1-1.9 1.9-2.9.8-1 1.9-1.9 3.3-2.6 1.4-.7 3.2-1.1 5.3-1.1 2.8 0 5.4.7 7.7 2.2s4.1 3.6 5.5 6.4c1.4 2.8 2 6.3 2 10.4 0 4-.7 7.5-2 10.3-1.3 2.8-3.1 5-5.4 6.5-2.3 1.5-4.9 2.2-7.8 2.2-2.1 0-3.9-.4-5.3-1.1-1.4-.7-2.5-1.6-3.3-2.6-.8-1-1.5-1.9-2-2.8h-.5v5.8h-8.5zm8.5-18.4c0 2.4.3 4.5 1 6.3s1.7 3.2 3 4.2 2.9 1.5 4.7 1.5c1.9 0 3.5-.5 4.8-1.5 1.3-1 2.3-2.4 2.9-4.2.7-1.8 1-3.9 1-6.2 0-2.3-.3-4.3-1-6.1-.7-1.8-1.6-3.2-2.9-4.2s-2.9-1.5-4.8-1.5-3.4.5-4.7 1.5-2.3 2.3-2.9 4.1c-.7 1.6-1.1 3.7-1.1 6.1zM1762 1765.2c-1.2 0-2.3-.1-3.3-.3s-1.8-.4-2.4-.6l2-6.8c1.3.4 2.4.5 3.4.5s1.9-.3 2.6-.9c.8-.6 1.4-1.6 1.9-3l.7-2-13.4-37.6h9.2l8.5 27.8h.4l8.5-27.8h9.2l-14.8 41.3c-.7 2-1.6 3.6-2.7 5s-2.5 2.5-4.2 3.2-3.4 1.2-5.6 1.2zM1813.9 1714.5v6.7h-21.2v-6.7h21.2zm-16-8.8h8.7v34.6c0 1.2.2 2.1.5 2.7.4.6.8 1 1.4 1.3.6.2 1.2.3 2 .3.5 0 1 0 1.5-.1s.8-.2 1-.2l1.5 6.8c-.5.2-1.1.3-2 .5-.9.2-1.9.3-3.1.3-2.2.1-4.1-.3-5.9-1-1.7-.7-3.1-1.9-4.1-3.4-1-1.5-1.5-3.5-1.5-5.8v-36zM1837.1 1752.1c-3.7 0-6.9-.8-9.6-2.3-2.7-1.5-4.7-3.7-6.2-6.6-1.4-2.8-2.2-6.2-2.2-10s.7-7.1 2.2-10c1.4-2.9 3.5-5.1 6.1-6.7 2.6-1.6 5.7-2.4 9.2-2.4 2.3 0 4.4.4 6.4 1.1 2 .7 3.8 1.9 5.4 3.4 1.6 1.5 2.8 3.5 3.7 5.8.9 2.3 1.3 5.1 1.3 8.4v2.7h-30.2v-5.9h21.9c0-1.7-.4-3.1-1.1-4.5s-1.7-2.3-2.9-3.1c-1.3-.8-2.7-1.1-4.4-1.1-1.8 0-3.3.4-4.7 1.3-1.3.9-2.4 2-3.1 3.4-.7 1.4-1.1 2.9-1.1 4.5v5.1c0 2.1.4 4 1.2 5.5.8 1.5 1.9 2.7 3.3 3.5 1.4.8 3.1 1.2 4.9 1.2 1.3 0 2.4-.2 3.4-.5 1-.4 1.9-.9 2.7-1.6s1.3-1.6 1.7-2.6l8.1.9c-.5 2.1-1.5 4-2.9 5.6-1.4 1.6-3.3 2.8-5.5 3.7s-4.7 1.2-7.6 1.2z"></path>
                            </g>
                            <g>
                                <path class="mapChart2" d="M1298.8 976.9c0 1.6-.2 3-.7 4.2-.5 1.3-1.2 2.4-2.3 3.3-1 .9-2.4 1.7-4.1 2.2-1.7.5-3.7.8-6.1.8h-25.3l-3 17.5c2-.3 3.9-.6 5.7-.8 1.8-.2 3.6-.3 5.4-.3 5.6 0 10.5.8 14.8 2.5 4.3 1.7 7.9 4 10.8 6.9 2.9 2.9 5.1 6.4 6.6 10.3 1.5 4 2.2 8.2 2.2 12.7 0 5.7-1 10.9-3 15.5-2 4.7-4.8 8.7-8.4 12.1-3.6 3.4-7.9 6-12.8 7.9-5 1.9-10.4 2.8-16.3 2.8-3.4 0-6.7-.4-9.9-1.1-3.1-.7-6.1-1.7-8.8-2.9-2.7-1.2-5.3-2.7-7.6-4.3-2.3-1.6-4.4-3.4-6.3-5.2l7-9.3c.7-1 1.6-1.7 2.5-2.2 1-.5 2-.8 3.1-.8 1.5 0 2.8.4 4.1 1.2 1.3.8 2.7 1.7 4.2 2.6s3.3 1.8 5.3 2.6 4.6 1.2 7.6 1.2 5.6-.5 7.7-1.5c2.1-1 3.9-2.4 5.2-4.1 1.3-1.7 2.3-3.7 2.9-6 .6-2.3.9-4.8.9-7.4 0-5.1-1.5-9.1-4.4-11.8-2.9-2.7-7-4-12.4-4-4.8 0-9.4.9-14 2.7l-14-3.8 9-53.1h54.3v9.6zM1392.1 1020.5c0 9.3-1 17.3-3 24.1-2 6.8-4.7 12.4-8.3 16.9-3.5 4.5-7.7 7.8-12.5 10s-10.1 3.3-15.7 3.3-10.8-1.1-15.6-3.3c-4.8-2.2-8.9-5.5-12.4-10s-6.2-10.1-8.2-16.9c-2-6.8-2.9-14.8-2.9-24.1s1-17.3 2.9-24.1c2-6.8 4.7-12.4 8.2-16.9 3.5-4.5 7.6-7.8 12.4-9.9 4.8-2.2 10-3.2 15.6-3.2s10.9 1.1 15.7 3.2c4.8 2.2 9 5.5 12.5 9.9 3.5 4.5 6.3 10.1 8.3 16.9 2 6.8 3 14.9 3 24.1zm-23.3 0c0-7.3-.5-13.3-1.4-18-.9-4.7-2.1-8.4-3.7-11-1.5-2.7-3.3-4.5-5.2-5.5-1.9-1-3.9-1.5-5.9-1.5-2 0-3.9.5-5.9 1.5-1.9 1-3.6 2.8-5.1 5.5-1.5 2.7-2.7 6.3-3.6 11-.9 4.7-1.3 10.7-1.3 18 0 7.4.4 13.4 1.3 18 .9 4.7 2.1 8.3 3.6 11 1.5 2.7 3.2 4.5 5.1 5.5 1.9 1 3.9 1.5 5.9 1.5 2 0 4-.5 5.9-1.5 1.9-1 3.7-2.8 5.2-5.5s2.8-6.4 3.7-11c1-4.6 1.4-10.6 1.4-18zM1240.5 1134.4v17.2h-9.1v-48.9h15.9c3.3 0 6.1.4 8.5 1.1 2.4.8 4.4 1.8 5.9 3.2 1.6 1.4 2.7 3 3.4 4.9.7 1.9 1.1 4 1.1 6.3 0 2.4-.4 4.5-1.2 6.5-.8 2-2 3.7-3.5 5.1-1.6 1.4-3.5 2.5-5.9 3.3-2.4.8-5.1 1.2-8.3 1.2h-6.8zm0-7.1h6.8c1.7 0 3.1-.2 4.4-.6 1.2-.4 2.3-1 3.1-1.8s1.4-1.7 1.8-2.8c.4-1.1.6-2.4.6-3.7 0-1.3-.2-2.5-.6-3.5-.4-1.1-1-2-1.8-2.7s-1.8-1.3-3.1-1.7c-1.2-.4-2.7-.6-4.4-.6h-6.8v17.4zM1286.2 1116.3c2.2 0 4.2.3 6 1 1.8.7 3.4 1.7 4.7 3.1 1.3 1.3 2.4 3 3.1 4.9.7 1.9 1.1 4.2 1.1 6.7 0 .6 0 1.2-.1 1.6-.1.4-.2.7-.3 1s-.3.4-.6.5c-.2.1-.6.2-.9.2h-21.4c.2 3.6 1.2 6.2 2.9 7.8 1.7 1.7 3.9 2.5 6.6 2.5 1.4 0 2.5-.2 3.5-.5s1.8-.7 2.6-1c.7-.4 1.4-.7 1.9-1 .6-.3 1.1-.5 1.6-.5.3 0 .6.1.9.2.2.1.5.3.6.6l2.4 3c-.9 1.1-2 2-3.1 2.7-1.1.7-2.3 1.3-3.6 1.8s-2.5.7-3.8.9c-1.3.2-2.6.3-3.8.3-2.4 0-4.7-.4-6.7-1.2-2.1-.8-3.9-2-5.4-3.5-1.5-1.6-2.7-3.5-3.6-5.8-.9-2.3-1.3-5-1.3-8 0-2.4.4-4.6 1.1-6.7.8-2.1 1.9-3.9 3.3-5.4s3.2-2.8 5.2-3.7c2.2-1 4.5-1.5 7.1-1.5zm.2 6c-2.4 0-4.3.7-5.7 2.1s-2.3 3.3-2.6 5.8h15.7c0-1.1-.1-2.1-.4-3.1-.3-1-.7-1.8-1.4-2.5-.6-.7-1.4-1.3-2.3-1.7s-2.1-.6-3.3-.6zM1319.4 1152.1c-3 0-5.3-.9-6.9-2.6-1.6-1.7-2.4-4-2.4-7v-19.4h-3.5c-.5 0-.8-.1-1.2-.4-.3-.3-.5-.7-.5-1.3v-3.3l5.6-.9 1.8-9.5c.1-.5.3-.8.6-1s.7-.4 1.2-.4h4.3v10.9h9.1v5.9h-9.1v18.8c0 1.1.3 1.9.8 2.5.5.6 1.3.9 2.2.9.5 0 1-.1 1.3-.2.3-.1.7-.3.9-.4.3-.1.5-.3.7-.4.2-.1.4-.2.6-.2.2 0 .5.1.6.2.2.1.3.3.5.6l2.5 4.1c-1.2 1-2.6 1.8-4.2 2.3-1.6.5-3.2.8-4.9.8zM1361.3 1151.5h-3.8c-.8 0-1.4-.1-1.9-.4-.5-.2-.8-.7-1-1.4l-.7-2.5c-.9.8-1.7 1.5-2.6 2.1-.8.6-1.7 1.1-2.6 1.5-.9.4-1.9.7-2.9.9-1 .2-2.1.3-3.4.3-1.5 0-2.8-.2-4.1-.6-1.2-.4-2.3-1-3.2-1.8s-1.6-1.8-2.1-2.9c-.5-1.2-.7-2.5-.7-4.1 0-1.3.3-2.6 1-3.9.7-1.3 1.8-2.4 3.4-3.5s3.7-1.9 6.4-2.6c2.7-.7 6-1 9.9-1v-2c0-2.3-.5-4.1-1.5-5.2-1-1.1-2.4-1.7-4.3-1.7-1.4 0-2.5.2-3.4.5-.9.3-1.7.7-2.3 1.1-.7.4-1.3.7-1.8 1.1-.6.3-1.2.5-1.9.5-.6 0-1-.1-1.5-.4-.4-.3-.7-.7-1-1.1l-1.5-2.7c4-3.6 8.8-5.5 14.4-5.5 2 0 3.8.3 5.4 1 1.6.7 2.9 1.6 4 2.8s1.9 2.6 2.5 4.2c.6 1.6.9 3.4.9 5.4v21.9zm-16.2-5.2c.9 0 1.6-.1 2.4-.2.7-.2 1.4-.4 2-.7.6-.3 1.3-.7 1.9-1.1.6-.5 1.2-1 1.8-1.6v-5.8c-2.4 0-4.5.2-6.1.5-1.6.3-2.9.7-3.9 1.2s-1.7 1-2.1 1.7c-.4.6-.6 1.3-.6 2.1 0 1.5.4 2.5 1.3 3.2.7.4 1.9.7 3.3.7zM1369.6 1151.5v-50.2h8.3v19.8c1.4-1.5 2.9-2.6 4.7-3.5s3.8-1.3 6.1-1.3c1.9 0 3.6.4 5.2 1.2 1.6.8 2.9 1.9 4.1 3.4 1.1 1.5 2 3.3 2.6 5.5.6 2.2.9 4.7.9 7.5 0 2.6-.3 5-1 7.2s-1.7 4.1-3 5.7c-1.3 1.6-2.9 2.9-4.7 3.8-1.8.9-3.9 1.4-6.2 1.4-1.1 0-2-.1-2.9-.3-.9-.2-1.7-.5-2.4-.9s-1.4-.8-2-1.4l-1.8-1.8-.4 2.3c-.1.6-.4 1-.7 1.2-.3.2-.8.4-1.3.4h-5.5zm16.2-28.7c-1.7 0-3.2.4-4.4 1.1-1.2.7-2.4 1.8-3.4 3.1v15.5c.9 1.2 2 2 3.1 2.4 1.1.5 2.3.7 3.6.7 1.3 0 2.4-.2 3.4-.7s1.9-1.2 2.6-2.2c.7-1 1.3-2.2 1.6-3.7.4-1.5.6-3.2.6-5.2s-.2-3.7-.5-5.2c-.3-1.4-.8-2.6-1.4-3.4-.6-.9-1.3-1.5-2.2-1.9s-1.9-.5-3-.5zM1419.2 1161.1c-.2.6-.6 1-1 1.3-.4.3-1 .5-1.8.5h-6.2l6.5-13.9-14-32.1h7.3c.7 0 1.2.2 1.6.5s.6.7.8 1.1l7.4 18c.2.6.5 1.2.6 1.8.2.6.3 1.3.5 1.9.2-.7.4-1.3.6-1.9.2-.6.4-1.2.7-1.9l7-17.9c.2-.5.5-.8.9-1.1.4-.3.9-.4 1.4-.4h6.7l-19 44.1zM1454.3 1152.1c-3 0-5.3-.9-6.9-2.6-1.6-1.7-2.4-4-2.4-7v-19.4h-3.5c-.5 0-.8-.1-1.2-.4-.3-.3-.5-.7-.5-1.3v-3.3l5.6-.9 1.8-9.5c.1-.5.3-.8.6-1s.7-.4 1.2-.4h4.3v10.9h9.1v5.9h-9.1v18.8c0 1.1.3 1.9.8 2.5.5.6 1.3.9 2.2.9.5 0 1-.1 1.3-.2.3-.1.7-.3.9-.4.3-.1.5-.3.7-.4.2-.1.4-.2.6-.2.2 0 .5.1.6.2.2.1.3.3.5.6l2.5 4.1c-1.2 1-2.6 1.8-4.2 2.3-1.5.5-3.2.8-4.9.8zM1483.4 1116.3c2.2 0 4.2.3 6 1 1.8.7 3.4 1.7 4.7 3.1 1.3 1.3 2.4 3 3.1 4.9.7 1.9 1.1 4.2 1.1 6.7 0 .6 0 1.2-.1 1.6-.1.4-.2.7-.3 1s-.3.4-.6.5c-.2.1-.6.2-.9.2H1475c.2 3.6 1.2 6.2 2.9 7.8 1.7 1.7 3.9 2.5 6.6 2.5 1.4 0 2.5-.2 3.5-.5s1.8-.7 2.6-1c.7-.4 1.4-.7 1.9-1 .6-.3 1.1-.5 1.6-.5.3 0 .6.1.9.2.2.1.5.3.6.6l2.4 3c-.9 1.1-2 2-3.1 2.7-1.1.7-2.3 1.3-3.6 1.8s-2.5.7-3.8.9c-1.3.2-2.6.3-3.8.3-2.4 0-4.7-.4-6.7-1.2-2.1-.8-3.9-2-5.4-3.5-1.5-1.6-2.7-3.5-3.6-5.8-.9-2.3-1.3-5-1.3-8 0-2.4.4-4.6 1.1-6.7.8-2.1 1.9-3.9 3.3-5.4s3.2-2.8 5.2-3.7c2.2-1 4.5-1.5 7.1-1.5zm.2 6c-2.4 0-4.3.7-5.7 2.1s-2.3 3.3-2.6 5.8h15.7c0-1.1-.1-2.1-.4-3.1-.3-1-.7-1.8-1.4-2.5-.6-.7-1.4-1.3-2.3-1.7s-2.1-.6-3.3-.6z"></path>
                            </g>
                            <g>
                                <path class="mapChart1" d="M1021.1 1737h-5.2v-20.8h5.2v20.8zm0-41.6h-5.2v-20.8h5.2v20.8zm0-41.6h-5.2V1633h5.2v20.8zm0-41.6h-5.2v-20.8h5.2v20.8zm0-41.5h-5.2v-20.8h5.2v20.8zm0-41.6h-5.2v-20.8h5.2v20.8zm0-41.6h-5.2v-20.8h5.2v20.8zm0-41.6h-5.2v-20.8h5.2v20.8zm0-41.6h-5.2v-20.8h5.2v20.8zm0-41.6h-5.2v-15.6h5.2v15.6zm0-46.7h-5.2v-15.6h5.2v15.6zm0-36.4h-5.2v-20.8h5.2v20.8zm0-41.6h-5.2v-20.8h5.2v20.8zm0-83.2h-5.2V1134h5.2v20.8zm0-41.6h-5.2v-20.8h5.2v20.8zm0-41.6h-5.2v-20.8h5.2v20.8z"></path>
                            </g>
                            <g>
                                <circle class="mapChart1" cx="1019.7" cy="1773.8" r="7.5"></circle>
                            </g>
                            <g>
                                <circle class="mapChart1" cx="1018.3" cy="1185.2" r="7.5"></circle>
                            </g>
                            <g>
                                <circle class="mapChart1" cx="1018.3" cy="1331.6" r="7.5"></circle>
                            </g>
                            <g>
                                <path class="mapChart1" d="M960 1247.4h-7.5v-34.3h-.2l-9.7 6.2v-6.9l10.3-6.6h7.2v41.6zM969.9 1226.6c0-13.6 6-21.4 16-21.4s16 7.8 16 21.4c0 13.6-6 21.6-16 21.5-10 .1-16-7.9-16-21.5zm24.5 0c0-9.9-3.2-15.1-8.4-15.1s-8.4 5.2-8.4 15.1c0 10 3.2 15.2 8.4 15.2s8.4-5.2 8.4-15.2zM1037.2 1205.8h7.4v22.9h.5l11.2-12.5h8.6l-12.1 13.5 12.8 17.7h-8.8l-9.5-13.3-2.7 2.9v10.5h-7.4v-41.7zM1069.7 1216.2h7v5.3h.4c1.3-3.6 4.4-5.7 8.6-5.7 4.2 0 7.2 2.2 8.4 5.7h.3c1.4-3.5 4.8-5.7 9.4-5.7 5.7 0 9.7 3.7 9.7 10.7v20.9h-7.4v-19.8c0-3.9-2.4-5.6-5.3-5.6-3.6 0-5.6 2.4-5.6 6v19.5h-7.2v-20.1c0-3.2-2.1-5.3-5.2-5.3-3.2 0-5.7 2.6-5.7 6.4v19h-7.4v-31.3z"></path>
                            </g>
                            <g>
                                <path class="mapChart1" d="M938.5 1735.6h7.3c.3 3.4 3.3 5.8 7 5.8 4.4 0 7.7-3.3 7.6-8 0-4.7-3.3-8.1-7.8-8.1-2.5 0-5.1 1-6.5 2.6l-6.8-1.1 2.2-21.4h24.1v6.3h-17.9l-1.2 11h.2c1.5-1.8 4.5-3.2 7.9-3.2 7.6 0 13.1 5.8 13.1 13.8 0 8.3-6.1 14.2-14.9 14.2-8.1 0-14.1-5-14.3-11.9zM973.9 1726.2c0-13.6 6-21.4 16-21.4s16 7.8 16 21.4c0 13.6-6 21.6-16 21.5-10 0-16-7.9-16-21.5zm24.4 0c0-9.9-3.2-15.1-8.4-15.1s-8.4 5.2-8.4 15.1c0 10 3.2 15.2 8.4 15.2s8.4-5.2 8.4-15.2zM1041.1 1705.3h7.4v22.9h.5l11.2-12.5h8.6l-12.1 13.5 12.8 17.7h-8.8l-9.5-13.3-2.7 2.9v10.5h-7.4v-41.7zM1073.7 1715.7h7v5.3h.4c1.3-3.6 4.4-5.7 8.6-5.7 4.2 0 7.2 2.2 8.4 5.7h.3c1.4-3.5 4.8-5.7 9.4-5.7 5.7 0 9.7 3.7 9.7 10.7v20.9h-7.4v-19.8c0-3.9-2.4-5.6-5.3-5.6-3.6 0-5.6 2.4-5.6 6v19.5h-7.2v-20.1c0-3.2-2.1-5.3-5.2-5.3-3.2 0-5.7 2.6-5.7 6.4v19h-7.4v-31.3z"></path>
                            </g>
                            <g>
                                <path d="M907.9 1138.5c-5-5-5.7-5.2-9.9-10.9l4.2-3.1c4.1 5.5 4.1 6.4 9 11.2l-3.3 2.8z"></path>
                            </g>
                            <g>
                                <path class="mapChart2" d="M799.7 1234.5l217.5-195"></path>
                                <path transform="rotate(-41.867 908.589 1137.068)" class="mapChart2" d="M762.4 1134.4h292.1v5.2H762.4z"></path>
                                <g>
                                    <circle class="mapChart2" cx="799.7" cy="1234.5" r="11.1"></circle>
                                </g>
                            </g>
                            <g>
                                <circle class="mapChart2" cx="1018.4" cy="1035.9" r="19.5"></circle>
                            </g>
                        </svg>
