<svg version="1.1" id="Ebene_1" xmlns="http://www.w3.org/2000/svg" x="0" y="0" viewBox="0 0 1360 409.2" xml:space="preserve">
                                <style>.dataChart1{fill:#E0E0E1} .dataChart2{fill:#3F8CC6}</style>
                            <path class="dataChart1" d="M340 339.9c-.8 0-1.6-.3-2.2-.9l-26.5-24.9h-32.1c-.6 0-1.2-.2-1.7-.5L251 296.8l-34.1 6.2-24.9 10.9c-1.1.5-2.4.3-3.3-.5l-25.9-21.8-25.6 11.2c-.6.3-1.3.3-2 .2l-38.4-9-23.2 8.9c-.6.2-1.2.3-1.8.1L45 297l-28.3 38.7c-1 1.4-3 1.7-4.4.7-1.4-1-1.7-3-.7-4.4L41 291.7c.7-1 2.1-1.5 3.3-1.2l27.9 6.2 23.3-8.9c.6-.2 1.2-.3 1.9-.1l38.3 9L162 285c1.1-.5 2.4-.3 3.3.5l25.9 21.8 23.7-10.2 36-6.6c.8-.1 1.6 0 2.3.4l26.8 17h32.5c.8 0 1.6.3 2.2.9l24.4 22.9 25.5-47.9c.4-.8 1.2-1.4 2-1.6l58.9-14.9c.9-.2 1.8-.1 2.6.5l25.8 17.8 64.9-43.4c1.1-.7 2.5-.7 3.6 0l19.9 13.6 25.7-16.5c.4-.3.9-.5 1.5-.5l35.3-2.8c1.6-.1 2.8.8 3.3 2.2l27 80.9 20.2-43.7c.4-.9 1.3-1.6 2.3-1.8 1-.2 2 .1 2.8.8l29.7 28.1 30.6-16.8 29-50.9c.4-.8 1.2-1.3 2.1-1.5.8-.2 1.8 0 2.5.5l57.1 39.1 61-41.9c.6-.4 1.5-.6 2.2-.5l49.7 6.9 26.5-20.5c.8-.6 1.9-.8 2.9-.5l34.2 10.3 28.3-12.9c1-.5 2.2-.4 3.1.3l27.5 18.5 25.1-20.7 33.1-66c.7-1.4 2.3-2.1 3.9-1.6l29.6 10 28-26.3c.6-.6 1.4-.9 2.3-.9.9 0 1.6.4 2.2 1l28.6 30.9 30.2 1.9 24.3-34.9 25.4-79.6c.3-.9.9-1.6 1.7-1.9.8-.4 1.8-.4 2.6 0l33.4 14.9c.5.2.9.5 1.2.9l33.3 42.5c1.1 1.4.8 3.4-.5 4.5-1.4 1.1-3.4.8-4.5-.5L1313.9 65l-29.4-13.1-24.4 76.7c-.1.3-.2.6-.4.9l-25.6 36.8c-.6.9-1.7 1.4-2.8 1.4l-33.3-2.1c-.8 0-1.6-.4-2.1-1l-27.3-29.5-27.1 25.4c-.9.8-2.1 1.1-3.2.7l-28.8-9.7-32.1 64.1c-.2.4-.5.7-.8 1l-27.5 22.6c-1.1.9-2.6 1-3.8.2l-28-18.8-27.8 12.7c-.7.3-1.5.4-2.2.2l-33.8-10.1-26.7 19.6c-.7.5-1.5.7-2.4.6l-49.8-6.9-61.8 42.4c-1.1.7-2.5.7-3.6 0l-56-38.4-27.8 48.7c-.3.5-.7.9-1.2 1.2L690.8 309c-1.2.7-2.7.5-3.7-.5L659 281.9l-21.7 47c-.5 1.2-1.7 2-3.1 1.8-1.3-.1-2.4-.9-2.8-2.2l-28.7-86.1-32.1 2.5-26.8 17.2c-1.1.7-2.5.7-3.5-.1l-19.8-13.6-64.9 43.4c-1.1.7-2.5.7-3.6 0l-26.4-18.2-56.1 14.2-26.8 50.4c-.5.9-1.3 1.5-2.3 1.6-.1.1-.3.1-.4.1z"></path>
                            <path class="dataChart2" d="M1281.3 82c-19.9 0-36-16.2-36-36s16.2-36 36-36 36 16.2 36 36-16.1 36-36 36zm0-67.8c-17.5 0-31.8 14.3-31.8 31.8s14.3 31.8 31.8 31.8 31.8-14.3 31.8-31.8-14.2-31.8-31.8-31.8z"></path>
                            <g class="dataChart1">
                                <path d="M1253.6 369.9c.9 0 1.8.1 2.7.4.9.3 1.6.7 2.3 1.2.7.6 1.2 1.2 1.6 2.1.4.8.6 1.8.6 2.9 0 .9-.1 1.8-.4 2.6-.3.8-.7 1.6-1.2 2.3-.5.7-1.1 1.4-1.7 2.1-.6.7-1.3 1.4-2 2.1l-7.8 7.9c.4-.1.8-.2 1.2-.2.4 0 .8-.1 1.2-.1h10.7c.2 0 .3 0 .4.2.1.1.2.2.2.4v1h-16v-.6c0-.1 0-.3.1-.4.1-.1.1-.2.2-.3l8.5-8.6c.7-.7 1.3-1.4 1.9-2.1.6-.7 1.1-1.3 1.6-2 .4-.7.8-1.4 1-2.1.3-.7.4-1.5.4-2.3 0-.9-.1-1.7-.5-2.4s-.7-1.2-1.2-1.7c-.5-.4-1.1-.8-1.8-1-.7-.2-1.3-.3-2.1-.3s-1.5.1-2.2.4c-.7.2-1.2.6-1.7 1s-.9.9-1.3 1.5c-.3.6-.6 1.2-.7 1.9-.1.4-.4.6-.7.6h-.1-.1l-.8-.1c.1-1.1.4-2 .9-2.8.4-.8 1-1.5 1.7-2.1s1.4-1 2.3-1.3c.8 0 1.8-.2 2.8-.2zM1282.4 382.6c0 2.2-.2 4-.7 5.6-.5 1.6-1.1 2.9-1.9 3.9-.8 1-1.8 1.8-2.8 2.3-1.1.5-2.2.8-3.5.8s-2.4-.3-3.5-.8-2-1.3-2.8-2.3c-.8-1-1.4-2.4-1.9-3.9s-.7-3.5-.7-5.6c0-2.2.2-4.1.7-5.6.5-1.6 1.1-2.9 1.9-3.9.8-1 1.7-1.8 2.8-2.3 1.1-.5 2.2-.8 3.5-.8s2.4.3 3.5.8 2 1.3 2.8 2.3c.8 1 1.4 2.4 1.9 3.9.4 1.5.7 3.4.7 5.6zm-1.8 0c0-2-.2-3.7-.6-5.1-.4-1.4-.9-2.6-1.5-3.5-.6-.9-1.4-1.6-2.3-2-.9-.4-1.8-.6-2.7-.6s-1.9.2-2.7.6c-.9.4-1.6 1.1-2.3 2-.7.9-1.2 2.1-1.6 3.5-.4 1.4-.6 3.1-.6 5.1 0 2 .2 3.7.6 5.2.4 1.4.9 2.6 1.6 3.5.7.9 1.4 1.6 2.3 2 .9.4 1.8.6 2.7.6s1.9-.2 2.7-.6c.9-.4 1.6-1.1 2.3-2 .6-.9 1.2-2.1 1.5-3.5.4-1.5.6-3.2.6-5.2zM1294.2 369.9c.9 0 1.8.1 2.7.4.9.3 1.6.7 2.3 1.2.7.6 1.2 1.2 1.6 2.1.4.8.6 1.8.6 2.9 0 .9-.1 1.8-.4 2.6-.3.8-.7 1.6-1.2 2.3-.5.7-1.1 1.4-1.7 2.1-.6.7-1.3 1.4-2 2.1l-7.8 7.9c.4-.1.8-.2 1.2-.2.4 0 .8-.1 1.2-.1h10.7c.2 0 .3 0 .4.2.1.1.2.2.2.4v1h-16v-.6c0-.1 0-.3.1-.4.1-.1.1-.2.2-.3l8.5-8.6c.7-.7 1.3-1.4 1.9-2.1.6-.7 1.1-1.3 1.6-2 .4-.7.8-1.4 1-2.1.3-.7.4-1.5.4-2.3 0-.9-.1-1.7-.5-2.4s-.7-1.2-1.2-1.7c-.5-.4-1.1-.8-1.8-1-.7-.2-1.3-.3-2.1-.3s-1.5.1-2.2.4c-.7.2-1.2.6-1.7 1s-.9.9-1.3 1.5c-.3.6-.6 1.2-.7 1.9-.1.4-.4.6-.7.6h-.1-.1l-.8-.1c.1-1.1.4-2 .9-2.8.4-.8 1-1.5 1.7-2.1s1.4-1 2.3-1.3c.8 0 1.8-.2 2.8-.2zM1323 382.6c0 2.2-.2 4-.7 5.6-.5 1.6-1.1 2.9-1.9 3.9-.8 1-1.8 1.8-2.8 2.3-1.1.5-2.2.8-3.5.8-1.2 0-2.4-.3-3.5-.8s-2-1.3-2.8-2.3c-.8-1-1.4-2.4-1.9-3.9s-.7-3.5-.7-5.6c0-2.2.2-4.1.7-5.6.5-1.6 1.1-2.9 1.9-3.9.8-1 1.7-1.8 2.8-2.3 1.1-.5 2.2-.8 3.5-.8 1.2 0 2.4.3 3.5.8s2 1.3 2.8 2.3c.8 1 1.4 2.4 1.9 3.9s.7 3.4.7 5.6zm-1.8 0c0-2-.2-3.7-.6-5.1-.4-1.4-.9-2.6-1.5-3.5-.6-.9-1.4-1.6-2.3-2-.9-.4-1.8-.6-2.7-.6s-1.9.2-2.7.6c-.9.4-1.6 1.1-2.3 2-.7.9-1.2 2.1-1.6 3.5-.4 1.4-.6 3.1-.6 5.1 0 2 .2 3.7.6 5.2.4 1.4.9 2.6 1.6 3.5.7.9 1.4 1.6 2.3 2 .9.4 1.8.6 2.7.6s1.9-.2 2.7-.6c.9-.4 1.6-1.1 2.3-2 .6-.9 1.2-2.1 1.5-3.5.5-1.5.6-3.2.6-5.2z"></path>
                            </g>
                            <g class="dataChart1">
                                <path d="M852.1 369.9c.9 0 1.8.1 2.7.4.9.3 1.6.7 2.3 1.2.7.6 1.2 1.2 1.6 2.1.4.8.6 1.8.6 2.9 0 .9-.1 1.8-.4 2.6-.3.8-.7 1.6-1.2 2.3-.5.7-1.1 1.4-1.7 2.1-.6.7-1.3 1.4-2 2.1l-7.8 7.9c.4-.1.8-.2 1.2-.2s.8-.1 1.2-.1h10.7c.2 0 .3 0 .4.2.1.1.2.2.2.4v1h-16v-.6c0-.1 0-.3.1-.4.1-.1.1-.2.2-.3l8.5-8.6c.7-.7 1.3-1.4 1.9-2.1.6-.7 1.1-1.3 1.6-2 .4-.7.8-1.4 1-2.1.3-.7.4-1.5.4-2.3 0-.9-.1-1.7-.5-2.4s-.7-1.2-1.2-1.7c-.5-.4-1.1-.8-1.8-1-.7-.2-1.3-.3-2.1-.3s-1.5.1-2.2.4c-.7.2-1.2.6-1.7 1s-.9.9-1.3 1.5c-.3.6-.6 1.2-.7 1.9-.1.4-.4.6-.7.6h-.1-.1l-.8-.1c.1-1.1.4-2 .9-2.8.4-.8 1-1.5 1.7-2.1s1.4-1 2.3-1.3c.9 0 1.8-.2 2.8-.2zM881 382.6c0 2.2-.2 4-.7 5.6-.5 1.6-1.1 2.9-1.9 3.9-.8 1-1.8 1.8-2.8 2.3-1.1.5-2.2.8-3.5.8-1.2 0-2.4-.3-3.5-.8s-2-1.3-2.8-2.3c-.8-1-1.4-2.4-1.9-3.9s-.7-3.5-.7-5.6c0-2.2.2-4.1.7-5.6.5-1.6 1.1-2.9 1.9-3.9.8-1 1.7-1.8 2.8-2.3 1.1-.5 2.2-.8 3.5-.8 1.2 0 2.4.3 3.5.8s2 1.3 2.8 2.3c.8 1 1.4 2.4 1.9 3.9.4 1.5.7 3.4.7 5.6zm-1.8 0c0-2-.2-3.7-.6-5.1-.4-1.4-.9-2.6-1.5-3.5-.6-.9-1.4-1.6-2.3-2-.9-.4-1.8-.6-2.7-.6-1 0-1.9.2-2.7.6-.9.4-1.6 1.1-2.3 2-.7.9-1.2 2.1-1.6 3.5-.4 1.4-.6 3.1-.6 5.1 0 2 .2 3.7.6 5.2.4 1.4.9 2.6 1.6 3.5.7.9 1.4 1.6 2.3 2 .9.4 1.8.6 2.7.6 1 0 1.9-.2 2.7-.6.9-.4 1.6-1.1 2.3-2 .6-.9 1.2-2.1 1.5-3.5.4-1.5.6-3.2.6-5.2zM887.6 393.7h5.7v-20.1-1.3l-5.5 4.9c-.1.1-.3.2-.4.2-.2 0-.3-.1-.5-.2l-.5-.7 7.2-6.3h1.3v23.6h5.4v1.3h-12.8v-1.4zM912.6 384.4c-1 0-2-.2-2.8-.5-.9-.3-1.6-.8-2.2-1.4-.6-.6-1.1-1.4-1.5-2.2-.3-.9-.5-1.8-.5-2.9 0-1.1.2-2 .6-2.9.4-.9.9-1.7 1.6-2.4.7-.7 1.5-1.2 2.5-1.6 1-.4 2-.6 3.2-.6 1.1 0 2.1.2 3 .6.9.4 1.7.9 2.4 1.6.7.7 1.2 1.5 1.5 2.4.4 1 .5 2 .5 3.2 0 .6-.1 1.2-.2 1.8-.1.6-.3 1.2-.6 1.7-.3.6-.6 1.2-1 1.8-.4.6-.8 1.3-1.3 2l-6.5 9.5c-.2.3-.5.4-.9.4H909l7.3-10.2c.3-.5.7-1 1-1.4.3-.4.6-.9.8-1.3-.7.7-1.5 1.3-2.5 1.7-.9.5-1.9.7-3 .7zm6.7-7c0-.9-.1-1.7-.4-2.5s-.7-1.4-1.2-1.9-1.2-.9-1.9-1.2c-.7-.3-1.5-.4-2.4-.4-.9 0-1.7.1-2.5.4-.8.3-1.4.7-2 1.2-.5.5-1 1.2-1.3 1.9-.3.7-.5 1.5-.5 2.4 0 .9.1 1.7.4 2.5.3.7.7 1.3 1.2 1.9.5.5 1.1.9 1.8 1.2.7.3 1.5.4 2.4.4 1 0 1.9-.2 2.7-.5s1.4-.8 2-1.3c.5-.5.9-1.2 1.2-1.8.4-.9.5-1.6.5-2.3z"></path>
                            </g>
                            <g class="dataChart1">
                                <path d="M450.7 369.9c.9 0 1.8.1 2.7.4.9.3 1.6.7 2.3 1.2.7.6 1.2 1.2 1.6 2.1s.6 1.8.6 2.9c0 .9-.1 1.8-.4 2.6-.3.8-.7 1.6-1.2 2.3-.5.7-1.1 1.4-1.7 2.1-.6.7-1.3 1.4-2 2.1l-7.8 7.9c.4-.1.8-.2 1.2-.2.4 0 .8-.1 1.2-.1h10.7c.2 0 .3 0 .4.2.1.1.2.2.2.4v1h-16v-.6c0-.1 0-.3.1-.4.1-.1.1-.2.2-.3l8.5-8.6c.7-.7 1.3-1.4 1.9-2.1.6-.7 1.1-1.3 1.6-2 .4-.7.8-1.4 1-2.1.3-.7.4-1.5.4-2.3 0-.9-.1-1.7-.5-2.4-.3-.7-.7-1.2-1.2-1.7-.5-.4-1.1-.8-1.8-1-.7-.2-1.4-.3-2.1-.3-.8 0-1.5.1-2.2.4-.7.2-1.2.6-1.8 1-.5.4-.9.9-1.3 1.5-.3.6-.6 1.2-.7 1.9-.1.4-.4.6-.7.6h-.1-.1l-.8-.1c.1-1.1.4-2 .9-2.8.4-.8 1-1.5 1.7-2.1.7-.6 1.4-1 2.3-1.3 1 0 1.9-.2 2.9-.2zM479.5 382.6c0 2.2-.2 4-.7 5.6-.5 1.6-1.1 2.9-1.9 3.9-.8 1-1.8 1.8-2.8 2.3-1.1.5-2.2.8-3.5.8-1.2 0-2.4-.3-3.4-.8-1.1-.5-2-1.3-2.8-2.3-.8-1-1.4-2.4-1.9-3.9-.5-1.6-.7-3.5-.7-5.6 0-2.2.2-4.1.7-5.6.5-1.6 1.1-2.9 1.9-3.9.8-1 1.7-1.8 2.8-2.3 1.1-.5 2.2-.8 3.4-.8 1.2 0 2.4.3 3.5.8s2 1.3 2.8 2.3c.8 1 1.4 2.4 1.9 3.9s.7 3.4.7 5.6zm-1.7 0c0-2-.2-3.7-.6-5.1-.4-1.4-.9-2.6-1.5-3.5-.6-.9-1.4-1.6-2.3-2-.9-.4-1.8-.6-2.7-.6-1 0-1.9.2-2.7.6-.9.4-1.6 1.1-2.3 2-.7.9-1.2 2.1-1.6 3.5-.4 1.4-.6 3.1-.6 5.1 0 2 .2 3.7.6 5.2s.9 2.6 1.6 3.5c.7.9 1.4 1.6 2.3 2 .9.4 1.8.6 2.7.6 1 0 1.9-.2 2.7-.6.9-.4 1.6-1.1 2.3-2 .6-.9 1.2-2.1 1.5-3.5.4-1.5.6-3.2.6-5.2zM486.2 393.7h5.7v-20.1c0-.4 0-.8.1-1.3l-5.5 4.9c-.1.1-.3.2-.4.2-.2 0-.4-.1-.5-.2l-.5-.7 7.2-6.3h1.3v23.6h5.4v1.3h-12.8v-1.4zM511.3 395.3c-1.2 0-2.3-.2-3.3-.5s-1.8-.8-2.5-1.4c-.7-.6-1.3-1.3-1.7-2.2-.4-.8-.6-1.8-.6-2.8 0-.9.1-1.7.4-2.4.3-.7.6-1.3 1.1-1.9.5-.5 1-1 1.7-1.3.7-.4 1.4-.6 2.2-.8-.7-.2-1.4-.5-1.9-.9-.6-.4-1-.8-1.4-1.3-.4-.5-.7-1.1-.9-1.7-.2-.6-.3-1.3-.3-2 0-.9.2-1.7.5-2.5s.8-1.4 1.4-2c.6-.6 1.4-1 2.3-1.3.9-.3 1.9-.5 3-.5s2.1.2 3 .5c.9.3 1.6.8 2.3 1.3.6.6 1.1 1.2 1.4 2 .3.8.5 1.6.5 2.5 0 .7-.1 1.4-.3 2s-.5 1.2-.9 1.7-.9.9-1.4 1.3c-.6.4-1.2.6-1.9.9.8.2 1.5.4 2.2.8.7.3 1.2.8 1.7 1.3s.9 1.1 1.1 1.9c.3.7.4 1.5.4 2.4 0 1.1-.2 2-.6 2.8-.4.8-.9 1.6-1.7 2.2-.7.6-1.6 1.1-2.5 1.4-1 .3-2.1.5-3.3.5zm0-1.4c.9 0 1.8-.1 2.6-.4.8-.3 1.4-.6 2-1.1.6-.5 1-1.1 1.3-1.7.3-.7.5-1.4.5-2.3 0-1.1-.2-2-.6-2.7-.4-.7-.9-1.3-1.5-1.7-.6-.4-1.3-.7-2-.9-.7-.2-1.5-.3-2.2-.3-.7 0-1.4.1-2.2.3-.7.2-1.4.5-2 .9-.6.4-1.1 1-1.5 1.7-.4.7-.6 1.6-.6 2.7 0 .8.1 1.6.5 2.3.3.7.7 1.3 1.3 1.7.6.5 1.2.9 2 1.1.6.3 1.4.4 2.4.4zm0-12.5c.9 0 1.8-.1 2.5-.4.7-.3 1.3-.7 1.7-1.2.5-.5.8-1 1-1.7.2-.6.3-1.3.3-1.9 0-.7-.1-1.4-.4-2-.2-.6-.6-1.2-1.1-1.6-.5-.5-1-.8-1.7-1.1-.7-.3-1.5-.4-2.3-.4-.9 0-1.7.1-2.4.4-.7.3-1.3.6-1.7 1.1-.5.5-.8 1-1.1 1.6-.2.6-.4 1.3-.4 2s.1 1.3.3 1.9c.2.6.6 1.2 1 1.7.5.5 1 .9 1.7 1.2.8.3 1.6.4 2.6.4z"></path>
                            </g>
                            <g class="dataChart1">
                                <path d="M49.3 369.9c.9 0 1.8.1 2.7.4.9.3 1.6.7 2.3 1.2.7.6 1.2 1.2 1.6 2.1s.6 1.8.6 2.9c0 .9-.1 1.8-.4 2.6-.3.8-.7 1.6-1.2 2.3-.5.7-1.1 1.4-1.7 2.1-.6.7-1.3 1.4-2 2.1l-7.8 7.9c.4-.1.8-.2 1.2-.2.4 0 .8-.1 1.2-.1h10.7c.2 0 .3 0 .4.2.1.1.2.2.2.4v1H41v-.6c0-.1 0-.3.1-.4.1-.1.1-.2.2-.3l8.5-8.6c.7-.7 1.3-1.4 1.9-2.1.6-.7 1.1-1.3 1.6-2 .4-.7.8-1.4 1-2.1.3-.7.4-1.5.4-2.3 0-.9-.1-1.7-.5-2.4-.3-.7-.7-1.2-1.2-1.7-.5-.4-1.1-.8-1.8-1-.7-.2-1.4-.3-2.1-.3-.8 0-1.5.1-2.2.4-.7.2-1.2.6-1.8 1-.5.4-.9.9-1.3 1.5-.3.6-.6 1.2-.7 1.9-.1.4-.4.6-.7.6h-.1-.1l-.8-.1c.1-1.1.4-2 .9-2.8.4-.8 1-1.5 1.7-2.1.7-.6 1.4-1 2.3-1.3 1.1 0 2-.2 3-.2zM78.1 382.6c0 2.2-.2 4-.7 5.6s-1.1 2.9-1.9 3.9c-.8 1-1.8 1.8-2.8 2.3-1.1.5-2.2.8-3.5.8-1.2 0-2.4-.3-3.4-.8-1.1-.5-2-1.3-2.8-2.3-.8-1-1.4-2.4-1.9-3.9-.5-1.6-.7-3.5-.7-5.6 0-2.2.2-4.1.7-5.6.5-1.6 1.1-2.9 1.9-3.9.8-1 1.7-1.8 2.8-2.3 1.1-.5 2.2-.8 3.4-.8 1.2 0 2.4.3 3.5.8s2 1.3 2.8 2.3c.8 1 1.4 2.4 1.9 3.9s.7 3.4.7 5.6zm-1.7 0c0-2-.2-3.7-.6-5.1-.4-1.4-.9-2.6-1.5-3.5-.6-.9-1.4-1.6-2.3-2-.9-.4-1.8-.6-2.7-.6-1 0-1.9.2-2.7.6-.9.4-1.6 1.1-2.3 2-.7.9-1.2 2.1-1.6 3.5-.4 1.4-.6 3.1-.6 5.1 0 2 .2 3.7.6 5.2s.9 2.6 1.6 3.5c.7.9 1.4 1.6 2.3 2 .9.4 1.8.6 2.7.6 1 0 1.9-.2 2.7-.6.9-.4 1.6-1.1 2.3-2 .6-.9 1.2-2.1 1.5-3.5s.6-3.2.6-5.2zM84.8 393.7h5.7v-20.1c0-.4 0-.8.1-1.3l-5.5 4.9c-.1.1-.3.2-.4.2-.2 0-.4-.1-.5-.2l-.5-.7 7.2-6.3h1.3v23.6h5.4v1.3H84.8v-1.4zM118.5 370.2v.8c0 .2 0 .4-.1.5 0 .1-.1.3-.1.4l-11.4 22.5c-.1.2-.2.3-.4.5s-.4.2-.6.2h-1.1l11.4-22.4c.2-.3.3-.6.5-.8h-14.3c-.1 0-.2 0-.3-.1-.1-.1-.1-.2-.1-.3v-1.1h16.5z"></path>
                            </g>
                            </svg>
