<svg width="250" height="56" viewBox="0 0 250 56" fill="none" xmlns="http://www.w3.org/2000/svg">
<path d="M69.2766 13.2696L69.274 13.2679C60.214 7.42401 48.5327 9.25327 41.5123 17.6798C31.671 29.2684 23.7307 38.8426 17.6135 46.2186C15.8287 48.3706 14.1991 50.3355 12.7228 52.1087C11.8921 53.0741 10.6323 53.6355 9.38134 53.6355H1.90292C1.76957 53.6355 1.696 53.6013 1.65467 53.574C1.6075 53.5428 1.5651 53.4952 1.53568 53.4314C1.47089 53.2908 1.50178 53.1711 1.55999 53.1012L1.56484 53.0953L1.56964 53.0895C9.04263 43.9268 23.4329 26.5306 35.3936 12.3145C45.2106 0.703225 61.5711 -1.93246 73.9933 6.23806L74.0019 6.24365L109.513 29.2533C109.515 29.2546 109.517 29.2559 109.519 29.2572C119.367 35.7593 131.605 35.7585 141.452 29.2549C141.453 29.2543 141.454 29.2538 141.454 29.2533L176.226 6.42588L176.227 6.42517C188.66 -1.75274 205.012 0.715587 214.818 12.492C219.068 17.6237 223.656 23.1413 228.135 28.5288C236.08 38.0837 243.684 47.2297 248.463 53.0895L248.468 53.0953L248.473 53.1012C248.488 53.1195 248.497 53.1371 248.5 53.1748C248.502 53.2223 248.492 53.3 248.447 53.3891C248.35 53.585 248.21 53.6355 248.13 53.6355H240.278C239.027 53.6355 237.767 53.0741 236.936 52.1088C230.392 44.2482 220.858 32.835 208.336 17.8698C201.316 9.44081 189.633 7.61048 180.572 13.455L180.562 13.4616L145.794 36.2868C145.793 36.2875 145.792 36.2883 145.791 36.2891C133.01 44.5751 117.39 44.5679 104.808 36.2921L104.799 36.2865L69.2766 13.2696Z" fill="#EED147" stroke="#262728" stroke-width="3"/>
</svg>
