<?xml version="1.0" encoding="utf-8"?>
<!-- Generator: Adobe Illustrator 25.4.0, SVG Export Plug-In . SVG Version: 6.00 Build 0)  -->
<svg version="1.1" id="Ebene_1" xmlns="http://www.w3.org/2000/svg" xmlns:xlink="http://www.w3.org/1999/xlink" x="0px" y="0px"
	 viewBox="0 0 120 156" enable-background="new 0 0 120 156" xml:space="preserve">
<circle fill="#F4F3F4" cx="60" cy="77.8" r="51.2"/>
<path fill="none" stroke="#949494" stroke-width="0.2" stroke-linecap="round" stroke-linejoin="round" d="M81.9,56
	c-7,0-12-0.4-12-0.9c0-0.5,6.2-1,13.9-1s13.9,0.4,13.9,1c0,0.5-5.7,1-13.5,1"/>
<path fill="none" stroke="#949494" stroke-width="0.2" stroke-linecap="round" stroke-linejoin="round" d="M75,34.3
	c2.9-0.6,5.9-0.8,8.8-0.6"/>
<path fill="none" stroke="#949494" stroke-width="0.2" stroke-linecap="round" stroke-linejoin="round" d="M83.8,33.7
	c3-0.2,5.9,0,8.8,0.6"/>
<path fill="#F4F3F4" d="M31.8,78.4c-1.4-3.3-0.9-6.7-1.3-10.3c-0.4-3.6-1.3-6.5-1.9-9.8c-0.4-2.2-0.2-4.8-0.5-7.1
	c-0.1-0.8-0.3-1.1-0.5-1.9c0-0.4-0.5-1.9-0.2-1.8c0.7,0.8,1.3,1.7,1.7,2.6c0.4,1.9,1.5,4.9,2,6.7c1.9,6.2,1.5,8,2.9,14.2
	c0.3,1.4,0.4,6.7,1.2,7.9"/>
<path fill="none" stroke="#949494" stroke-width="0.2" stroke-linecap="round" stroke-linejoin="round" d="M31.8,78.4
	c-1.4-3.3-0.9-6.7-1.3-10.3c-0.4-3.6-1.3-6.5-1.9-9.8c-0.4-2.2-0.2-4.8-0.5-7.1c-0.1-0.8-0.3-1.1-0.5-1.9c0-0.4-0.5-1.9-0.2-1.8
	c0.7,0.8,1.3,1.7,1.7,2.6c0.4,1.9,1.5,4.9,2,6.7c1.9,6.2,1.5,8,2.9,14.2c0.3,1.4,0.4,6.7,1.2,7.9"/>
<line fill="none" stroke="#949494" stroke-width="0.2" stroke-linecap="round" stroke-linejoin="round" x1="74.9" y1="34.3" x2="69.9" y2="54.9"/>
<line fill="none" stroke="#949494" stroke-width="0.2" stroke-linecap="round" stroke-linejoin="round" x1="92.6" y1="34.3" x2="97.6" y2="54.9"/>
<line fill="none" stroke="#949494" stroke-width="0.2" stroke-linecap="round" stroke-linejoin="round" x1="77.1" y1="34" x2="74.2" y2="54.1"/>
<line fill="none" stroke="#949494" stroke-width="0.2" stroke-linecap="round" stroke-linejoin="round" x1="80.1" y1="33.9" x2="79.5" y2="53.9"/>
<line fill="none" stroke="#949494" stroke-width="0.2" stroke-linecap="round" stroke-linejoin="round" x1="83.2" y1="33.7" x2="83.2" y2="53.9"/>
<line fill="none" stroke="#949494" stroke-width="0.2" stroke-linecap="round" stroke-linejoin="round" x1="85.9" y1="33.9" x2="87.5" y2="53.9"/>
<line fill="none" stroke="#949494" stroke-width="0.2" stroke-linecap="round" stroke-linejoin="round" x1="88.6" y1="34" x2="91.4" y2="54.1"/>
<line fill="none" stroke="#949494" stroke-width="0.2" stroke-linecap="round" stroke-linejoin="round" x1="90.8" y1="33.9" x2="95.5" y2="54.3"/>
<line fill="none" stroke="#949494" stroke-width="0.2" stroke-linecap="round" stroke-linejoin="round" x1="82" y1="54.2" x2="81.8" y2="66.7"/>
<line fill="none" stroke="#949494" stroke-width="0.2" stroke-linecap="round" stroke-linejoin="round" x1="84.2" y1="54" x2="84" y2="66.5"/>
<polyline fill="none" stroke="#949494" stroke-width="0.2" stroke-linecap="round" stroke-linejoin="round" points="25.4,34.7 
	25.6,95.9 10.1,107 "/>
<polyline fill="none" stroke="#949494" stroke-width="0.2" stroke-linecap="round" stroke-linejoin="round" points="20.5,40.7 
	20.3,93.5 8.1,102.7 "/>
<line fill="none" stroke="#949494" stroke-width="0.2" stroke-linecap="round" stroke-linejoin="round" x1="20.3" y1="93.6" x2="25.5" y2="95.8"/>
<polyline fill="none" stroke="#949494" stroke-width="0.2" stroke-linecap="round" stroke-linejoin="round" points="76,99.8 
	75.9,112 105.6,112 "/>
<line fill="none" stroke="#949494" stroke-width="0.2" stroke-linecap="round" stroke-linejoin="round" x1="111.6" y1="99.1" x2="90.8" y2="99.1"/>
<line fill="none" stroke="#949494" stroke-width="0.2" stroke-linecap="round" stroke-linejoin="round" x1="114.8" y1="81.7" x2="92.7" y2="82.5"/>
<path fill="none" stroke="#949494" stroke-width="0.2" stroke-linecap="round" stroke-linejoin="round" d="M91.3,66.8
	c3,0.1,6,0,9-0.5c1-0.2,1.9-0.6,2.9-0.8h0.3c0,0-0.5,4.1-0.5,4.5c0,2.6,0.3,5.2,0.9,7.7c0.5,1.4,0.9,2.8,1.1,4.3"/>
<path fill="none" stroke="#949494" stroke-width="0.2" stroke-linecap="round" stroke-linejoin="round" d="M103.3,69
	c2.5,0,8.7-0.3,11.2-0.3"/>
<rect x="46" y="46" fill="none" stroke="#949494" stroke-width="0.2" stroke-linecap="round" stroke-linejoin="round" width="9.2" height="12.4"/>
<rect x="47.8" y="48.4" fill="none" stroke="#949494" stroke-width="0.2" stroke-linecap="round" stroke-linejoin="round" width="5.5" height="7.3"/>
<rect x="36.7" y="36.4" fill="none" stroke="#949494" stroke-width="0.2" stroke-linecap="round" stroke-linejoin="round" width="7.6" height="10"/>
<rect x="48.5" y="38.5" fill="none" stroke="#949494" stroke-width="0.2" stroke-linecap="round" stroke-linejoin="round" width="5.6" height="5.4"/>
<polyline fill="none" stroke="#949494" stroke-width="0.2" stroke-linecap="round" stroke-linejoin="round" points="70.8,25 
	70.8,44.3 57,44.3 57,25 "/>
<rect x="59.7" y="28.6" fill="none" stroke="#949494" stroke-width="0.2" stroke-linecap="round" stroke-linejoin="round" width="8.5" height="12.2"/>
<path fill="#F4F3F4" d="M37.2,78c1.3-2.8,1.5-6,2.8-8.8c0.8-2.2,2.2-4,4.2-5.3c0.8-0.5,3.8-1.5,4-2.5c0.2-1-1.8-0.2-2.1-0.1
	c-2,0.6-3.7,1.7-5.1,3.3c-3.3,3.3-3.3,5.1-4.4,9.5c-0.5,1.4-0.8,2.9-1,4.4"/>
<path fill="none" stroke="#949494" stroke-width="0.2" stroke-linecap="round" stroke-linejoin="round" d="M37.2,78
	c1.3-2.8,1.5-6,2.8-8.8c0.8-2.2,2.2-4,4.2-5.3c0.8-0.5,3.8-1.5,4-2.5c0.2-1-1.8-0.2-2.1-0.1c-2,0.6-3.7,1.7-5.1,3.3
	c-3.3,3.3-3.3,5.1-4.4,9.5c-0.5,1.4-0.8,2.9-1,4.4"/>
<path fill="none" stroke="#949494" stroke-width="0.2" stroke-linecap="round" stroke-linejoin="round" d="M37.2,71.8
	c1.3-4.9,1.5-6.5,2.2-10.1c0.2-3,0.6-6,1.2-9c0.4-1.7,0.7-3.3,0.9-5c0.1-0.5,0.1-1,0-1.5c0,0-1.2,2.4-1.3,2.6
	c-1.1,1.4-1.9,2.9-2.6,4.5c-1.1,4-0.5,8.4-1.3,12.5c-0.8,4.1-2.7,8.1-2.7,12.3"/>
<path fill="#F4F3F4" d="M34.7,79.2c0.6-4.8,0.3-20,1.3-24.8c0.4-2,0.4-4.1,0-6.1c0-0.2-0.3-1.9-0.4-1.8c-0.8,2.2-1.3,4.4-1.6,6.7
	c-0.5,4.2-1.4,8.4-1.6,12.6c0,2.2,0,4.9-0.3,7"/>
<path fill="none" stroke="#949494" stroke-width="0.2" stroke-linecap="round" stroke-linejoin="round" d="M34.7,79.2
	c0.6-4.8,0.3-20,1.3-24.8c0.4-2,0.4-4.1,0-6.1c0-0.2-0.3-1.9-0.4-1.8c-0.8,2.2-1.3,4.4-1.6,6.7c-0.5,4.2-1.4,8.4-1.6,12.6
	c0,2.2,0,4.9-0.3,7"/>
<path fill="#F4F3F4" d="M34.4,79.5c-0.2-1.8,0-3.7-0.4-5.6c-1-4.7-3.5-9-7.2-12.1c-4.3-3.6-7.9-3.3-8-2.8c2.6,1.5,5,3.2,7.2,5.1
	c3.5,4.8,5.2,10.7,4.9,16.6"/>
<path fill="none" stroke="#949494" stroke-width="0.2" stroke-linecap="round" stroke-linejoin="round" d="M34.4,79.5
	c-0.2-1.8,0-3.7-0.4-5.6c-1-4.7-3.5-9-7.2-12.1c-4.3-3.6-7.9-3.3-8-2.8c2.6,1.5,5,3.2,7.2,5.1c3.5,4.8,5.2,10.7,4.9,16.6"/>
<path fill="#F4F3F4" d="M31,84.1c-1.5-2.4-2.3-5.1-2.5-7.9c-0.4-4.4-3-8.3-6.9-10.5c0.8-1.6,6,2.8,6.5,3.3
	c3.6,4.5,4.1,10.5,4.1,15.7"/>
<path fill="none" stroke="#949494" stroke-width="0.2" stroke-linecap="round" stroke-linejoin="round" d="M31,84.1
	c-1.5-2.4-2.3-5.1-2.5-7.9c-0.4-4.4-3-8.3-6.9-10.5c0.8-1.6,6,2.8,6.5,3.3c3.6,4.5,4.1,10.5,4.1,15.7"/>
<rect x="27" y="78.3" fill="#F4F3F4" width="11.6" height="19"/>
<rect x="27" y="78.3" fill="none" stroke="#949494" stroke-width="0.2" stroke-linecap="round" stroke-linejoin="round" width="11.6" height="19"/>
<path fill="#FFFFFF" d="M45.4,108c-0.5,1.2-0.8,2.5-1.1,3.8c-0.4,2,0,3.6-1,3.9c-1,0.3-0.9,0.6-0.7,1.9c0.2,1.4,0.7,2.1,1,3.9
	c0.2,1.2,0.2,2.4,0.2,3.6l-3.7,0.8c-2.2,0.8-4.6,1.4-6.9,1.7c-3.7,0.5-12.2,0.9-8.7-1.9s5.4-2.9,6.9-4.3c1.1-1.1,2.3-2.2,3.5-3.1
	c0.8-0.4,0.8-1.1,1.5-2c0.4-0.5,0.8-1.1,1-1.7c0,0-1.6,0.3-1.4-1c0.3-1.3,0.8-3.7,0.8-3.7c-2.6,0.3-5.1-0.5-7.2-2.1
	c-3.8-2.8-7.6-7.2-3.5-8.4s4.9,1.1,4.9-0.2s-2-15.2-0.8-17.3c1.1-2.1,1.5-3.1,9.1-2.6c1.5-2.2,2.5-5,4.4-5.7c-0.8-1-1.5-2.1-2.1-3.2
	l1.5-1.2l6.5,0.9l2.2-0.6c0.2-1.6,1.2-3,2.6-3.7c2.5-1.5,5.1-3.3,5.1-3.3s-0.2,1.4-2.1-3c-1.2-2.8-2.1-5.7-2.9-8.6
	c-0.3-0.6-1.1-4,4.2-4.9c5.3-0.9,6.3,4.8,6.6,5.4c0.6,1.1,0.9,2.3,1.1,3.5c0,1.1-0.7,1.6,0.2,3c0.6,1.2,1.8,2,3.2,2.1
	c1.5,0,8.6-1.4,11.2,7c3.3,0,13.9-0.8,15.1,3.1s0.8,17.5-0.8,24.3c-1.7,6.7-1.6,8.7-5.5,11.2c-0.5,0.3-0.3,0.9,0,3s0.9,9.2,0.9,9.2
	l-1.9,0.3l-3.3-11.4l-13.4,2.9l-4.5,0.7l-0.8,15l-2.2,0.2l-1.3-15l-4.9-0.3l-8.1-1.2L45.4,108z"/>
<path fill="none" stroke="#0B0C0C" stroke-width="0.49" stroke-linecap="round" stroke-linejoin="round" d="M65,51.5
	c-0.7-1.7-1.1-4.3-2.8-5.2c-3.1-1.5-10.5,1.1-7.7,5.4"/>
<path fill="none" stroke="#0B0C0C" stroke-width="0.49" stroke-linecap="round" stroke-linejoin="round" d="M64.3,52.6
	c0.2-1.7,1.4-0.9,1.6,0.4c0.3,0.8,0.2,1.7-0.1,2.5c-0.2,0.9-0.3,1.8-0.3,2.8c-0.2,1.7-3.1,4.9-5,4.5c-3-0.6-5.4-7.5-5.9-10.1
	c-0.4-1-0.2-2.2,0.4-3c0.7-0.6,1.6-0.9,2.5-0.9c0.3,0,2.1-1.1,2.9-0.6c1.9,1.1,1.8,3.5,3.2,4.8C65,54.2,64.3,52.6,64.3,52.6z"/>
<path fill="none" stroke="#0B0C0C" stroke-width="0.49" stroke-linecap="round" stroke-linejoin="round" d="M65.8,56.3
	c0.2,1.1,0.7,2.1,1.5,2.9c2.1,1.3,6.2,0.5,9.3,1.7c4.5,1.7,6.7,17,6,18.5"/>
<path fill="none" stroke="#0B0C0C" stroke-width="0.49" stroke-linecap="round" stroke-linejoin="round" d="M73,63.2
	c0.4,2.9-0.2,7.2,1.2,9.9"/>
<path fill="none" stroke="#0B0C0C" stroke-width="0.49" stroke-linecap="round" stroke-linejoin="round" d="M76,73.1
	c-3,0.9-6.3,0.9-9.3,0c0.1,0.7,0.2,1.5,0.1,2.2c-0.2,1.7-1,3.1-0.8,3.4c0.6,0.8,5.5,1.7,7.2,2"/>
<path fill="none" stroke="#0B0C0C" stroke-width="0.49" stroke-linecap="round" stroke-linejoin="round" d="M66.5,73.7
	c0,0.2-1.3-2.6-2.6-3.3c-1.3-0.7-4.7-2.4-4.3-1.1c0.5,1.8,3.4,1.9,3.1,2.6c-0.9,0.2-1.9,0.4-2.9,0.4c-2.8,0.7-1.6,1-2.8,2.2
	c-0.6,0.7,1.1,1.5,1.6,1.6c2.3,0.8,4.7,1.4,7.1,1.6"/>
<path fill="none" stroke="#0B0C0C" stroke-width="0.49" stroke-linecap="round" stroke-linejoin="round" d="M80.6,66.7
	c4.1,0,10.2-0.5,13.8,1.6c4.5,2.7-3.6,9.2-6,10.2c-5,2.2-13.5,0.4-17.6,3.7c-4.7,3.7-5,11.2-7.6,16.2c-1.8,3.6-7.5,3-11,2.7
	c-1.2-0.1-2.3-0.2-3.5-0.2h-1.3"/>
<path fill="none" stroke="#0B0C0C" stroke-width="0.49" stroke-linecap="round" stroke-linejoin="round" d="M65.5,91.7
	c-4.3,0.1-8.5,0.6-12.8,1.3c-1.6,0-3.1,0.2-4.6,0.6c-0.2,0.2-0.6,4.5-0.7,5.1c-0.9,4.5-1.9,8.8-3.2,13.1c-0.2,0.9-0.5,3.5-1.2,4.2
	c-2-0.3-3.9-0.8-5.8-1.6c-0.2,0-1.3-0.2-1.4-0.5c0.2-1.3,0.4-2.6,0.8-3.8"/>
<path fill="none" stroke="#0B0C0C" stroke-width="0.49" stroke-linecap="round" stroke-linejoin="round" d="M68,84.5
	c-2.2-3.8-17-2.6-18.2-2"/>
<path fill="none" stroke="#0B0C0C" stroke-width="0.49" stroke-linecap="round" stroke-linejoin="round" d="M49.7,79.7
	c0.6,5.7-4.3,10.1-7.3,14.3c-1.1,1.5-2,3.2-2.7,4.9c-0.3,0.8-0.7,1.5-1.1,2.2c-0.1,0.1-0.1,0.2-0.2,0.3c0-0.6,0-1.2,0.1-1.8
	c0-1.1-0.4-2.1-1.2-2.8c-1.1-0.9-2.6-1.2-3.9-0.7c-0.4,0.1-0.8,0.3-1.1,0.6c0,0-0.2,0.3-0.3,0.3c0.2-0.5,0.4-1,0.6-1.5
	c0.6-1.5,1.1-3,1.7-4.5c1.5-4.4,3.3-8.6,5.5-12.6c0.8-1.6,1.8-3.1,3.1-4.3c1.6-0.8,3.5-0.7,5,0.4c3.3,1.7,6.7,5.6,10.1,7.2"/>
<path fill="none" stroke="#0B0C0C" stroke-width="0.49" stroke-linecap="round" stroke-linejoin="round" d="M38.5,99.4
	c-0.2,0.9-1.1,2-1,2.9c0.2,1.8,2.2,5.9-0.2,7.1c-3.8,1.9-14.1-4-12.7-8.7c0.5-1.8,3.3-1.9,4.7-1.4c0.9,0.4,1.8,1.1,2.4,1.8
	c1.1,1.4,2.3,2.8,3.6,4c1.3,1,3.2,1.2,2.9,3.2"/>
<path fill="none" stroke="#0B0C0C" stroke-width="0.49" stroke-linecap="round" stroke-linejoin="round" d="M37.5,102.6
	c-0.7-1.3-1.6-2.6-2.6-3.7c-2.6-3.2-2.4,0.8-5.6,0.4"/>
<path fill="none" stroke="#0B0C0C" stroke-width="0.49" stroke-linecap="round" stroke-linejoin="round" d="M42.4,116
	c0.3,1.2,0.3,2.4,0,3.6c-0.7,1-3.4,0.9-4.4,0.4c-0.4-0.2-3-1-3-1.5c0-1.3,1.5-2.6,2-3.7"/>
<path fill="none" stroke="#0B0C0C" stroke-width="0.49" stroke-linecap="round" stroke-linejoin="round" d="M42.7,118.8
	c0.7,0.2,1.3,5.6,1,5.9c-1.2,0.4-2.5,0.7-3.8,0.9c-3.1,1.1-6.4,1.8-9.7,2.2"/>
<path fill="none" stroke="#0B0C0C" stroke-width="0.49" stroke-linecap="round" stroke-linejoin="round" d="M34.9,118.1
	c-1.6,0.8-2.7,2.6-4.2,3.6c-0.9,0.6-2.4,1.2-3.3,1.7c-3.6,1.9-6.5,5.1,2.7,4.5"/>
<path fill="none" stroke="#0B0C0C" stroke-width="0.49" stroke-linecap="round" stroke-linejoin="round" d="M43.9,125.6
	c-1.5,0.6-3.1,0.9-4.7,1"/>
<path fill="none" stroke="#0B0C0C" stroke-width="0.49" stroke-linecap="round" stroke-linejoin="round" d="M95.7,69.3
	c1.1,5.4,1.3,11,0.7,16.4c-1.1,10.4-3.5,16.7-4.6,18.1c-1.7,2.1-9,3.3-11.5,3.8c-6.5,1.7-13.2,2.5-19.9,2.4
	c-3.6-0.2-13.7-1.7-15.1-1.7"/>
<path fill="none" stroke="#0B0C0C" stroke-width="0.49" stroke-linecap="round" stroke-linejoin="round" d="M39.2,79.1
	c-1.5,0.2-6.1-0.7-8,0.9c-2.5,2.2-0.7,13.7-0.2,18.7"/>
<polyline fill="none" stroke="#0B0C0C" stroke-width="0.49" stroke-linecap="round" stroke-linejoin="round" points="62.2,77.5 
	56.5,79.4 50,69.9 57.9,67.1 60.6,71.8 "/>
<path fill="none" stroke="#0B0C0C" stroke-width="0.49" stroke-linecap="round" stroke-linejoin="round" d="M50,70.2l-2,1.5
	c0,0,2.9,4.3,3.4,5"/>
<polyline fill="none" stroke="#0B0C0C" stroke-width="0.49" stroke-linecap="round" stroke-linejoin="round" points="56.4,79.6 
	56.3,79.6 56.2,79.6 56.1,79.8 56,79.8 "/>
<polyline fill="none" stroke="#0B0C0C" stroke-width="0.49" stroke-linecap="round" stroke-linejoin="round" points="49.6,70 
	43.2,69.1 41.6,70.1 47.6,71.7 "/>
<line fill="none" stroke="#0B0C0C" stroke-width="0.49" stroke-linecap="round" stroke-linejoin="round" x1="41.1" y1="70.1" x2="43.6" y2="73.4"/>
<path fill="none" stroke="#0B0C0C" stroke-width="0.49" stroke-linecap="round" stroke-linejoin="round" d="M59.2,62.3
	c-1.2,1.2-2.5,2.2-4.1,2.9c-1.5,1-2.8,2.4-3.6,4"/>
<path fill="none" stroke="#0B0C0C" stroke-width="0.49" stroke-linecap="round" stroke-linejoin="round" d="M67.7,59.4
	c-0.4,1.3-1.1,2.6-2,3.6c-0.8,1.4-1.9,2.7-3.2,3.8c-0.9,0.6-2.7-2.5-3.4-4.5"/>
<polyline fill="none" stroke="#0B0C0C" stroke-width="0.49" stroke-linecap="round" stroke-linejoin="round" points="63,110.4 
	64.3,125.2 66.6,125.3 67.4,110.2 "/>
<polyline fill="none" stroke="#0B0C0C" stroke-width="0.49" stroke-linecap="round" stroke-linejoin="round" points="85.1,106.9 
	88.3,118 90.4,117.7 89,105.6 "/>
</svg>
