<?xml version="1.0" encoding="utf-8"?>
<!-- Generator: Adobe Illustrator 25.4.0, SVG Export Plug-In . SVG Version: 6.00 Build 0)  -->
<svg version="1.1" id="Ebene_1" xmlns="http://www.w3.org/2000/svg" xmlns:xlink="http://www.w3.org/1999/xlink" x="0px" y="0px"
	 viewBox="0 0 120 156" enable-background="new 0 0 120 156" xml:space="preserve">
<circle fill="#F4F3F4" cx="60" cy="77.8" r="51.2"/>
<polyline fill="none" stroke="#949494" stroke-width="0.2" stroke-linecap="round" stroke-linejoin="round" points="54,71.7 
	53.9,53.5 10,51.3 "/>
<line fill="none" stroke="#949494" stroke-width="0.2" stroke-linecap="round" stroke-linejoin="round" x1="33.1" y1="25.3" x2="33.1" y2="35"/>
<rect x="31.9" y="35" fill="none" stroke="#949494" stroke-width="0.2" stroke-linecap="round" stroke-linejoin="round" width="2.5" height="2.9"/>
<rect x="67.9" y="37.9" fill="none" stroke="#949494" stroke-width="0.2" stroke-linecap="round" stroke-linejoin="round" width="2.2" height="2.8"/>
<line fill="none" stroke="#949494" stroke-width="0.2" stroke-linecap="round" stroke-linejoin="round" x1="68.9" y1="22.9" x2="69.1" y2="37.8"/>
<line fill="none" stroke="#949494" stroke-width="0.2" stroke-linecap="round" stroke-linejoin="round" x1="52.5" y1="22.7" x2="52.5" y2="36.6"/>
<rect x="51.3" y="36.7" fill="none" stroke="#949494" stroke-width="0.2" stroke-linecap="round" stroke-linejoin="round" width="2.4" height="2.6"/>
<path fill="none" stroke="#949494" stroke-width="0.2" stroke-linecap="round" stroke-linejoin="round" d="M66.1,48.9
	c0-0.3,1.4-0.5,3.1-0.5c1.7,0,3.1,0.3,3.1,0.5s-1.4,0.5-3.1,0.5S66.1,49.3,66.1,48.9z"/>
<path fill="none" stroke="#949494" stroke-width="0.2" stroke-linecap="round" stroke-linejoin="round" d="M49.5,48.4
	c0-0.3,1.4-0.5,3.1-0.5c1.7,0,3.1,0.2,3.1,0.5c0,0.3-1.4,0.5-3.1,0.5C50.8,48.9,49.5,48.7,49.5,48.4z"/>
<path fill="none" stroke="#949494" stroke-width="0.2" stroke-linecap="round" stroke-linejoin="round" d="M30.2,47
	c0-0.3,1.4-0.5,3.1-0.5c1.7,0,3.1,0.2,3.1,0.5s-1.4,0.5-3.1,0.5C31.6,47.6,30.2,47.4,30.2,47z"/>
<path fill="none" stroke="#949494" stroke-width="0.2" stroke-linecap="round" stroke-linejoin="round" d="M31.9,37.9
	c-1.3,1.8-5.1,7.4-1.5,9.4"/>
<path fill="none" stroke="#949494" stroke-width="0.2" stroke-linecap="round" stroke-linejoin="round" d="M51.4,39.3
	c-1.3,1.8-5.1,7.4-1.5,9.4"/>
<path fill="none" stroke="#949494" stroke-width="0.2" stroke-linecap="round" stroke-linejoin="round" d="M67.9,40.7
	c-1.3,1.8-5.3,6.3-1.7,8.3"/>
<path fill="none" stroke="#949494" stroke-width="0.2" stroke-linecap="round" stroke-linejoin="round" d="M34.5,37.9
	c0,0,5.3,6.9,2,9.1"/>
<path fill="none" stroke="#949494" stroke-width="0.2" stroke-linecap="round" stroke-linejoin="round" d="M53.7,39.3
	c0,0,5.1,6.9,1.9,9.1"/>
<path fill="none" stroke="#949494" stroke-width="0.2" stroke-linecap="round" stroke-linejoin="round" d="M70.2,40.7
	c0,0,5.3,6,2,8.2"/>
<path fill="none" stroke="#949494" stroke-width="0.2" stroke-linecap="round" stroke-linejoin="round" d="M41,57.8
	c-2.3,2.3-1.4,4.1-1.1,6.9c0.1,1.1-2.4-0.2-2.4-0.7c0.2-1.9,0-5.6,1.9-6.9c0.4-0.3,0.8,0,1.3,0s0.6-0.4,1.1-0.3c3,0.4,3,4.6,3.4,6.7
	c0.2,1.1-2.3,2-2.3,1.3c0.3-1.2,0.5-2.5,0.6-3.7c-0.1-0.8-0.2-2.3-1-2.7c-0.8-0.4-1.6-0.1-2.1-1.1"/>
<path fill="none" stroke="#949494" stroke-width="0.2" stroke-linecap="round" stroke-linejoin="round" d="M39.6,61.5
	c0.3,2.3,2.5,3.4,3.8,1.1"/>
<path fill="none" stroke="#949494" stroke-width="0.2" stroke-linecap="round" stroke-linejoin="round" d="M42.7,71.8
	c0.3-2.1,0.8-5.3,1-6.9"/>
<path fill="none" stroke="#949494" stroke-width="0.2" stroke-linecap="round" stroke-linejoin="round" d="M39.3,65.1
	c0,0.3,1.2,4.2,2.1,6.7"/>
<path fill="none" stroke="#949494" stroke-width="0.2" stroke-linecap="round" stroke-linejoin="round" d="M46,71.9
	c0.3-2,0.4-4.1,0.3-6.1"/>
<path fill="none" stroke="#949494" stroke-width="0.2" stroke-linecap="round" stroke-linejoin="round" d="M43.7,64.8
	c3.4,0.3,3.3,1.5,3.5,4.1c0,1,0.2,1.9,0.2,3"/>
<path fill="none" stroke="#949494" stroke-width="0.2" stroke-linecap="round" stroke-linejoin="round" d="M38.6,64.9
	c-0.9,0.1-1.8,0.5-2.4,1.2c-0.6,0.7-0.4,2.3-0.5,2.9c-0.1,1-0.2,1.9-0.2,2.9"/>
<path fill="none" stroke="#949494" stroke-width="0.2" stroke-linecap="round" stroke-linejoin="round" d="M37.1,67.4
	c0,1.5,0.2,3,0.5,4.4"/>
<path fill="none" stroke="#949494" stroke-width="0.2" stroke-linecap="round" stroke-linejoin="round" d="M39.8,65
	c0,0.4,1.2,2.7,1.9,2.3s1.1-1.8,1.5-2.5"/>
<polyline fill="none" stroke="#949494" stroke-width="0.2" stroke-linecap="round" stroke-linejoin="round" points="114.8,73.9 
	47.4,74.2 2.2,75.6 "/>
<line fill="none" stroke="#949494" stroke-width="0.2" stroke-linecap="round" stroke-linejoin="round" x1="4.6" y1="72.2" x2="35.5" y2="72"/>
<line fill="none" stroke="#949494" stroke-width="0.2" stroke-linecap="round" stroke-linejoin="round" x1="112.3" y1="96.5" x2="11.7" y2="108.2"/>
<line fill="none" stroke="#949494" stroke-width="0.2" stroke-linecap="round" stroke-linejoin="round" x1="115" y1="93.4" x2="8.2" y2="103.4"/>
<polyline fill="none" stroke="#949494" stroke-width="0.2" stroke-linecap="round" stroke-linejoin="round" points="83.4,70 
	82.2,34.2 35.6,29.6 "/>
<polyline fill="none" stroke="#949494" stroke-width="0.2" stroke-linecap="round" stroke-linejoin="round" points="53.3,52.2 
	61.4,53.3 61.9,61.7 "/>
<line fill="none" stroke="#949494" stroke-width="0.2" stroke-linecap="round" stroke-linejoin="round" x1="61.4" y1="53.3" x2="81.7" y2="48.1"/>
<path fill="none" stroke="#949494" stroke-width="0.2" stroke-linecap="round" stroke-linejoin="round" d="M66.7,64.5
	c0.4,0.3,0.7,0.7,1.1,1c0,0,0,0.1,0.1,0c0.2-0.5,0.4-1,0.6-1.5c0-0.3-0.3-0.4-0.3-0.7c0.2-1,1.6-3,0-3.8c-2.6-1.3-3.6,3.2-2.4,4.4
	C66,64.3,66.4,64.3,66.7,64.5z"/>
<path fill="none" stroke="#949494" stroke-width="0.2" stroke-linecap="round" stroke-linejoin="round" d="M65.9,64.2
	c0.1,2.6,0.8,5.1,1.9,7.3"/>
<path fill="none" stroke="#949494" stroke-width="0.2" stroke-linecap="round" stroke-linejoin="round" d="M68.5,64.2
	c1.1,1.5-0.4,5.4-0.4,7.2"/>
<path fill="none" stroke="#949494" stroke-width="0.2" stroke-linecap="round" stroke-linejoin="round" d="M68.6,64.2
	c1.1,0.4,2.1,1,3.1,1.7c0.3,0.3,0,1.2,0,1.6c0,1.3,0.3,2.5,0.3,3.8"/>
<path fill="none" stroke="#949494" stroke-width="0.2" stroke-linecap="round" stroke-linejoin="round" d="M65.8,64.2
	c-0.8,0.8-2.1,0.7-3,1.3s-1.2,4.8-1.2,6"/>
<path fill="none" stroke="#949494" stroke-width="0.2" stroke-linecap="round" stroke-linejoin="round" d="M63,65.7
	c0.8,1.8,1.2,3.8,1.1,5.8"/>
<path fill="none" stroke="#949494" stroke-width="0.2" stroke-linecap="round" stroke-linejoin="round" d="M71.7,66.4
	c0-0.2-0.3,1.4-0.4,1.7c-0.3,1.2-0.5,2.3-0.6,3.5"/>
<path fill="none" stroke="#949494" stroke-width="0.2" stroke-linecap="round" stroke-linejoin="round" d="M67.5,64
	c-0.4,0.3-1,0.4-1.5,0.3"/>
<line fill="none" stroke="#949494" stroke-width="0.2" stroke-linecap="round" stroke-linejoin="round" x1="61.8" y1="68.7" x2="54" y2="68.5"/>
<line fill="none" stroke="#949494" stroke-width="0.2" stroke-linecap="round" stroke-linejoin="round" x1="62" y1="67.4" x2="54.2" y2="67.1"/>
<path fill="none" stroke="#949494" stroke-width="0.2" stroke-linecap="round" stroke-linejoin="round" d="M61.4,67.3
	c-0.1-1.8-0.1-3.7,0.2-5.5c0.5-0.1,1.1-0.1,1.6,0c0.1,1.1,0.1,2.3,0,3.4"/>
<path fill="none" stroke="#949494" stroke-width="0.2" stroke-linecap="round" stroke-linejoin="round" d="M75.8,66
	c-1.6,0-1.9,0.1-3.9,0.2"/>
<path fill="none" stroke="#949494" stroke-width="0.2" stroke-linecap="round" stroke-linejoin="round" d="M53.2,49c0,1.5,0,3,0,4.4
	"/>
<path fill="none" stroke="#949494" stroke-width="0.2" stroke-linecap="round" stroke-linejoin="round" d="M81.8,34.2
	c-2.8,0.6-11.5,3.7-11.5,3.7"/>
<line fill="none" stroke="#949494" stroke-width="0.2" stroke-linecap="round" stroke-linejoin="round" x1="67.9" y1="38.8" x2="56.1" y2="43.3"/>
<line fill="none" stroke="#949494" stroke-width="0.2" stroke-linecap="round" stroke-linejoin="round" x1="35.5" y1="69.8" x2="6.5" y2="69.6"/>
<polyline fill="none" stroke="#949494" stroke-width="0.2" stroke-linecap="round" stroke-linejoin="round" points="12.3,54.4 
	51.7,55.7 51.6,69.8 47.4,69.7 "/>
<line fill="none" stroke="#949494" stroke-width="0.2" stroke-linecap="round" stroke-linejoin="round" x1="41.7" y1="55.4" x2="41.7" y2="56.5"/>
<line fill="none" stroke="#949494" stroke-width="0.2" stroke-linecap="round" stroke-linejoin="round" x1="29.5" y1="55" x2="29.6" y2="69.6"/>
<line fill="none" stroke="#949494" stroke-width="0.2" stroke-linecap="round" stroke-linejoin="round" x1="17.5" y1="54.7" x2="17.6" y2="69.6"/>
<line fill="none" stroke="#949494" stroke-width="0.2" stroke-linecap="round" stroke-linejoin="round" x1="35.3" y1="72" x2="116.8" y2="71.5"/>
<line fill="none" stroke="#949494" stroke-width="0.2" stroke-linecap="round" stroke-linejoin="round" x1="88.8" y1="46.3" x2="101.1" y2="42.4"/>
<polyline fill="#F4F3F4" points="41.4,71.7 42.6,68.3 52.8,68 51.4,71.6 "/>
<polyline fill="none" stroke="#949494" stroke-width="0.2" stroke-linecap="round" stroke-linejoin="round" points="41.4,71.7 
	42.6,68.3 52.8,68 51.4,71.6 "/>
<path fill="#F4F3F4" d="M22.2,71.3c1.1-2.3,1.9-3.9,4.3-4.8c0.8-0.2,1.6-0.5,2.3-0.9c0.2-0.2,0.3-0.4,0.5-0.6
	c0.2-0.2,0.3-0.3,0.2-0.3c-2.9,0-6.6,0.3-7.1,4c0,0.6-0.4,1.4,0,2"/>
<path fill="none" stroke="#949494" stroke-width="0.2" stroke-linecap="round" stroke-linejoin="round" d="M22.2,71.3
	c1.1-2.3,1.9-3.9,4.3-4.8c0.8-0.2,1.6-0.5,2.3-0.9c0.2-0.2,0.3-0.4,0.5-0.6c0.2-0.2,0.3-0.3,0.2-0.3c-2.9,0-6.6,0.3-7.1,4
	c0,0.6-0.4,1.4,0,2"/>
<path fill="#F4F3F4" d="M16.5,71c-0.9-1.9-0.3-3.4-3.1-3.8c-0.7-0.1-1.5,0-2.1,0.5L11,67.8c-0.7-0.5,0.8-2.6,2.7-2.3
	c2.5,0.4,3,2.7,3.7,4.7"/>
<path fill="none" stroke="#949494" stroke-width="0.2" stroke-linecap="round" stroke-linejoin="round" d="M16.5,71
	c-0.9-1.9-0.3-3.4-3.1-3.8c-0.7-0.1-1.5,0-2.1,0.5L11,67.8c-0.7-0.5,0.8-2.6,2.7-2.3c2.5,0.4,3,2.7,3.7,4.7"/>
<path fill="#F4F3F4" d="M19.7,70c-2.3-1.6,1-4.4,2.3-5.8c0.4-0.8,0.6-1.7,0.7-2.6c0.2,0.8,0.5,1.6,0.8,2.3c0.8,1.9,0,4.1-1.8,5.1
	C21.3,69.4,20.2,70.4,19.7,70z"/>
<path fill="none" stroke="#949494" stroke-width="0.2" stroke-linecap="round" stroke-linejoin="round" d="M19.7,70
	c-2.3-1.6,1-4.4,2.3-5.8c0.4-0.8,0.6-1.7,0.7-2.6c0.2,0.8,0.5,1.6,0.8,2.3c0.8,1.9,0,4.1-1.8,5.1C21.3,69.4,20.2,70.4,19.7,70z"/>
<path fill="#F4F3F4" d="M17.4,71.1c-2.5-1.3-0.5-4.7-0.4-6.7c0.1-0.9,0.1-1.8,0-2.7c0-0.4-0.2-0.8-0.2-1.1v-0.3
	c0.3,0,1.8,2.4,1.9,2.7c1.2,2.9,1,6.2-0.6,8.9"/>
<path fill="none" stroke="#949494" stroke-width="0.2" stroke-linecap="round" stroke-linejoin="round" d="M17.4,71.1
	c-2.5-1.3-0.5-4.7-0.4-6.7c0.1-0.9,0.1-1.8,0-2.7c0-0.4-0.2-0.8-0.2-1.1v-0.3c0.3,0,1.8,2.4,1.9,2.7c1.2,2.9,1,6.2-0.6,8.9"/>
<path fill="#F4F3F4" d="M18,70.1c-2.3-0.6-2-3.9-2.8-5.5c-0.8-1.6-3.4-2.3-3.2-2.4c4.4-2,5.3,3.2,5.5,3.9c0.5,1.3,0.9,2.6,1.3,3.8"
	/>
<path fill="none" stroke="#949494" stroke-width="0.2" stroke-linecap="round" stroke-linejoin="round" d="M18,70.1
	c-2.3-0.6-2-3.9-2.8-5.5c-0.8-1.6-3.4-2.3-3.2-2.4c4.4-2,5.3,3.2,5.5,3.9c0.5,1.3,0.9,2.6,1.3,3.8"/>
<path fill="#F4F3F4" d="M15.4,70c5.6-2.4,1.1-7.1,4.7-9.3c0,0,0.9-0.4,0.9-0.4c0,0.1-0.3,0.6-0.2,0.8c0.2,0.8,0.5,1.6,0.7,2.4
	c0.8,2.5,0,5.2-2,6.9"/>
<path fill="none" stroke="#949494" stroke-width="0.2" stroke-linecap="round" stroke-linejoin="round" d="M15.4,70
	c5.6-2.4,1.1-7.1,4.7-9.3c0,0,0.9-0.4,0.9-0.4c0,0.1-0.3,0.6-0.2,0.8c0.2,0.8,0.5,1.6,0.7,2.4c0.8,2.5,0,5.2-2,6.9"/>
<path fill="#F4F3F4" d="M18.2,71.9c-2.3-2.9-0.8-5.4,1.3-7.9c0.3-0.4,0.3-1.3,0.5-1.5c0.3-0.2,0.2,0.3,0.2,0.3
	c0.3,0.6,0.5,1.2,0.5,1.9c0.2,2-0.3,3.9-1.2,5.6C19.1,70.8,18.6,71.4,18.2,71.9z"/>
<path fill="none" stroke="#949494" stroke-width="0.2" stroke-linecap="round" stroke-linejoin="round" d="M18.2,71.9
	c-2.3-2.9-0.8-5.4,1.3-7.9c0.3-0.4,0.3-1.3,0.5-1.5c0.3-0.2,0.2,0.3,0.2,0.3c0.3,0.6,0.5,1.2,0.5,1.9c0.2,2-0.3,3.9-1.2,5.6
	C19.1,70.8,18.6,71.4,18.2,71.9z"/>
<path fill="#F4F3F4" d="M15.1,68.3c1.4,0.4,2.9,0.5,4.3,0.6c1.5,0,3-0.2,4.4-0.6v5.2c-1.5,0.5-3,0.7-4.6,0.6c-3.7,0-4.1-0.6-4.1-0.6
	L15.1,68.3z"/>
<path fill="none" stroke="#949494" stroke-width="0.2" stroke-linecap="round" stroke-linejoin="round" d="M15.1,68.3
	c1.4,0.4,2.9,0.5,4.3,0.6c1.5,0,3-0.2,4.4-0.6v5.2c-1.5,0.5-3,0.7-4.6,0.6c-3.7,0-4.1-0.6-4.1-0.6L15.1,68.3z"/>
<path fill="#FFFFFF" d="M88.3,123l-9.8-13.2c-1-3.1-1.6-6.4-1.8-9.7c0-3.5,0.3-3.2-0.6-3.4c-0.9-0.2-1.9-1.2-1.9-1.7
	s-1.3-0.3-1.3-0.3l-0.9,0.9l-0.5-2l1.2-0.5h1.4l0.7-1.6l1.2-1.3L75.5,89c0,0,0.8-11.9,0.7-18.3c-0.1-6.4-1-15.5,0.8-17
	c1.2-1,2.5-1.8,4-2.3C82.8,50.5,83,50,83,50s-1.3,0.1-1.5-2c-0.3-1.9-0.4-3.9-0.3-5.8c0.3-1.3-0.2-3.6,1.5-5.3
	c1.7-1.6,6.1-2.9,8,0.3c1.6,2.5,1.6,5.7-0.2,8.1c-1.5,2-2.3,2.1-0.6,2.6c1.7,0.5,0.5,0.5,2.1,1.8c1.9,1.3,4,2.4,6.2,3.3
	c2.1,1,2.7,1.5,3.4,4.9c1,5.2,1.1,10.5,0.3,15.7c-0.6,2.3-1.3,4.6-2.1,6.9c0,0,0,1,0.3,4.2c0.3,3.2,1.6,8.6,0.7,8.9
	c-1.1,0.3-2.3,0.5-3.4,0.6c-0.4,1-0.7,2-0.8,3.1c-0.9,4.1-1.5,8.2-1.8,12.4c0,4.9,0,9.1,0,9.1L88.3,123z"/>
<path fill="none" stroke="#0B0C0C" stroke-width="0.5" stroke-linecap="round" stroke-linejoin="round" d="M88.2,35.6
	c-2.3-0.9-4.8,0-6.2,2c-0.3,0.5-0.5,1-0.6,1.5c0,1.3,0,2.5,0.2,3.8"/>
<path fill="none" stroke="#0B0C0C" stroke-width="0.5" stroke-linecap="round" stroke-linejoin="round" d="M81.7,42.9
	c0.5-2.3,1.9-1.5,2.3-0.9c0.7,1.2,0.4,3,1.6,3.9c0.6,0.5,1.3,0.2,2,0.5c0.6,0.3,1.1,0.8,1.6,0.5c2.3-1.5,4.8-10.3-0.7-11.3"/>
<path fill="none" stroke="#0B0C0C" stroke-width="0.5" stroke-linecap="round" stroke-linejoin="round" d="M100,64.5
	c-0.8,2.9-1.1,5.9-0.9,8.9c0.2,4.4,1.9,18.7,1.9,19.9c-0.1,1.3-19.5,2.3-19.5,2.3"/>
<path fill="none" stroke="#0B0C0C" stroke-width="0.5" stroke-linecap="round" stroke-linejoin="round" d="M81.3,40.2
	c0-0.3,0,0.5,0,0.7c0,0.3,0,1-0.2,1.5c-0.2,1.7-0.1,3.5,0.2,5.2c0,0.8,0.3,1.6,0.9,2.2c0,0,0.2,0.3,0.2,0"/>
<path fill="#FFFFFF" d="M71.7,93.8h10.4c0.6,0,1.1,0.5,1.1,1.1c0,0.6-0.5,1.1-1.1,1.1H71.7c-0.6,0-1.1-0.5-1.1-1.1
	C70.5,94.3,71,93.8,71.7,93.8L71.7,93.8z"/>
<path fill="none" stroke="#0B0C0C" stroke-width="0.5" stroke-linecap="round" stroke-linejoin="round" d="M71.7,93.8h10.4
	c0.6,0,1.1,0.5,1.1,1.1c0,0.6-0.5,1.1-1.1,1.1H71.7c-0.6,0-1.1-0.5-1.1-1.1C70.5,94.3,71,93.8,71.7,93.8L71.7,93.8z"/>
<path fill="#FFFFFF" d="M75.7,90.2c0,0-1.8,2.3-1.5,2.7c0.2,0.8,0.4,1.6,0.5,2.5c0,0-0.4,1.7,1,1.4s3.6,0,3.8-0.8
	c0.3-1,0.4-2.1,0.4-3.2c0-1.1-0.3-2-0.3-2L75.7,90.2z"/>
<path fill="none" stroke="#0B0C0C" stroke-width="0.5" stroke-linecap="round" stroke-linejoin="round" d="M100,80.4
	c1.1-2.9,1.9-6,2.2-9.1c0.4-4.9,0.1-9.8-0.8-14.7c-0.3-2.7-2.3-3.1-7.5-5.5c-0.9-0.4-1.9-0.6-2.6-1.8c-0.7-1.2,0-1.4-2.7-1.4
	c-2.3-0.3-4.6,0.8-6,2.7c-0.8,1.2-5.2,1.3-6,3.7c-1.1,3.3-0.6,11.4-0.4,16.2c0.2,4.7-0.5,17.3-0.7,18.8s6.4,2,6.9,1
	c0.4-1,1.3-12.5,1.6-14.9c0.1-4.1-0.1-8.2-0.6-12.3"/>
<path fill="none" stroke="#0B0C0C" stroke-width="0.5" stroke-linecap="round" stroke-linejoin="round" d="M97.4,94.3
	c0,0-1.7,7.6-2.3,11.8c-0.6,4.2,0,8-0.3,12.7"/>
<path fill="none" stroke="#0B0C0C" stroke-width="0.5" stroke-linecap="round" stroke-linejoin="round" d="M79.9,91
	c0,1.9,0.8,5.4-1,5.6c-1.8,0.2-2.8,0.7-3.6,0.3c-1.2-0.5-0.8-1.9-0.8-3.6h-1c0.7-1.1,1.5-2.2,2.4-3.1"/>
<path fill="none" stroke="#0B0C0C" stroke-width="0.5" stroke-linecap="round" stroke-linejoin="round" d="M88.5,95.4
	c-0.9,5.7-1.3,8.1-1.9,10.3c-0.3,1.4-0.4,2.8-0.4,4.2"/>
<path fill="none" stroke="#0B0C0C" stroke-width="0.5" stroke-linecap="round" stroke-linejoin="round" d="M87.1,104.2
	c-0.2,1.3-0.2,2.7,0,4c0.3,1.9,0.7,3.9,1,5.6"/>
<path fill="none" stroke="#0B0C0C" stroke-width="0.5" stroke-linecap="round" stroke-linejoin="round" d="M76.6,97
	c0.3,4.8,0.5,10.5,2,12.7"/>
<path fill="#FFFFFF" d="M63.8,133.9l-0.2-20c0-2.5,2-4.6,4.6-4.6h19.6c2.5,0,4.6,2,4.6,4.6v14.5"/>
<path fill="none" stroke="#0B0C0C" stroke-width="0.5" stroke-linecap="round" stroke-linejoin="round" d="M63.8,133.9l-0.2-20
	c0-2.5,2-4.6,4.6-4.6h19.6c2.5,0,4.6,2,4.6,4.6v14.5"/>
<line fill="none" x1="71.5" y1="96.3" x2="71.5" y2="109"/>
<line fill="none" stroke="#0B0C0C" stroke-width="0.5" stroke-linecap="round" stroke-linejoin="round" x1="71.5" y1="96.3" x2="71.5" y2="109"/>
<line fill="none" x1="72.9" y1="96.3" x2="72.8" y2="109.1"/>
<line fill="none" stroke="#0B0C0C" stroke-width="0.5" stroke-linecap="round" stroke-linejoin="round" x1="72.9" y1="96.3" x2="72.8" y2="109.1"/>
<line fill="none" x1="81.5" y1="96.1" x2="81.5" y2="108.9"/>
<line fill="none" stroke="#0B0C0C" stroke-width="0.5" stroke-linecap="round" stroke-linejoin="round" x1="81.5" y1="96.1" x2="81.5" y2="108.9"/>
<line fill="none" x1="82.8" y1="96.1" x2="82.8" y2="108.8"/>
<line fill="none" stroke="#0B0C0C" stroke-width="0.5" stroke-linecap="round" stroke-linejoin="round" x1="82.8" y1="96.1" x2="82.8" y2="108.8"/>
</svg>
