<?xml version="1.0" encoding="utf-8"?>
<!-- Generator: Adobe Illustrator 25.4.0, SVG Export Plug-In . SVG Version: 6.00 Build 0)  -->
<svg version="1.1" id="Ebene_1" xmlns="http://www.w3.org/2000/svg" xmlns:xlink="http://www.w3.org/1999/xlink" x="0px" y="0px"
	 viewBox="0 0 120 156" enable-background="new 0 0 120 156" xml:space="preserve">
<circle fill="#F4F3F4" cx="60" cy="77.8" r="51.2"/>
<polyline fill="none" stroke="#949494" stroke-width="0.2" stroke-linecap="round" stroke-linejoin="round" points="55.7,20.6 
	96.6,57.5 96.8,94.3 64.8,127 "/>
<line fill="none" stroke="#949494" stroke-width="0.2" stroke-linecap="round" stroke-linejoin="round" x1="115.5" y1="62.9" x2="96.7" y2="62.9"/>
<line fill="none" stroke="#949494" stroke-width="0.2" stroke-linecap="round" stroke-linejoin="round" x1="115.5" y1="89" x2="96.8" y2="88.9"/>
<line fill="none" stroke="#949494" stroke-width="0.2" stroke-linecap="round" stroke-linejoin="round" x1="114.6" y1="86.4" x2="97" y2="86.4"/>
<line fill="none" stroke="#949494" stroke-width="0.2" stroke-linecap="round" stroke-linejoin="round" x1="103.3" y1="63" x2="103.2" y2="86.3"/>
<line fill="none" stroke="#949494" stroke-width="0.2" stroke-linecap="round" stroke-linejoin="round" x1="105.6" y1="63" x2="105.6" y2="86.2"/>
<line fill="none" stroke="#949494" stroke-width="0.2" stroke-linecap="round" stroke-linejoin="round" x1="96.6" y1="91.5" x2="55.3" y2="126.8"/>
<line fill="none" stroke="#949494" stroke-width="0.2" stroke-linecap="round" stroke-linejoin="round" x1="93.7" y1="55.2" x2="93.9" y2="93.7"/>
<line fill="none" stroke="#949494" stroke-width="0.2" stroke-linecap="round" stroke-linejoin="round" x1="89.2" y1="51" x2="89.2" y2="97.7"/>
<line fill="none" stroke="#949494" stroke-width="0.2" stroke-linecap="round" stroke-linejoin="round" x1="83.9" y1="46.5" x2="83.9" y2="87"/>
<line fill="none" stroke="#949494" stroke-width="0.2" stroke-linecap="round" stroke-linejoin="round" x1="78.5" y1="41.4" x2="78.5" y2="76.6"/>
<line fill="none" stroke="#949494" stroke-width="0.2" stroke-linecap="round" stroke-linejoin="round" x1="72.6" y1="35.8" x2="72.4" y2="74.5"/>
<line fill="none" stroke="#949494" stroke-width="0.2" stroke-linecap="round" stroke-linejoin="round" x1="31.7" y1="30.3" x2="31.6" y2="126.5"/>
<line fill="none" stroke="#949494" stroke-width="0.2" stroke-linecap="round" stroke-linejoin="round" x1="34.1" y1="30.8" x2="34" y2="127.4"/>
<rect x="27.4" y="67.9" fill="none" stroke="#949494" stroke-width="0.2" stroke-linecap="round" stroke-linejoin="round" width="2.5" height="19.2"/>
<line fill="none" stroke="#949494" stroke-width="0.2" stroke-linecap="round" stroke-linejoin="round" x1="49.2" y1="26.9" x2="49.1" y2="73.6"/>
<line fill="none" stroke="#949494" stroke-width="0.2" stroke-linecap="round" stroke-linejoin="round" x1="53.5" y1="25.4" x2="53.4" y2="69.7"/>
<line fill="none" stroke="#949494" stroke-width="0.2" stroke-linecap="round" stroke-linejoin="round" x1="62.3" y1="26.9" x2="62.3" y2="45.9"/>
<polyline fill="none" stroke="#949494" stroke-width="0.2" stroke-linecap="round" stroke-linejoin="round" points="65.3,29.3 
	65.2,36.3 65.1,46.5 "/>
<line fill="none" stroke="#949494" stroke-width="0.2" stroke-linecap="round" stroke-linejoin="round" x1="82.2" y1="53.8" x2="79.2" y2="52.3"/>
<line fill="none" stroke="#949494" stroke-width="0.2" stroke-linecap="round" stroke-linejoin="round" x1="95" y1="64" x2="94.3" y2="63.5"/>
<line fill="none" stroke="#949494" stroke-width="0.2" stroke-linecap="round" stroke-linejoin="round" x1="91.2" y1="61.8" x2="89.7" y2="61"/>
<line fill="none" stroke="#949494" stroke-width="0.2" stroke-linecap="round" stroke-linejoin="round" x1="77.1" y1="53.9" x2="73.7" y2="52.5"/>
<line fill="none" stroke="#949494" stroke-width="0.2" stroke-linecap="round" stroke-linejoin="round" x1="62" y1="41" x2="53.8" y2="36.5"/>
<line fill="none" stroke="#949494" stroke-width="0.2" stroke-linecap="round" stroke-linejoin="round" x1="49.1" y1="38.7" x2="35.2" y2="32.1"/>
<line fill="none" stroke="#949494" stroke-width="0.2" stroke-linecap="round" stroke-linejoin="round" x1="49" y1="32.6" x2="41.5" y2="28.5"/>
<line fill="none" stroke="#949494" stroke-width="0.2" stroke-linecap="round" stroke-linejoin="round" x1="49" y1="49.5" x2="34.2" y2="44"/>
<line fill="none" stroke="#949494" stroke-width="0.2" stroke-linecap="round" stroke-linejoin="round" x1="49" y1="55.6" x2="34.5" y2="52.1"/>
<line fill="none" stroke="#949494" stroke-width="0.2" stroke-linecap="round" stroke-linejoin="round" x1="48.7" y1="59.2" x2="34.2" y2="56.1"/>
<line fill="none" stroke="#949494" stroke-width="0.2" stroke-linecap="round" stroke-linejoin="round" x1="48.8" y1="62.6" x2="34.1" y2="60"/>
<line fill="none" stroke="#949494" stroke-width="0.2" stroke-linecap="round" stroke-linejoin="round" x1="48.8" y1="71.9" x2="34.1" y2="71"/>
<line fill="none" stroke="#949494" stroke-width="0.2" stroke-linecap="round" stroke-linejoin="round" x1="25.2" y1="38" x2="25" y2="120.3"/>
<line fill="none" stroke="#949494" stroke-width="0.2" stroke-linecap="round" stroke-linejoin="round" x1="24.9" y1="70.4" x2="4.5" y2="69.2"/>
<line fill="none" stroke="#949494" stroke-width="0.2" stroke-linecap="round" stroke-linejoin="round" x1="25" y1="58.2" x2="10.2" y2="55.4"/>
<line fill="none" stroke="#949494" stroke-width="0.2" stroke-linecap="round" stroke-linejoin="round" x1="25" y1="53.5" x2="13.5" y2="50.8"/>
<line fill="none" stroke="#949494" stroke-width="0.2" stroke-linecap="round" stroke-linejoin="round" x1="25" y1="49.2" x2="17.4" y2="46.4"/>
<line fill="none" stroke="#949494" stroke-width="0.2" stroke-linecap="round" stroke-linejoin="round" x1="25" y1="85.3" x2="4.5" y2="87.1"/>
<line fill="none" stroke="#949494" stroke-width="0.2" stroke-linecap="round" stroke-linejoin="round" x1="24.8" y1="89.9" x2="6.3" y2="92.6"/>
<line fill="none" stroke="#949494" stroke-width="0.2" stroke-linecap="round" stroke-linejoin="round" x1="24.9" y1="94.4" x2="8.7" y2="97.7"/>
<line fill="none" stroke="#949494" stroke-width="0.2" stroke-linecap="round" stroke-linejoin="round" x1="24.9" y1="107.1" x2="15.7" y2="109.8"/>
<line fill="none" stroke="#949494" stroke-width="0.2" stroke-linecap="round" stroke-linejoin="round" x1="24.8" y1="115.1" x2="20.8" y2="116.5"/>
<line fill="none" stroke="#949494" stroke-width="0.2" stroke-linecap="round" stroke-linejoin="round" x1="43.2" y1="119.4" x2="34.1" y2="124.7"/>
<path fill="none" stroke="#949494" stroke-width="0.2" stroke-linecap="round" stroke-linejoin="round" d="M42.5,117.7
	c-1.4,0.8-7.4,3.7-7.4,3.7"/>
<line fill="none" stroke="#949494" stroke-width="0.2" stroke-linecap="round" stroke-linejoin="round" x1="62.1" y1="33.8" x2="53.6" y2="27.9"/>
<line fill="none" stroke="#949494" stroke-width="0.2" stroke-linecap="round" stroke-linejoin="round" x1="71.2" y1="40.4" x2="65.2" y2="36.6"/>
<line fill="none" stroke="#949494" stroke-width="0.2" stroke-linecap="round" stroke-linejoin="round" x1="71.3" y1="50.9" x2="68.5" y2="49.6"/>
<line fill="none" stroke="#949494" stroke-width="0.2" stroke-linecap="round" stroke-linejoin="round" x1="70.8" y1="57.7" x2="68.5" y2="56.9"/>
<line fill="none" stroke="#949494" stroke-width="0.2" stroke-linecap="round" stroke-linejoin="round" x1="77.1" y1="60.1" x2="73.5" y2="59.1"/>
<line fill="none" stroke="#949494" stroke-width="0.2" stroke-linecap="round" stroke-linejoin="round" x1="82" y1="61.9" x2="79" y2="61.1"/>
<line fill="none" stroke="#949494" stroke-width="0.2" stroke-linecap="round" stroke-linejoin="round" x1="91.3" y1="65.6" x2="89.9" y2="65.2"/>
<line fill="none" stroke="#949494" stroke-width="0.2" stroke-linecap="round" stroke-linejoin="round" x1="93.6" y1="68.7" x2="92.1" y2="68.4"/>
<line fill="none" stroke="#949494" stroke-width="0.2" stroke-linecap="round" stroke-linejoin="round" x1="77" y1="64" x2="73.9" y2="63.2"/>
<line fill="none" stroke="#949494" stroke-width="0.2" stroke-linecap="round" stroke-linejoin="round" x1="70.7" y1="64.4" x2="68.2" y2="64"/>
<line fill="none" stroke="#949494" stroke-width="0.2" stroke-linecap="round" stroke-linejoin="round" x1="70.8" y1="68.1" x2="67.2" y2="67.7"/>
<line fill="none" stroke="#949494" stroke-width="0.2" stroke-linecap="round" stroke-linejoin="round" x1="77.4" y1="69.1" x2="73.7" y2="68.6"/>
<line fill="none" stroke="#949494" stroke-width="0.2" stroke-linecap="round" stroke-linejoin="round" x1="82.2" y1="68.7" x2="79.1" y2="68.4"/>
<line fill="none" stroke="#949494" stroke-width="0.2" stroke-linecap="round" stroke-linejoin="round" x1="77.3" y1="45.3" x2="73.4" y2="42.9"/>
<line fill="none" stroke="#949494" stroke-width="0.2" stroke-linecap="round" stroke-linejoin="round" x1="82.3" y1="49" x2="79" y2="47.2"/>
<line fill="none" stroke="#949494" stroke-width="0.2" stroke-linecap="round" stroke-linejoin="round" x1="93.4" y1="57.9" x2="92.2" y2="57.2"/>
<line fill="none" stroke="#949494" stroke-width="0.2" stroke-linecap="round" stroke-linejoin="round" x1="91.4" y1="70.7" x2="90.1" y2="70.4"/>
<line fill="none" stroke="#949494" stroke-width="0.2" stroke-linecap="round" stroke-linejoin="round" x1="95.2" y1="74.1" x2="94.3" y2="74.1"/>
<polyline fill="none" stroke="#949494" stroke-width="0.2" stroke-linecap="round" stroke-linejoin="round" points="92.3,74.1 
	90.9,74.1 90,74.1 "/>
<line fill="none" stroke="#949494" stroke-width="0.2" stroke-linecap="round" stroke-linejoin="round" x1="82.2" y1="73.7" x2="79.3" y2="73.7"/>
<line fill="none" stroke="#949494" stroke-width="0.2" stroke-linecap="round" stroke-linejoin="round" x1="76.9" y1="73.6" x2="74.2" y2="73.5"/>
<polyline fill="none" stroke="#949494" stroke-width="0.2" stroke-linecap="round" stroke-linejoin="round" points="96,77.6 
	95.1,77.7 94.3,77.7 "/>
<line fill="none" stroke="#949494" stroke-width="0.2" stroke-linecap="round" stroke-linejoin="round" x1="91.2" y1="78" x2="90.1" y2="78.2"/>
<line fill="none" stroke="#949494" stroke-width="0.2" stroke-linecap="round" stroke-linejoin="round" x1="93.5" y1="83.2" x2="92.2" y2="83.6"/>
<line fill="none" stroke="#949494" stroke-width="0.2" stroke-linecap="round" stroke-linejoin="round" x1="95.4" y1="84.5" x2="94.5" y2="85"/>
<line fill="none" stroke="#949494" stroke-width="0.2" stroke-linecap="round" stroke-linejoin="round" x1="91.2" y1="86.3" x2="90" y2="86.8"/>
<line fill="none" stroke="#949494" stroke-width="0.2" stroke-linecap="round" stroke-linejoin="round" x1="103" y1="81.3" x2="97.2" y2="81.4"/>
<line fill="none" stroke="#949494" stroke-width="0.2" stroke-linecap="round" stroke-linejoin="round" x1="102.3" y1="78.2" x2="97.5" y2="78.3"/>
<line fill="none" stroke="#949494" stroke-width="0.2" stroke-linecap="round" stroke-linejoin="round" x1="102.7" y1="74.5" x2="97.2" y2="74.5"/>
<line fill="none" stroke="#949494" stroke-width="0.2" stroke-linecap="round" stroke-linejoin="round" x1="102.6" y1="71.4" x2="97.3" y2="71.4"/>
<line fill="none" stroke="#949494" stroke-width="0.2" stroke-linecap="round" stroke-linejoin="round" x1="102.5" y1="64.7" x2="97.5" y2="65"/>
<line fill="none" stroke="#949494" stroke-width="0.2" stroke-linecap="round" stroke-linejoin="round" x1="113.3" y1="64.8" x2="106.3" y2="64.8"/>
<line fill="none" stroke="#949494" stroke-width="0.2" stroke-linecap="round" stroke-linejoin="round" x1="112.7" y1="70" x2="106.2" y2="70"/>
<line fill="none" stroke="#949494" stroke-width="0.2" stroke-linecap="round" stroke-linejoin="round" x1="113.3" y1="74.6" x2="106" y2="74.6"/>
<line fill="none" stroke="#949494" stroke-width="0.2" stroke-linecap="round" stroke-linejoin="round" x1="114" y1="80.1" x2="106" y2="80.2"/>
<line fill="none" stroke="#949494" stroke-width="0.2" stroke-linecap="round" stroke-linejoin="round" x1="36.1" y1="61.9" x2="36" y2="69.5"/>
<line fill="none" stroke="#949494" stroke-width="0.2" stroke-linecap="round" stroke-linejoin="round" x1="41" y1="62.4" x2="40.8" y2="69.9"/>
<line fill="none" stroke="#949494" stroke-width="0.2" stroke-linecap="round" stroke-linejoin="round" x1="46.4" y1="63.2" x2="46.1" y2="70.5"/>
<line fill="none" stroke="#949494" stroke-width="0.2" stroke-linecap="round" stroke-linejoin="round" x1="36.1" y1="46.7" x2="35.9" y2="51"/>
<line fill="none" stroke="#949494" stroke-width="0.2" stroke-linecap="round" stroke-linejoin="round" x1="40.8" y1="47.7" x2="40.7" y2="52.3"/>
<line fill="none" stroke="#949494" stroke-width="0.2" stroke-linecap="round" stroke-linejoin="round" x1="45.6" y1="50.2" x2="45.6" y2="52.8"/>
<line fill="none" stroke="#949494" stroke-width="0.2" stroke-linecap="round" stroke-linejoin="round" x1="36.3" y1="33.6" x2="36.1" y2="42.1"/>
<line fill="none" stroke="#949494" stroke-width="0.2" stroke-linecap="round" stroke-linejoin="round" x1="43.2" y1="39.4" x2="43" y2="45.8"/>
<line fill="none" stroke="#949494" stroke-width="0.2" stroke-linecap="round" stroke-linejoin="round" x1="45.9" y1="43.9" x2="45.9" y2="46.9"/>
<line fill="none" stroke="#949494" stroke-width="0.2" stroke-linecap="round" stroke-linejoin="round" x1="36.4" y1="74.1" x2="36.2" y2="83.4"/>
<line fill="none" stroke="#949494" stroke-width="0.2" stroke-linecap="round" stroke-linejoin="round" x1="40.9" y1="75.5" x2="40.8" y2="77.8"/>
<line fill="none" stroke="#949494" stroke-width="0.2" stroke-linecap="round" stroke-linejoin="round" x1="21.2" y1="72.7" x2="21.1" y2="83.9"/>
<line fill="none" stroke="#949494" stroke-width="0.2" stroke-linecap="round" stroke-linejoin="round" x1="17.9" y1="75.3" x2="17.7" y2="83.2"/>
<line fill="none" stroke="#949494" stroke-width="0.2" stroke-linecap="round" stroke-linejoin="round" x1="14.3" y1="71.4" x2="14" y2="84.3"/>
<line fill="none" stroke="#949494" stroke-width="0.2" stroke-linecap="round" stroke-linejoin="round" x1="87.9" y1="59.9" x2="85" y2="58.5"/>
<line fill="none" stroke="#949494" stroke-width="0.2" stroke-linecap="round" stroke-linejoin="round" x1="87.9" y1="67.4" x2="84.8" y2="66.7"/>
<line fill="none" stroke="#949494" stroke-width="0.2" stroke-linecap="round" stroke-linejoin="round" x1="87.8" y1="79.1" x2="84.9" y2="79.2"/>
<line fill="none" stroke="#949494" stroke-width="0.2" stroke-linecap="round" stroke-linejoin="round" x1="87.8" y1="84.5" x2="85.1" y2="84.9"/>
<line fill="none" stroke="#949494" stroke-width="0.2" stroke-linecap="round" stroke-linejoin="round" x1="87.9" y1="90.4" x2="84.6" y2="91.8"/>
<path fill="#FFFFFF" d="M77.4,128.9c-4.7,2-9.7,3-14.8,3c-8.5-0.2-17.7-2.5-18.3-3.3c-0.6-0.8,0.2-6.5,0.2-6.5l-0.8-7.1
	c-1.5,1-3.1,2-4.8,2.8c-1.4,0.5-2.5,0.4-3.6-2.8c-1.2-3.3-2.7-8-0.8-18.8s1.9-15.7,6.5-18.3s11.4-6.2,12.2-7.3
	c0.6-1.5,1-3.1,1.1-4.7c0.1-0.9-0.1-1.7-0.5-2.5c0,0-2.3-0.3-2.7-1.8c-0.4-1.1-0.6-2.3-0.6-3.5c0.2-1.3-0.5-5.6,1.2-8.3
	c2.7-3.7,7.4-5.3,11.8-4c5.7,1.5,4.4,5,4.4,6.4c0.5,3.5,0.6,7.1,0.2,10.6c-0.5,2.2-1.2,4.4-2.2,6.5c0.4,1.1,1,2,1.9,2.8
	c1.2,0.7,6.4,2.9,9.2,4c3.4,1.1,5.8,4,6.3,7.5c0.4,4.1,0.9,7.2,1.5,10.7c0.7,3.9,1.1,7.8,1.2,11.7c-0.2,2.4-1.9,10.7-8.1,6.5
	c-0.4,3.6-0.4,6.5-0.4,6.5c0.2,2.3,0.4,4.5,0.4,6.8C77.5,127.4,77.4,128.9,77.4,128.9z"/>
<path fill="none" stroke="#0B0C0C" stroke-width="0.5" stroke-linecap="round" stroke-linejoin="round" d="M62.4,51.7
	c2.2,0.6,3.7-1.4,4.9,0.4c1.1,1.8,2,19.2-5.1,19s-8.7-7.9-8.7-7.9c-1.5,0-2.7-1.1-2.9-2.5c-0.5-2.5,0.2-5,2.6-2
	c0.7-1.8,2.2-1.2,2.7-3.5C56.3,52.9,58.2,50.5,62.4,51.7z"/>
<path fill="none" stroke="#0B0C0C" stroke-width="0.5" stroke-linecap="round" stroke-linejoin="round" d="M67.5,52.7
	c-0.1-1.8,1.3-3-0.4-4.9c-2.7-3-10.4-3.4-14.1-0.2c-3.2,2.8-2.7,6.8-2.7,10.5"/>
<path fill="none" stroke="#0B0C0C" stroke-width="0.5" stroke-linecap="round" stroke-linejoin="round" d="M54.2,65.3
	c0.1,1.7-0.2,3.5-1,5c-4,4-10.2,5.2-14.2,9.2c-2.4,2.4-3,6.6-3.5,9.7c-1.3,7.3-3.4,16.3-1,23.6c0.3,1,2.2,5,3.3,5.2
	c1,0.2,9.1-4.6,12.4-10c-0.6,0.8-5.8-1.2-3.6-4.6c-3.8,0.6-7.4,1.9-10.8,3.7"/>
<path fill="none" stroke="#0B0C0C" stroke-width="0.5" stroke-linecap="round" stroke-linejoin="round" d="M41,91.8
	c2.1,3.6,3.3,7.6,3.5,11.8"/>
<path fill="none" stroke="#0B0C0C" stroke-width="0.5" stroke-linecap="round" stroke-linejoin="round" d="M77.6,100.4
	c0,0,3.7-4.2,4.6-5.2c0.9-0.9,0.9-1.4-3.7-1.1c-4.5,0.3-11.6,0.3-13.3,0.4c-1.6,0-2.2,0.3-3.5,2.2c-1.3,1.9-5,6.6-5.7,7.7
	c-0.7,1-1.2,1.8,1.4,1.7s11.2-0.6,11.2-0.6"/>
<path fill="none" stroke="#0B0C0C" stroke-width="0.5" stroke-linecap="round" stroke-linejoin="round" d="M49.7,108.2
	c2-2,4.3-3.5,6.9-4.7"/>
<path fill="none" stroke="#0B0C0C" stroke-width="0.5" stroke-linecap="round" stroke-linejoin="round" d="M61.2,97.2
	c0.3-0.2-1.5-1.7-1.9-1.8c-1.8-0.4-3.7-0.4-5.6,0c-2,0.8-3.1,4.2-4.1,5.9c-0.9,1.3-2,2.4-3.4,3.1"/>
<path fill="none" stroke="#0B0C0C" stroke-width="0.5" stroke-linecap="round" stroke-linejoin="round" d="M59.9,98.9
	c-1.9-0.2-3.8,0.2-5.4,1.1"/>
<path fill="none" stroke="#0B0C0C" stroke-width="0.5" stroke-linecap="round" stroke-linejoin="round" d="M77.4,100.5
	c-2.3-0.9-4.9-0.9-7.2,0c-2.2,0.7-5,2-4.9,2.7c0.1,0.7,3.1,2.1,3.8,2.4c2.9,1.5,6.2,4.3,9.5,4.7"/>
<path fill="none" stroke="#0B0C0C" stroke-width="0.5" stroke-linecap="round" stroke-linejoin="round" d="M78.6,99.5
	c-0.2-0.2,0,0.4,0.1,0.6c0.1,0.2,0.2,0.9,0.4,1.3c0.4,1.1,0.2,3.1,1.5,3.7"/>
<path fill="none" stroke="#0B0C0C" stroke-width="0.5" stroke-linecap="round" stroke-linejoin="round" d="M65.8,69.5
	c1.8,5.3,11.3,5.3,14.8,9.1c2.4,2.6,2.7,6.3,3,9.7c0.6,6.5,3.2,14.2,1.9,20.6c-0.5,2.2-2.2,4.9-4.8,4.9c-1.6,0-3.8-3.3-3.7-3.4
	c0-0.1,1,0.4,1.3,0.3c1.1-0.6,1.9-1.5,2.2-2.7c0.2-0.7,0.4-1.5,0.4-2.2c0-0.2-0.3-0.8-0.2-1c0.1-0.2,2.2,0.2,2.6,0.3"/>
<path fill="none" stroke="#0B0C0C" stroke-width="0.5" stroke-linecap="round" stroke-linejoin="round" d="M77.2,111.4
	c0-0.2,0.7,7.2-0.6,8.1c-3.9,2.4-8.3,3.9-12.8,4.4c-4.6,0.9-15.5,0.8-19.6-1.9c-0.4-2.3-0.6-4.6-0.6-6.9"/>
<path fill="none" stroke="#0B0C0C" stroke-width="0.5" stroke-linecap="round" stroke-linejoin="round" d="M44.2,122.3
	c-0.3,2.4-0.4,4.7-0.4,7.1"/>
<path fill="none" stroke="#0B0C0C" stroke-width="0.5" stroke-linecap="round" stroke-linejoin="round" d="M77.1,119.1
	c0.4,3.7,0.5,7.4,0.3,11.1"/>
<path fill="none" stroke="#0B0C0C" stroke-width="0.5" stroke-linecap="round" stroke-linejoin="round" d="M53.1,70.9
	c1,2.5,2.7,4.7,5,6.3c0.3,0.3,0.7,0.8,1.2,0.9c0.5,0.1,1.6-1,2.2-1.4c1.5-1.3,4.4-3.9,4.4-6.1"/>
<path fill="none" stroke="#0B0C0C" stroke-width="0.5" stroke-linecap="round" stroke-linejoin="round" d="M59.3,78.3
	c0,5.5,0.2,11.1,0.2,16.5"/>
<path fill="none" stroke="#0B0C0C" stroke-width="0.5" stroke-linecap="round" stroke-linejoin="round" d="M58.8,106.4
	c0,5.8,0.9,11.7,0.9,17.5"/>
<path fill="none" stroke="#0B0C0C" stroke-width="0.5" stroke-linecap="round" stroke-linejoin="round" d="M68.6,73
	c0,0.8,0,1.6,0,2.4c0,0.3,0.2,2.2-0.1,2.5s-3.9-2.5-5.2-2.5"/>
<path fill="none" stroke="#0B0C0C" stroke-width="0.5" stroke-linecap="round" stroke-linejoin="round" d="M49.7,73
	c0,1,0,1.9,0.1,2.9c-0.1,1,0,1.9,0.3,2.8c0.7-0.2,1.4-0.5,2-0.9c1.3-0.5,3-2.6,4.4-1.9"/>
<path fill="none" stroke="#0B0C0C" stroke-width="0.5" stroke-linecap="round" stroke-linejoin="round" d="M53.6,98.1
	c1.7-0.8,5.2-2.1,6.8-0.8"/>
<path fill="none" stroke="#0B0C0C" stroke-width="0.5" stroke-linecap="round" stroke-linejoin="round" d="M56.3,101.5
	c0.8-0.4,1.8-0.7,2.7-0.8"/>
<path fill="none" stroke="#0B0C0C" stroke-width="0.5" stroke-linecap="round" stroke-linejoin="round" d="M69.9,100.7
	c1.3,0.3,4.8,0.7,6.1,2.2"/>
<path fill="none" stroke="#0B0C0C" stroke-width="0.5" stroke-linecap="round" stroke-linejoin="round" d="M68.1,101.6
	c2.4,0.7,4.6,1.7,6.6,3.1"/>
<path fill="none" stroke="#0B0C0C" stroke-width="0.5" stroke-linecap="round" stroke-linejoin="round" d="M66,102.8
	c1.6-0.2,7.7,3.3,8,3.8"/>
</svg>
