<svg width="24" height="24" viewBox="0 0 24 24" fill="none" xmlns="http://www.w3.org/2000/svg">
<path d="M20.8718 1.71915L1.71381 20.8771C1.32307 21.2679 1.3231 21.9013 1.71384 22.2921C2.10459 22.6828 2.73808 22.6829 3.12883 22.2921L22.2868 3.13417C22.6776 2.74342 22.6775 2.10993 22.2867 1.71918C21.896 1.32844 21.2625 1.32841 20.8718 1.71915Z" fill="#EFEFEF" stroke="#EFEFEF"/>
<path d="M22.2924 20.8718L3.13443 1.71387C2.74369 1.32313 2.11022 1.32316 1.71948 1.7139C1.32873 2.10465 1.32867 2.73814 1.71942 3.12889L20.8774 22.2869C21.2681 22.6776 21.9016 22.6775 22.2924 22.2868C22.6831 21.8961 22.6832 21.2626 22.2924 20.8718Z" fill="#EFEFEF" stroke="#EFEFEF"/>
</svg>
