<svg width="33" height="31" viewBox="0 0 33 31" fill="none" xmlns="http://www.w3.org/2000/svg">
<path d="M2 4H31" stroke="#939597" stroke-width="2.5" stroke-miterlimit="10" stroke-linecap="round"/>
<path d="M2 15H31" stroke="#939597" stroke-width="2.5" stroke-miterlimit="10" stroke-linecap="round"/>
<path d="M2 27H31" stroke="#939597" stroke-width="2.5" stroke-miterlimit="10" stroke-linecap="round"/>
<path d="M27.6667 0H22.3333C21.597 0 21 0.596954 21 1.33333V6.66667C21 7.40305 21.597 8 22.3333 8H27.6667C28.403 8 29 7.40305 29 6.66667V1.33333C29 0.596954 28.403 0 27.6667 0Z" fill="#939597"/>
<path d="M10.6667 11H5.33333C4.59695 11 4 11.597 4 12.3333V17.6667C4 18.403 4.59695 19 5.33333 19H10.6667C11.403 19 12 18.403 12 17.6667V12.3333C12 11.597 11.403 11 10.6667 11Z" fill="#939597"/>
<path d="M21.6667 23H16.3333C15.597 23 15 23.597 15 24.3333V29.6667C15 30.403 15.597 31 16.3333 31H21.6667C22.403 31 23 30.403 23 29.6667V24.3333C23 23.597 22.403 23 21.6667 23Z" fill="#939597"/>
</svg>
