<svg width="26" height="25" viewBox="0 0 26 25" fill="none" xmlns="http://www.w3.org/2000/svg">
<g clip-path="url(#clip0)">
<path d="M24.1026 0H1.52932C0.684701 0 0 0.684701 0 1.52932V7.67189C0 8.51651 0.684701 9.20121 1.52932 9.20121H24.1026C24.9473 9.20121 25.632 8.51651 25.632 7.67189V1.52932C25.632 0.684701 24.9473 0 24.1026 0Z" fill="#939597"/>
<path d="M24.1026 15.8114H1.52932C0.684701 15.8114 0 16.4961 0 17.3407V23.4833C0 24.3279 0.684701 25.0126 1.52932 25.0126H24.1026C24.9473 25.0126 25.632 24.3279 25.632 23.4833V17.3407C25.632 16.4961 24.9473 15.8114 24.1026 15.8114Z" fill="#939597"/>
</g>
<defs>
<clipPath id="clip0">
<rect width="25.632" height="25" fill="white"/>
</clipPath>
</defs>
</svg>
