<svg width="26" height="25" viewBox="0 0 26 25" fill="none" xmlns="http://www.w3.org/2000/svg">
<g clip-path="url(#clip0)">
<path d="M7.67189 0H1.52932C0.684701 0 0 0.684701 0 1.52932V7.67189C0 8.51651 0.684701 9.20121 1.52932 9.20121H7.67189C8.51651 9.20121 9.20121 8.51651 9.20121 7.67189V1.52932C9.20121 0.684701 8.51651 0 7.67189 0Z" fill="#939597"/>
<path d="M24.1406 0H17.998C17.1534 0 16.4687 0.684701 16.4687 1.52932V7.67189C16.4687 8.51651 17.1534 9.20121 17.998 9.20121H24.1406C24.9852 9.20121 25.6699 8.51651 25.6699 7.67189V1.52932C25.6699 0.684701 24.9852 0 24.1406 0Z" fill="#939597"/>
<path d="M7.67189 15.8114H1.52932C0.684701 15.8114 0 16.4961 0 17.3407V23.4833C0 24.3279 0.684701 25.0126 1.52932 25.0126H7.67189C8.51651 25.0126 9.20121 24.3279 9.20121 23.4833V17.3407C9.20121 16.4961 8.51651 15.8114 7.67189 15.8114Z" fill="#939597"/>
<path d="M24.1406 15.8114H17.998C17.1534 15.8114 16.4687 16.4961 16.4687 17.3407V23.4833C16.4687 24.3279 17.1534 25.0126 17.998 25.0126H24.1406C24.9852 25.0126 25.6699 24.3279 25.6699 23.4833V17.3407C25.6699 16.4961 24.9852 15.8114 24.1406 15.8114Z" fill="#939597"/>
</g>
<defs>
<clipPath id="clip0">
<rect width="25.6699" height="25" fill="white"/>
</clipPath>
</defs>
</svg>
