<?xml version="1.0" encoding="utf-8"?>
<!-- Generator: Adobe Illustrator 25.4.0, SVG Export Plug-In . SVG Version: 6.00 Build 0)  -->
<svg version="1.1" id="Ebene_1" xmlns="http://www.w3.org/2000/svg" xmlns:xlink="http://www.w3.org/1999/xlink" x="0px" y="0px"
	 viewBox="0 0 120 156" enable-background="new 0 0 120 156" xml:space="preserve">
<circle fill="#F4F3F4" cx="60" cy="77.8" r="51.2"/>
<line fill="none" stroke="#949494" stroke-width="0.19" stroke-linecap="round" stroke-linejoin="round" x1="56.4" y1="17.1" x2="54.7" y2="96"/>
<line fill="none" stroke="#949494" stroke-width="0.19" stroke-linecap="round" stroke-linejoin="round" x1="55.3" y1="81.7" x2="7.4" y2="94.5"/>
<line fill="none" stroke="#949494" stroke-width="0.19" stroke-linecap="round" stroke-linejoin="round" x1="55.2" y1="78.3" x2="6.9" y2="91.5"/>
<line fill="none" stroke="#949494" stroke-width="0.19" stroke-linecap="round" stroke-linejoin="round" x1="55.2" y1="66.3" x2="4.4" y2="68.6"/>
<line fill="none" stroke="#949494" stroke-width="0.19" stroke-linecap="round" stroke-linejoin="round" x1="55.2" y1="64" x2="6.5" y2="65.5"/>
<line fill="none" stroke="#949494" stroke-width="0.19" stroke-linecap="round" stroke-linejoin="round" x1="55.3" y1="51.9" x2="5.8" y2="48.3"/>
<line fill="none" stroke="#949494" stroke-width="0.19" stroke-linecap="round" stroke-linejoin="round" x1="55.4" y1="49.9" x2="9.1" y2="45.9"/>
<line fill="none" x1="55.8" y1="36.5" x2="32.6" y2="30.9"/>
<line fill="none" stroke="#949494" stroke-width="0.19" stroke-linecap="round" stroke-linejoin="round" x1="55.8" y1="36.5" x2="32.6" y2="30.9"/>
<line fill="none" stroke="#949494" stroke-width="0.19" stroke-linecap="round" stroke-linejoin="round" x1="55.7" y1="34.4" x2="38.1" y2="29.2"/>
<polyline fill="none" stroke="#949494" stroke-width="0.19" stroke-linecap="round" stroke-linejoin="round" points="70.5,22.1 
	69.7,60.6 107.2,61.3 "/>
<line fill="none" stroke="#949494" stroke-width="0.19" stroke-linecap="round" stroke-linejoin="round" x1="77.1" y1="60.4" x2="78.1" y2="25.5"/>
<line fill="none" stroke="#949494" stroke-width="0.19" stroke-linecap="round" stroke-linejoin="round" x1="86" y1="31.5" x2="85.5" y2="58.7"/>
<line fill="none" stroke="#949494" stroke-width="0.19" stroke-linecap="round" stroke-linejoin="round" x1="93.1" y1="36.8" x2="92.2" y2="54.1"/>
<line fill="none" stroke="#949494" stroke-width="0.19" stroke-linecap="round" stroke-linejoin="round" x1="100.4" y1="42.4" x2="99.9" y2="55.5"/>
<line fill="none" stroke="#949494" stroke-width="0.19" stroke-linecap="round" stroke-linejoin="round" x1="70.6" y1="36" x2="92.2" y2="36.1"/>
<path fill="#F4F3F4" d="M63.5,49.6c1.3,0.6,4.3,2.6,4.3,3.5v26.5c0,0.9-1.9,1.6-4.2,1.6s-4.1-0.8-4.1-1.6V53.1
	C59.5,52.2,63.5,49.6,63.5,49.6z"/>
<path fill="none" stroke="#949494" stroke-width="0.19" stroke-linecap="round" stroke-linejoin="round" d="M63.5,49.6
	c1.3,0.6,4.3,2.6,4.3,3.5v26.5c0,0.9-1.9,1.6-4.2,1.6s-4.1-0.8-4.1-1.6V53.1C59.5,52.2,63.5,49.6,63.5,49.6z"/>
<path fill="#F4F3F4" d="M66.8,49.9c1.3,0.6,4.3,2.6,4.3,3.4v26.4c0,0.9-1.9,1.6-4.2,1.6s-4.2-0.7-4.2-1.6V53.3
	C62.8,52.5,66.8,49.9,66.8,49.9z"/>
<path fill="none" stroke="#949494" stroke-width="0.19" stroke-linecap="round" stroke-linejoin="round" d="M66.8,49.9
	c1.3,0.6,4.3,2.6,4.3,3.4v26.4c0,0.9-1.9,1.6-4.2,1.6s-4.2-0.7-4.2-1.6V53.3C62.8,52.5,66.8,49.9,66.8,49.9z"/>
<path fill="#F4F3F4" d="M71.6,49.9c1.4,0.6,4.3,2.6,4.3,3.4v26.4c0,0.9-1.9,1.6-4.2,1.6s-4.2-0.7-4.2-1.6V53.3
	C67.6,52.5,71.6,49.9,71.6,49.9z"/>
<path fill="none" stroke="#949494" stroke-width="0.19" stroke-linecap="round" stroke-linejoin="round" d="M71.6,49.9
	c1.4,0.6,4.3,2.6,4.3,3.4v26.4c0,0.9-1.9,1.6-4.2,1.6s-4.2-0.7-4.2-1.6V53.3C67.6,52.5,71.6,49.9,71.6,49.9z"/>
<path fill="#F4F3F4" d="M77,49.7c1.3,0.5,4.3,2.6,4.3,3.4v26.4c0,0.9-1.9,1.6-4.2,1.6c-2.3,0-4.2-0.7-4.2-1.6V53.2
	C73,52.3,77,49.7,77,49.7z"/>
<path fill="none" stroke="#949494" stroke-width="0.19" stroke-linecap="round" stroke-linejoin="round" d="M77,49.7
	c1.3,0.5,4.3,2.6,4.3,3.4v26.4c0,0.9-1.9,1.6-4.2,1.6c-2.3,0-4.2-0.7-4.2-1.6V53.2C73,52.3,77,49.7,77,49.7z"/>
<path fill="#F4F3F4" d="M79.8,49.8c1.3,0.6,4.3,2.6,4.3,3.4v26.3c0,0.9-4.8,2.7-4.7-13l0.6,13c-2.3,0-3.5,4.1-4.4,0
	c-1.6-7.5,0-26.4,0-26.4C75.8,52.3,79.8,49.8,79.8,49.8z"/>
<path fill="none" stroke="#949494" stroke-width="0.19" stroke-linecap="round" stroke-linejoin="round" d="M79.8,49.8
	c1.3,0.6,4.3,2.6,4.3,3.4v26.3c0,0.9-4.8,2.7-4.7-13l0.6,13c-2.3,0-3.5,4.1-4.4,0c-1.6-7.5,0-26.4,0-26.4
	C75.8,52.3,79.8,49.8,79.8,49.8z"/>
<path fill="#F4F3F4" d="M77.2,51.7c0,0,0,0.3,0.1,0.4s0.2,0.5,0.4,0.7c0.4,0.7,1.4,1.9,2.3,2.1s2.3-2.4,2.7-3.2"/>
<path fill="none" stroke="#949494" stroke-width="0.19" stroke-linecap="round" stroke-linejoin="round" d="M77.2,51.7
	c0,0,0,0.3,0.1,0.4s0.2,0.5,0.4,0.7c0.4,0.7,1.4,1.9,2.3,2.1s2.3-2.4,2.7-3.2"/>
<path fill="#F4F3F4" d="M74.5,51.8c-0.3-0.1,0,2.1,0,2.6c-0.2,1.6-0.6,3.1-1.3,4.5"/>
<path fill="none" stroke="#949494" stroke-width="0.19" stroke-linecap="round" stroke-linejoin="round" d="M74.5,51.8
	c-0.3-0.1,0,2.1,0,2.6c-0.2,1.6-0.6,3.1-1.3,4.5"/>
<path fill="#F4F3F4" d="M74.8,51.7c0,1,0.2,2.1,0.7,3"/>
<path fill="none" stroke="#949494" stroke-width="0.19" stroke-linecap="round" stroke-linejoin="round" d="M74.8,51.7
	c0,1,0.2,2.1,0.7,3"/>
<path fill="#F4F3F4" d="M70.2,51c1,0.5,1.8-0.3,2.7-0.3"/>
<path fill="none" stroke="#949494" stroke-width="0.19" stroke-linecap="round" stroke-linejoin="round" d="M70.2,51
	c1,0.5,1.8-0.3,2.7-0.3"/>
<path fill="#F4F3F4" d="M68.8,55.1c0,2.3,0,4.5,0.2,6.7c0,0.3,0.3,1.9,0,2.2c-0.3,0.3-0.7,0.4-1.1,0.3"/>
<path fill="none" stroke="#949494" stroke-width="0.19" stroke-linecap="round" stroke-linejoin="round" d="M68.8,55.1
	c0,2.3,0,4.5,0.2,6.7c0,0.3,0.3,1.9,0,2.2c-0.3,0.3-0.7,0.4-1.1,0.3"/>
<path fill="#F4F3F4" d="M67.6,67.4c1.8,0.4,3.6,0.4,5.4,0.2"/>
<path fill="none" stroke="#949494" stroke-width="0.19" stroke-linecap="round" stroke-linejoin="round" d="M67.6,67.4
	c1.8,0.4,3.6,0.4,5.4,0.2"/>
<path fill="#F4F3F4" d="M64.3,51.9c0.2,0.4,0.7,1.6,3.2,1.4"/>
<path fill="none" stroke="#949494" stroke-width="0.19" stroke-linecap="round" stroke-linejoin="round" d="M64.3,51.9
	c0.2,0.4,0.7,1.6,3.2,1.4"/>
<path fill="#F4F3F4" d="M63.6,52.5c0,3.3-0.8,6.6-0.8,9.8"/>
<path fill="none" stroke="#949494" stroke-width="0.19" stroke-linecap="round" stroke-linejoin="round" d="M63.6,52.5
	c0,3.3-0.8,6.6-0.8,9.8"/>
<path fill="#F4F3F4" d="M60.6,54.1c0.4,3.1,0.1,2.6-1,2.6"/>
<path fill="none" stroke="#949494" stroke-width="0.19" stroke-linecap="round" stroke-linejoin="round" d="M60.6,54.1
	c0.4,3.1,0.1,2.6-1,2.6"/>
<path fill="#F4F3F4" d="M59.5,61.1c0,1.7,2.3,2.6,3.2,3"/>
<path fill="none" stroke="#949494" stroke-width="0.19" stroke-linecap="round" stroke-linejoin="round" d="M59.5,61.1
	c0,1.7,2.3,2.6,3.2,3"/>
<path fill="#F4F3F4" d="M57.6,47.3h49.6c0.3,0,0.5,0.2,0.5,0.5c0,0.3-0.2,0.5-0.5,0.5c0,0,0,0,0,0H57.6c-0.3,0-0.5-0.2-0.5-0.5
	S57.3,47.3,57.6,47.3z"/>
<path fill="none" stroke="#949494" stroke-width="0.19" stroke-linecap="round" stroke-linejoin="round" d="M57.6,47.3h49.6
	c0.3,0,0.5,0.2,0.5,0.5c0,0.3-0.2,0.5-0.5,0.5c0,0,0,0,0,0H57.6c-0.3,0-0.5-0.2-0.5-0.5S57.3,47.3,57.6,47.3z"/>
<path fill="none" stroke="#949494" stroke-width="0.19" stroke-linecap="round" stroke-linejoin="round" d="M63.4,49.6
	c0-0.4,0.2-4.7,1.3-2.6"/>
<path fill="none" stroke="#949494" stroke-width="0.19" stroke-linecap="round" stroke-linejoin="round" d="M66.8,49.9
	c0-0.5-0.3-4.1,1-2.8"/>
<path fill="none" stroke="#949494" stroke-width="0.19" stroke-linecap="round" stroke-linejoin="round" d="M71.6,49.8
	c-0.1-0.8-0.1-1.6,0-2.3c0-0.3,0.6-1,0.9-0.4"/>
<path fill="none" stroke="#949494" stroke-width="0.19" stroke-linecap="round" stroke-linejoin="round" d="M77.1,49.7
	c-0.2-0.3,0-3,0.4-3.1C78,46.6,77.8,47,78,47"/>
<path fill="none" stroke="#949494" stroke-width="0.19" stroke-linecap="round" stroke-linejoin="round" d="M79.7,49.7
	c0-0.4-0.1-3,0.4-3.2c0.6-0.2,0.3,0.3,0.5,0.3"/>
<path fill="none" stroke="#949494" stroke-width="0.19" stroke-linecap="round" stroke-linejoin="round" d="M18.3,61.8
	c-0.3-2.3,6-4.9,8-4.3c0.4,1.3,0.6,2.7,0.7,4c0,0.4-2.7,0.8-3,0.8c-2.7,0.6-5.4,0.9-8.2,0.8c-0.4,0-2.5,0-2.7-0.6
	c-0.2-0.6,0.1-0.2,0.2-0.3c1.4-0.3,2.7-0.7,4-1.3c0.4-0.2,3.8-5.5,4.9-3.1"/>
<path fill="none" stroke="#949494" stroke-width="0.19" stroke-linecap="round" stroke-linejoin="round" d="M26.9,61.6
	c0,0.1,0.2,1.3,0,1.5c-0.6,0.6-2.5,0.5-3.4,0.7c-1.6,0.3-8.7,1.4-10,0.3c-0.4-0.3-0.2-1-0.3-1.4"/>
<path fill="none" stroke="#949494" stroke-width="0.19" stroke-linecap="round" stroke-linejoin="round" d="M20.9,57.3
	c-0.5,0.1-1.1-0.4-1.5-0.3c-0.4,0.2-0.7,0.7-0.9,0.9c-1,1-2.1,1.9-3.3,2.6c-0.7,0.3-2.6,0.5-3.1,1c-0.4,0.5,0.7,0.9,1,0.9"/>
<path fill="none" stroke="#949494" stroke-width="0.19" stroke-linecap="round" stroke-linejoin="round" d="M11.9,62
	c-0.5,0.9,0.4,1.8,1.2,1.9"/>
<polyline fill="none" stroke="#949494" stroke-width="0.19" stroke-linecap="round" stroke-linejoin="round" points="17.9,60.7 
	18,60.8 18,60.8 18.3,61 "/>
<polyline fill="none" stroke="#949494" stroke-width="0.19" stroke-linecap="round" stroke-linejoin="round" points="18.5,60 
	18.5,60 18.6,60 18.7,60.2 18.9,60.4 "/>
<path fill="none" stroke="#949494" stroke-width="0.19" stroke-linecap="round" stroke-linejoin="round" d="M19,59.3
	c0.2,0.1,0.4,0.3,0.6,0.5"/>
<path fill="none" stroke="#949494" stroke-width="0.19" stroke-linecap="round" stroke-linejoin="round" d="M19.8,58.6
	c0.3,0,0.3,0.2,0.6,0.5"/>
<path fill="none" stroke="#949494" stroke-width="0.19" stroke-linecap="round" stroke-linejoin="round" d="M16.6,59.3
	c0.6,0.3,1.3,0.2,1.4,1"/>
<path fill="none" stroke="#949494" stroke-width="0.19" stroke-linecap="round" stroke-linejoin="round" d="M17.3,58.7
	c0.4,0.1,0.8,0.3,1.1,0.6"/>
<path fill="none" stroke="#949494" stroke-width="0.19" stroke-linecap="round" stroke-linejoin="round" d="M18.1,58l0.5,0.4"/>
<path fill="#F4F3F4" d="M51.5,52.4c0.3-0.5-3.5,0.3-4,0.7c0,0-0.2,6.6-0.4,7.7c-0.2,1.1-1.4,1.8-2.1,2.3c-0.3,0.2-1.1,0.4-0.8,0.7
	c0.2,0,0.4,0,0.6,0c0.9-0.1,4.1,0,4.7-0.7s0-2.3,0.5-2.8c0.5-0.5,0.3,2.3,0.3,2.7c0,0.3,0,0.9,0,0.8c0,0,0.3-2.3,0.4-2.7
	C51,58.8,50.2,54.3,51.5,52.4z"/>
<path fill="none" stroke="#949494" stroke-width="0.19" stroke-linecap="round" stroke-linejoin="round" d="M51.5,52.4
	c0.3-0.5-3.5,0.3-4,0.7c0,0-0.2,6.6-0.4,7.7c-0.2,1.1-1.4,1.8-2.1,2.3c-0.3,0.2-1.1,0.4-0.8,0.7c0.2,0,0.4,0,0.6,0
	c0.9-0.1,4.1,0,4.7-0.7s0-2.3,0.5-2.8c0.5-0.5,0.3,2.3,0.3,2.7c0,0.3,0,0.9,0,0.8c0,0,0.3-2.3,0.4-2.7C51,58.8,50.2,54.3,51.5,52.4z
	"/>
<path fill="#F4F3F4" d="M54.1,52.5c0.3-0.5-3.5,0.3-4,0.7c0,0-0.2,6.6-0.4,7.7c-0.2,1.1-1.4,1.8-2.1,2.3c-0.3,0.2-1.1,0.4-0.9,0.7
	c0.2,0,0.4,0,0.6,0c0.9-0.1,4.1,0,4.7-0.7s0-2.3,0.4-2.8c0.4-0.5,0.3,2.3,0.3,2.7c0,0,0,0.9,0,0.8s0.3-2.3,0.4-2.7
	C53.6,58.9,52.8,54.4,54.1,52.5z"/>
<path fill="none" stroke="#949494" stroke-width="0.19" stroke-linecap="round" stroke-linejoin="round" d="M54.1,52.5
	c0.3-0.5-3.5,0.3-4,0.7c0,0-0.2,6.6-0.4,7.7c-0.2,1.1-1.4,1.8-2.1,2.3c-0.3,0.2-1.1,0.4-0.9,0.7c0.2,0,0.4,0,0.6,0
	c0.9-0.1,4.1,0,4.7-0.7s0-2.3,0.4-2.8c0.4-0.5,0.3,2.3,0.3,2.7c0,0,0,0.9,0,0.8s0.3-2.3,0.4-2.7C53.6,58.9,52.8,54.4,54.1,52.5z"/>
<path fill="#F4F3F4" d="M42.8,44.1c-0.9-0.1-5.5-1.4-4.3-2.7c1.5-1,3.3-1.5,5-1.4c3.1-0.4,6.2-0.2,9.2,0.7c2.3,1-0.2,3.1-2,3.1"/>
<path fill="none" stroke="#949494" stroke-width="0.19" stroke-linecap="round" stroke-linejoin="round" d="M42.8,44.1
	c-0.9-0.1-5.5-1.4-4.3-2.7c1.5-1,3.3-1.5,5-1.4c3.1-0.4,6.2-0.2,9.2,0.7c2.3,1-0.2,3.1-2,3.1"/>
<path fill="none" stroke="#949494" stroke-width="0.19" stroke-linecap="round" stroke-linejoin="round" d="M41.8,40.1
	c2.3-0.8,0-4.1,7.8-3.1c0.9,0,0.7,2.3,1.1,3"/>
<path fill="none" stroke="#949494" stroke-width="0.19" stroke-linecap="round" stroke-linejoin="round" d="M44.6,40
	c-2.3,0.3-1.5,6.6-1.7,8.7"/>
<path fill="none" stroke="#949494" stroke-width="0.19" stroke-linecap="round" stroke-linejoin="round" d="M50,40
	c1.2,0.4,0.5,6.1,0.4,9.3"/>
<path fill="none" stroke="#0B0C0C" stroke-width="0.47" stroke-linecap="round" stroke-linejoin="round" d="M55.1,109.3
	c-0.5-1.2,1.3-1.7,1.5,0.5"/>
<path fill="none" stroke="#0B0C0C" stroke-width="0.47" stroke-linecap="round" stroke-linejoin="round" d="M57.3,110.2
	c0-0.2,0-1.5,0.4-1.3c0.4,0.1,0.8,1.5,1,2"/>
<path fill="none" stroke="#0B0C0C" stroke-width="0.47" stroke-linecap="round" stroke-linejoin="round" d="M59.5,111
	c0-2.1,1.6,0.2,1.7,1"/>
<path fill="none" stroke="#0B0C0C" stroke-width="0.47" stroke-linecap="round" stroke-linejoin="round" d="M63.2,117.9
	c-0.1,0.7-0.2,1.3-0.2,2"/>
<path fill="#FFFFFF" d="M41.5,79.5c2.5,2.3,7.8,8.1,13.7,6.3c-0.5,4.1-1.6,8.2-3.2,12c-1,0-2,0.2-2.9,0.7c-2.3-1.5-4.9-2.4-7.6-2.7
	C41.2,91.9,41.5,84.9,41.5,79.5z M30.4,43.3c-6.5,0.3-6,4.4-6.1,7.3c-0.1,2.9,1.7,5,1.9,6.7c0.1,1.1,0,2.2-0.5,3.3
	c-0.7,1-1.3,2-1.9,3.1c-0.5,0.9-1.3,1.5-2.3,1.7c0,0-1.5,0.8-3.3,2.1l-1.7,1.2c-2.6,1.9-2.2,6-2.1,10.3c0.3,4.4,1.1,8.7,2.3,12.8
	c0.4,2.3,1.5,4.5,3.2,6.1c0,0,0,2.6,0,5.7c0,2.1,0.1,4.2,0.5,6.2l-8.7,3.7c0,0,10.3,4.7,31.9,14c21.7,9.3,29.4,8.7,37.2,3.9
	c6.7-4.2,20.6-20.4,20.6-20.4l1.8-10.6c2.1,0.3,4.1-0.8,5-2.7c2-3.5,5.7-7.4,2.8-18c-2.3-8.5-5.1-15.4-6.7-17.5s-5-6.6-8-7.4
	c-3.3-0.9-6.8-0.4-9.8,1.2c-3.9,1.8-3.1,4.4-3.7,6.7c-1.2,1.2-2,2.8-2.3,4.5c-0.2,2.3-0.4,1.4,1.3,7.1c1.8,5.7,2.2,7,3.7,7
	c1.2,0,2.3-0.6,2.9-1.6c0.2-1.2,0.7,3.8,0.7,3.8l-2.9,1.2l-2.1-1.3l-8.4,3.3l-1.3-8.9l-4-0.2c-0.8-2.2-1.9-4.2-3.2-6.2
	c-1.5-1.8-2.9-0.5-4.2-0.3c-1.2,0.1-2.1,1.1-2.1,2.3c-0.3,1-0.8,2-1.6,2.7l-1.9,1.7c0,0-2.7,1.3-3.7,1.6S51.4,78.8,50,78
	c-2.2-2-3.9-4.3-5.2-7c-2-3.4-7.7-5.4-7.7-5.4l-0.9-0.7l-1.5-2c0,0-0.4-0.8,0.3-1.1c1.3-2.1,2.1-4.5,2.3-7c0.1-2.4-0.1-4.7-0.8-7
	C38.2,46.6,37,43,30.4,43.3z"/>
<path fill="none" stroke="#0B0C0C" stroke-width="0.47" stroke-linecap="round" stroke-linejoin="round" d="M57.8,77l-0.6,2.8
	l-4.7,17.4l13.2,4l6-1.3l0.8-21.2H71L57.8,77z"/>
<line fill="none" stroke="#0B0C0C" stroke-width="0.47" stroke-linecap="round" stroke-linejoin="round" x1="70.9" y1="78.8" x2="65.7" y2="100.9"/>
<polyline fill="none" stroke="#0B0C0C" stroke-width="0.47" stroke-linecap="round" stroke-linejoin="round" points="68.3,78.1 
	74.5,78 76.7,95.2 72.1,96.9 "/>
<path fill="none" stroke="#0B0C0C" stroke-width="0.47" stroke-linecap="round" stroke-linejoin="round" d="M60.6,77.2
	c2-7,4.7-6.2,5-6.1c2.8,0.8,2.3,4.7,2.3,7"/>
<path fill="none" stroke="#0B0C0C" stroke-width="0.47" stroke-linecap="round" stroke-linejoin="round" d="M62.1,77.2
	C66.4,61.6,70,75.6,70,78"/>
<path fill="none" stroke="#0B0C0C" stroke-width="0.47" stroke-linecap="round" stroke-linejoin="round" d="M57.5,77.9
	c-1.3,0.7-4.7,1.9-5.2,3.4c-1,2.7,0.1,7.8,3.2,4.7"/>
<path fill="none" stroke="#0B0C0C" stroke-width="0.47" stroke-linecap="round" stroke-linejoin="round" d="M29,93.2
	c3.2,1.2,4.2,2.6,8.8,3.3c1.5,0.1,2.9,0,4.3-0.4c2.5,0.2,4.9,1,7,2.3c0.9,0.9-4-0.2-4.1,0.3c-0.3,1.1,1.6,1.6,2.3,1.6
	c1.7,0,3.4,0.2,5.1,0.5c-0.3,1.8-6.7,3.4-8.7,3c-2-0.5-3.3-2.3-5.1-3c-4.1-1.4-9.3-0.3-12.8-1.6"/>
<path fill="none" stroke="#0B0C0C" stroke-width="0.47" stroke-linecap="round" stroke-linejoin="round" d="M36.2,65.3l3.8,1.9
	c1.2,0.7,2.2,1.5,3.2,2.5c2.9,2.7,4.2,7.4,7.7,9.3c0.9,0.4,1.9,0.6,2.9,0.6"/>
<path fill="none" stroke="#0B0C0C" stroke-width="0.47" stroke-linecap="round" stroke-linejoin="round" d="M41.3,78.8
	c0.9,1.6,1.9,3,3.1,4.4c1.9,2,4.5,5.2,8.4,3.6"/>
<path fill="#FFFFFF" d="M90.9,54.9c-7.9,0.3-13.2,9.3-10.6,13.7c1.4,2.3,4.7,2.9,6.2,5.2c1,1.5,1.2,4.8,2.1,7.3
	c2.9,7.6,3.2,9.1,7.6,10.2c4.9,1.3,0.2,7.3,5.6,8.6c1.2,0.3,4.7,2.3,7.6-4c2.2-4.5,4-8.1,2.5-13.1C109.2,73.5,103.7,50.7,90.9,54.9z
	"/>
<path fill="none" stroke="#0B0C0C" stroke-width="0.47" stroke-linecap="round" stroke-linejoin="round" d="M90.9,54.9
	c-7.9,0.3-13.2,9.3-10.6,13.7c1.4,2.3,4.7,2.9,6.2,5.2c1,1.5,1.2,4.8,2.1,7.3c2.9,7.6,3.2,9.1,7.6,10.2c4.9,1.3,0.2,7.3,5.6,8.6
	c1.2,0.3,4.7,2.3,7.6-4c2.2-4.5,4-8.1,2.5-13.1C109.2,73.5,103.7,50.7,90.9,54.9z"/>
<path fill="none" stroke="#0B0C0C" stroke-width="0.47" stroke-linecap="round" stroke-linejoin="round" d="M80.1,68.3
	c0.1,1.5,0.4,2.9,1,4.3c0.5,2.3,1.7,7.5,3.6,8.6c1.2,0.5,2.6,0.4,3.7-0.5"/>
<path fill="none" stroke="#0B0C0C" stroke-width="0.47" stroke-linecap="round" stroke-linejoin="round" d="M90.4,86
	c-0.8,0.4-3.6,3.5-6.2,5.3C80.5,94,76,97,73.9,103.9c-1.6,5.2-0.9,10.2-1.1,17.8"/>
<path fill="none" stroke="#0B0C0C" stroke-width="0.47" stroke-linecap="round" stroke-linejoin="round" d="M89.3,83.6
	c0,0-1.8,0.9-2.1,1c-1.6,0.7-0.9,3.1-0.9,4.5"/>
<path fill="none" stroke="#0B0C0C" stroke-width="0.47" stroke-linecap="round" stroke-linejoin="round" d="M87.8,101
	c1.5,2.9,0.5,14-2.7,22.1c-3.5,9.1-6.4,17.4-26.5,2.5c-1.8-1.3,4-8.1,8.7-5.4s6.5,2.3,6.5,2.3"/>
<polyline fill="none" stroke="#0B0C0C" stroke-width="0.47" stroke-linecap="round" stroke-linejoin="round" points="86.6,84.9 
	84.3,83.6 76,86.9 "/>
<line fill="none" stroke="#0B0C0C" stroke-width="0.47" stroke-linecap="round" stroke-linejoin="round" x1="40.1" y1="102.2" x2="11.8" y2="113.5"/>
<path fill="none" stroke="#0B0C0C" stroke-width="0.47" stroke-linecap="round" stroke-linejoin="round" d="M22.8,75.2
	c0.3,3.1,0.8,6.1,0.8,9.3c-0.2,1.6-0.1,3.1,0.3,4.7c0.7,1.1,4.3,2.8,4.5,3.4c0.3,0.9-1.3,1.9-2.3,4.7c-0.9,2.3-0.2,4.1-5.1,1.2
	c-4.4-2.6-4.4-6.7-5.4-11.6c-1.1-5.3-2.7-12.9,0.5-17.8c1.6-1.4,3.4-2.5,5.3-3.5"/>
<path fill="none" stroke="#0B0C0C" stroke-width="0.47" stroke-linecap="round" stroke-linejoin="round" d="M24.5,52.2
	c1.2-1,2,0.2,2.5,1.2c0.8,1.3,1.4-2.3,1.6-3.1c0.3-1,1-1.9,1.8-2.7c1.8-1.4,4.2-1.1,5.7,0.5c1.7,2.3,1.4,8.3,0.4,10.7
	c-0.4,0.9-0.9,2.6-1.8,3.1c-1.3,0.8-6.5-0.9-7-3.9"/>
<path fill="none" stroke="#0B0C0C" stroke-width="0.47" stroke-linecap="round" stroke-linejoin="round" d="M36.4,48.1
	c0.4-0.2,0.7-0.6,0.8-1.1c0.4-1.5-0.7-2-1.9-2.6c-2.7-1.2-7.1-1.9-9.5,0.3c-2.4,2.2-1.5,6.6-1,9.3c0.2,1,1,1.8,1.3,2.9
	c0.2,1.3,0.2,2.7,0.1,4.1"/>
<path fill="none" stroke="#0B0C0C" stroke-width="0.47" stroke-linecap="round" stroke-linejoin="round" d="M25.8,60.4
	c-1.2,0.2,0.6,1.4,0.8,1.6c1.5,1.1,3.1,2.2,4.4,3.4c0.7,1.1,1.2,2.3,1.5,3.5c0.1,0.4,0.3,0.8,0.4,1.2c0.1,0.4,0,0.6,0.2,0.5
	c0.2-0.1,0-1.7,0.1-2.1c0.6-1.9,0.8-3.9,0.7-5.8"/>
<path fill="none" stroke="#0B0C0C" stroke-width="0.47" stroke-linecap="round" stroke-linejoin="round" d="M25.3,60.8
	c-1.7,3.2-1.5,2.6-0.7,3.7c0.8,1.1,2.2,3,2.6,2.6c1.4-1.7,2.8-1.2,3.8-1.3"/>
<path fill="none" stroke="#0B0C0C" stroke-width="0.47" stroke-linecap="round" stroke-linejoin="round" d="M34.4,62.7
	c-0.3,0,1.6,2.3,1.7,2.9c0,0.1-0.2,0.1-0.3,0.2c-0.9,0.7-1.8,1.5-2.5,2.3"/>
<path fill="none" stroke="#0B0C0C" stroke-width="0.47" stroke-linecap="round" stroke-linejoin="round" d="M23.9,63.7
	c-0.7,0.7-1.6,1.4-2.6,1.8"/>
<path fill="none" stroke="#0B0C0C" stroke-width="0.47" stroke-linecap="round" stroke-linejoin="round" d="M19.7,98.3
	c-0.7,3.9-0.5,7.8,0.3,11.6"/>
<line fill="none" stroke="#0B0C0C" stroke-width="0.47" stroke-linecap="round" stroke-linejoin="round" x1="58.4" y1="126.1" x2="48.4" y2="134.4"/>
<path fill="none" stroke="#0B0C0C" stroke-width="0.47" stroke-linecap="round" stroke-linejoin="round" d="M103.4,100.5
	c0,0-0.6,3.6-0.7,4c-0.4,2.3-0.9,4.5-1.3,6.8"/>
<path fill="none" stroke="#0B0C0C" stroke-width="0.47" stroke-linecap="round" stroke-linejoin="round" d="M32.9,69
	c0,2.1,0.5,4.2,0.7,6.4c0.5,6.8,1.8,13.6,1.8,20.4"/>
<path fill="none" stroke="#0B0C0C" stroke-width="0.47" stroke-linecap="round" stroke-linejoin="round" d="M41.1,75.1
	c-0.2,5.8-0.1,11.6,0.3,17.4c0.2,1.7,0.6,3.9-2.3,4"/>
<line fill="none" stroke="#0B0C0C" stroke-width="0.47" stroke-linecap="round" stroke-linejoin="round" x1="72.6" y1="114.5" x2="66.3" y2="119.6"/>
<line fill="none" stroke="#0B0C0C" stroke-width="0.47" stroke-linecap="round" stroke-linejoin="round" x1="52.5" y1="97.1" x2="48.8" y2="98.6"/>
<path fill="none" stroke="#0B0C0C" stroke-width="0.47" stroke-linecap="round" stroke-linejoin="round" d="M79.8,99.9
	c-1.9,1.3-3.1,5.2-3.6,7.3c-1.3,6-1.8,12.2-1.7,18.3"/>
<path fill="none" stroke="#0B0C0C" stroke-width="0.47" stroke-linecap="round" stroke-linejoin="round" d="M58.5,124.2
	c-1.5-0.9-2.3-2.8-3.8-4c-1.1-0.7-2.1-1.4-3-2.3c-1-1.1-2.7-2-1.9-2.6c1.2-1,5.7,2.3,6.7,2.9c1.2,0.5,2.4,0.8,3.7,1
	c1.2,0.3,0.9,0.3,1.8,1"/>
<path fill="none" stroke="#0B0C0C" stroke-width="0.47" stroke-linecap="round" stroke-linejoin="round" d="M52.9,116
	c-1.1-0.6-5.7-2.5-6-3.3c0-0.2,3.2-4.1,4.7-4.4c4.7,1.6,9.2,3.7,13.5,6.3c0.2,1.2-2.5,3.8-3.4,4.8"/>
<path fill="none" stroke="#0B0C0C" stroke-width="0.47" stroke-linecap="round" stroke-linejoin="round" d="M50.2,108.9
	c-1.3-1.9-2-0.5-3.5-0.5c-0.6,0-1.2-0.6-1.9-0.4c-1.9,1.6-3.5,3.6-4.7,5.9c0,1.5,2.6,3,3.7,3.7c1,0.7,1.7,1.2,2.5,1.8
	c1.7,1.1,7,5.5,9.1,5.5c0.8,0,1.4-0.9,1.7-1.5"/>
<path fill="none" stroke="#0B0C0C" stroke-width="0.47" stroke-linecap="round" stroke-linejoin="round" d="M43.6,117.4
	c-1-0.6-1.9-1.4-2.7-2.3c-0.5-2.7,2.7-0.8,3.1-0.9c0.4-0.1,0.9-0.8,1.5-0.6c0.9,0.5,1.7,1.1,2.5,1.8c2.6,1.9,5.4,3.9,7.1,5.1"/>
<path fill="none" stroke="#0B0C0C" stroke-width="0.47" stroke-linecap="round" stroke-linejoin="round" d="M54.7,109.2
	c0,0.2-0.1-0.3-0.1-0.4s0.1-0.8,0.6-0.9c0.4-0.1,1,1.5,1.1,1.9"/>
<path fill="none" stroke="#0B0C0C" stroke-width="0.47" stroke-linecap="round" stroke-linejoin="round" d="M56.7,110
	c-0.3-0.3,0.2-1.3,0.7-1c0.5,0.3,0.7,1.4,1,2"/>
<path fill="none" stroke="#0B0C0C" stroke-width="0.47" stroke-linecap="round" stroke-linejoin="round" d="M58.5,110.7
	c0-0.3,0.1-0.6,0.4-0.8c0.7-0.5,1.3,1.5,1.4,2"/>
<path fill="none" stroke="#0B0C0C" stroke-width="0.47" stroke-linecap="round" stroke-linejoin="round" d="M63.4,117.9
	c-0.1,0.6,0,1.2,0.3,1.7"/>
<polygon fill="none" stroke="#0B0C0C" stroke-width="0.47" stroke-linecap="round" stroke-linejoin="round" points="37.2,98.8 
	38.5,99 38.1,101.2 36.7,101 "/>
<path fill="none" stroke="#0B0C0C" stroke-width="0.47" stroke-linecap="round" stroke-linejoin="round" d="M39.4,96.3
	c-0.5,0.7-0.9,1.5-1.2,2.3"/>
<path fill="none" stroke="#0B0C0C" stroke-width="0.47" stroke-linecap="round" stroke-linejoin="round" d="M39.1,96.2
	c-0.9,0.7-1.5,1.8-1.7,2.9"/>
<path fill="none" stroke="#0B0C0C" stroke-width="0.47" stroke-linecap="round" stroke-linejoin="round" d="M37.6,99.4
	c-0.1,0.3-0.2,0.7-0.2,1"/>
</svg>
