<?xml version="1.0" encoding="utf-8"?>
<!-- Generator: Adobe Illustrator 25.4.0, SVG Export Plug-In . SVG Version: 6.00 Build 0)  -->
<svg version="1.1" id="Ebene_1" xmlns="http://www.w3.org/2000/svg" xmlns:xlink="http://www.w3.org/1999/xlink" x="0px" y="0px"
	 viewBox="0 0 120 156" enable-background="new 0 0 120 156" xml:space="preserve">
<ellipse transform="matrix(0.7071 -0.7071 0.7071 0.7071 -37.4098 65.2013)" fill="#F4F3F4" cx="60" cy="77.8" rx="51.2" ry="51.2"/>
<polyline fill="none" stroke="#949494" stroke-width="0.2" stroke-linecap="round" stroke-linejoin="round" points="91.2,61.4 
	91.2,49.3 111.8,43.9 "/>
<line fill="none" stroke="#949494" stroke-width="0.2" stroke-linecap="round" stroke-linejoin="round" x1="98.5" y1="33.3" x2="2.4" y2="58.8"/>
<polyline fill="none" stroke="#949494" stroke-width="0.2" stroke-linecap="round" stroke-linejoin="round" points="85.3,61.7 
	85.4,50.5 55.7,57.1 55.7,63.2 "/>
<line fill="none" stroke="#949494" stroke-width="0.2" stroke-linecap="round" stroke-linejoin="round" x1="85.3" y1="55.1" x2="55.8" y2="60.8"/>
<polyline fill="none" stroke="#949494" stroke-width="0.2" stroke-linecap="round" stroke-linejoin="round" points="49.5,65.5 
	49.6,58.1 30,61.9 "/>
<line fill="none" stroke="#949494" stroke-width="0.2" stroke-linecap="round" stroke-linejoin="round" x1="91.4" y1="53.3" x2="109.8" y2="49.2"/>
<line fill="none" stroke="#949494" stroke-width="0.2" stroke-linecap="round" stroke-linejoin="round" x1="110.7" y1="83.2" x2="2.6" y2="85.5"/>
<path fill="none" stroke="#949494" stroke-width="0.2" stroke-linecap="round" stroke-linejoin="round" d="M22.1,64.3l-10.2,1.9
	v18.9"/>
<line fill="none" stroke="#949494" stroke-width="0.2" stroke-linecap="round" stroke-linejoin="round" x1="12" y1="69.1" x2="19" y2="68"/>
<line fill="none" stroke="#949494" stroke-width="0.2" stroke-linecap="round" stroke-linejoin="round" x1="12.1" y1="71.2" x2="17.7" y2="70.5"/>
<polyline fill="none" stroke="#949494" stroke-width="0.2" stroke-linecap="round" stroke-linejoin="round" points="88.4,36.3 
	88.5,87.5 13.8,113.1 "/>
<polyline fill="none" stroke="#949494" stroke-width="0.2" stroke-linecap="round" stroke-linejoin="round" points="52.7,45.8 
	53.3,83.1 3.8,95.8 "/>
<line fill="none" stroke="#949494" stroke-width="0.2" stroke-linecap="round" stroke-linejoin="round" x1="111" y1="93.4" x2="64.8" y2="132.6"/>
<path fill="none" stroke="#0B0C0C" stroke-width="0.5" stroke-linecap="round" stroke-linejoin="round" d="M93.3,91.6
	c0.1-2.8,1.2-5.1,2.4-5c1.2,0,2,2.4,1.9,5.2c-0.1,2.8-1.2,5.1-2.3,5S93.2,94.4,93.3,91.6z"/>
<path fill="#FFFFFF" d="M107.3,90l6.8-1.4c0,0,4.1-15.6-0.8-25.3c-8.9-2.4-11.2-3-11.2-3l-5,0.5l-3.6-0.6c-1.1-0.4-2.4-0.5-3.6-0.3
	c-2.8,0.2-13.4,0.5-14.8,1c-0.9,0.3-1.7,0.8-2.5,1.5l-20.2-2.7l-5.2,1c0,0-15.1-2-16.7-1.7C28.9,59.2,20,60.4,20,60.4
	s-0.6-0.5-1.9,2.2c-0.7,1.4-1.3,3-1.7,4.6l-0.5,0.3L14,77l-0.5,18l12.7,2.4l6.5-0.6l0.5-1.5c0.7,0.7,1.4,1.3,2.3,1.8
	c1.4,0.9,5.3,4,7.6-2.7c2.5-0.1,8.3-0.3,8.3-0.3l1,0.8l4.9,0.6c0.8-0.5,1.7-1,2.4-1.6c0.4-0.4,3.2,0,3.2,0s2.5,0.8,3.4-0.3
	c0.5-0.6,1-1.2,1.6-1.6l2.3,0.2v2.8l19.8,1.5l1.4-0.3l2.5-0.5c0,0,0.8,1.8,1.8,1.3c1-0.5,1.8-3.1,1.8-3.1l0.3-2.3l3-0.3L107.3,90z"
	/>
<path fill="none" stroke="#0B0C0C" stroke-width="0.5" stroke-linecap="round" stroke-linejoin="round" d="M33,96.6
	c0,0-1-9.1,4.6-9.6c1.7-0.1,3.3,0.5,4.6,1.6l5-2.7l-0.3-25.4c0,0-11.9-1.3-15.2-1.6s-6,2-6.8,7"/>
<path fill="none" stroke="#0B0C0C" stroke-width="0.5" stroke-linecap="round" stroke-linejoin="round" d="M29.5,59.2l-9.1,1.2
	c-1.9,0.3-3.3,3.6-3.8,6.4"/>
<path fill="none" stroke="#0B0C0C" stroke-width="0.5" stroke-linecap="round" stroke-linejoin="round" d="M46.7,67.7l-18-1.3
	l-12.9,0.8l-1.9,10l-0.5,17.8c0,0,11.9,2.4,13.9,2.3c1.9-0.1,5.8-0.7,5.8-0.7"/>
<path fill="none" stroke="#0B0C0C" stroke-width="0.5" stroke-linecap="round" stroke-linejoin="round" d="M28.8,66.7
	c0,0-0.7,7.2-0.9,8.5c-0.2,1.2-1.1,2.4-3.8,2.4c-2.7,0-9.9-0.3-9.9-0.3"/>
<polyline fill="none" stroke="#0B0C0C" stroke-width="0.5" stroke-linecap="round" stroke-linejoin="round" points="36.9,67 
	36.3,75.5 28.1,75.6 36.2,75.6 46.9,79.6 "/>
<line fill="none" stroke="#0B0C0C" stroke-width="0.5" stroke-linecap="round" stroke-linejoin="round" x1="27.7" y1="76.3" x2="26" y2="97"/>
<polygon fill="none" stroke="#0B0C0C" stroke-width="0.5" stroke-linecap="round" stroke-linejoin="round" points="15.1,81.9 
	16.3,86.5 22.2,87.1 24.2,81.9 "/>
<line fill="none" stroke="#0B0C0C" stroke-width="0.5" stroke-linecap="round" stroke-linejoin="round" x1="16" y1="88.4" x2="21.8" y2="89"/>
<line fill="none" stroke="#0B0C0C" stroke-width="0.5" stroke-linecap="round" stroke-linejoin="round" x1="15.8" y1="92.9" x2="21.5" y2="93.4"/>
<polyline fill="none" stroke="#0B0C0C" stroke-width="0.5" stroke-linecap="round" stroke-linejoin="round" points="26.2,90.7 
	23.5,90.5 23.3,93.7 26,94.1 "/>
<line fill="none" stroke="#0B0C0C" stroke-width="0.5" stroke-linecap="round" stroke-linejoin="round" x1="14.4" y1="89.4" x2="14.2" y2="92.3"/>
<polyline fill="none" stroke="#0B0C0C" stroke-width="0.5" stroke-linecap="round" stroke-linejoin="round" points="47.3,84.6 
	52,84.7 69.2,84 "/>
<polyline fill="none" stroke="#0B0C0C" stroke-width="0.5" stroke-linecap="round" stroke-linejoin="round" points="47,60.6 
	52.3,59.9 72.6,62.4 "/>
<path fill="none" stroke="#0B0C0C" stroke-width="0.5" stroke-linecap="round" stroke-linejoin="round" d="M33.3,92.8
	c-0.2-2.9,2-5.4,4.8-5.6c3.1,0,5.7,2.5,5.7,5.7c0,3.1-2.5,5.7-5.7,5.7C35.3,98.3,33.1,95.8,33.3,92.8C33.3,92.8,33.3,92.8,33.3,92.8
	z"/>
<path fill="none" stroke="#0B0C0C" stroke-width="0.5" stroke-linecap="round" stroke-linejoin="round" d="M52.5,89.8
	c-0.1-2.6,1.9-4.8,4.6-4.9c2.8,0.7,4.5,3.6,3.8,6.5c-0.5,2.1-2.3,3.6-4.4,3.9C53.8,94.8,52.1,92.4,52.5,89.8z"/>
<path fill="none" stroke="#0B0C0C" stroke-width="0.5" stroke-linecap="round" stroke-linejoin="round" d="M61.3,89.3
	c0.1-2.4,1.8-4.3,3.6-4.2c2.1,0.4,3.5,2.4,3.2,4.6c-0.1,2.4-1.8,4.3-3.6,4.2C62.4,93.5,61,91.5,61.3,89.3z"/>
<path fill="none" stroke="#0B0C0C" stroke-width="0.5" stroke-linecap="round" stroke-linejoin="round" d="M55.5,95.2l-3.3-0.4
	c-1.4-1.3-2.1-3.3-1.8-5.2c0.2-2.3,1.1-4.8,3-5"/>
<line fill="none" stroke="#0B0C0C" stroke-width="0.5" stroke-linecap="round" stroke-linejoin="round" x1="63.8" y1="93.8" x2="60.2" y2="93.6"/>
<line fill="none" stroke="#0B0C0C" stroke-width="0.5" stroke-linecap="round" stroke-linejoin="round" x1="51.2" y1="93.9" x2="43.2" y2="94.3"/>
<line fill="none" stroke="#0B0C0C" stroke-width="0.5" stroke-linecap="round" stroke-linejoin="round" x1="50.2" y1="88.5" x2="42.5" y2="89"/>
<path fill="none" stroke="#0B0C0C" stroke-width="0.5" stroke-linecap="round" stroke-linejoin="round" d="M97.5,88.1
	c0,0-0.5-1.6-1.7-1.6c-2.5,0-2.4,2.9-2.4,2.9l-0.3,6.2l-3,1L69.7,95l0.7-27.3c0,0,1.3-5.9,4.1-6.7c5.6-0.8,11.3-1.2,17-1.1
	c3,0.5,6,1.4,8.8,2.6v22.3L97.5,88.1z"/>
<path fill="none" stroke="#0B0C0C" stroke-width="0.5" stroke-linecap="round" stroke-linejoin="round" d="M93.7,60.2
	c0,0-2.1-0.3-2.6,6.3"/>
<polyline fill="none" stroke="#0B0C0C" stroke-width="0.5" stroke-linecap="round" stroke-linejoin="round" points="100.1,67.8 
	91.2,66.6 71.4,67.3 "/>
<path fill="none" stroke="#0B0C0C" stroke-width="0.5" stroke-linecap="round" stroke-linejoin="round" d="M90.8,66.9l-0.3,8.7
	c0,1.2,0,1.9-2.7,1.9S71,77.1,71,77.1"/>
<polygon fill="none" stroke="#0B0C0C" stroke-width="0.5" stroke-linecap="round" stroke-linejoin="round" points="86.5,82 
	83.8,86.8 74.1,86.4 72.3,81.9 "/>
<line fill="none" stroke="#0B0C0C" stroke-width="0.5" stroke-linecap="round" stroke-linejoin="round" x1="83.8" y1="88.5" x2="74.2" y2="87.9"/>
<line fill="none" stroke="#0B0C0C" stroke-width="0.5" stroke-linecap="round" stroke-linejoin="round" x1="83.4" y1="93.1" x2="73.7" y2="92.3"/>
<line fill="none" stroke="#0B0C0C" stroke-width="0.5" stroke-linecap="round" stroke-linejoin="round" x1="90.5" y1="76.9" x2="90.4" y2="96.5"/>
<polyline fill="none" stroke="#0B0C0C" stroke-width="0.5" stroke-linecap="round" stroke-linejoin="round" points="90.1,90.2 
	86,90.1 85.8,92.9 90.2,93 "/>
<polyline fill="none" stroke="#0B0C0C" stroke-width="0.5" stroke-linecap="round" stroke-linejoin="round" points="70.4,88.8 
	72.1,89 71.9,92 70.2,92 "/>
<polyline fill="none" stroke="#0B0C0C" stroke-width="0.5" stroke-linecap="round" stroke-linejoin="round" points="97.4,67.5 
	97.4,75.7 90.8,76.5 97.4,75.7 100.2,78 "/>
<polyline fill="none" stroke="#0B0C0C" stroke-width="0.5" stroke-linecap="round" stroke-linejoin="round" points="116.4,63.8 
	102,60.1 96.3,60.7 "/>
<line fill="none" stroke="#0B0C0C" stroke-width="0.5" stroke-linecap="round" stroke-linejoin="round" x1="102.5" y1="84.6" x2="116.2" y2="83.2"/>
<line fill="none" stroke="#0B0C0C" stroke-width="0.5" stroke-linecap="round" stroke-linejoin="round" x1="115.9" y1="88.1" x2="98.2" y2="91.5"/>
<line fill="none" stroke="#0B0C0C" stroke-width="0.5" stroke-linecap="round" stroke-linejoin="round" x1="104" y1="84.7" x2="104.2" y2="90.3"/>
<line fill="none" stroke="#0B0C0C" stroke-width="0.5" stroke-linecap="round" stroke-linejoin="round" x1="102.4" y1="84.6" x2="100.5" y2="84.8"/>
<path fill="none" stroke="#0B0C0C" stroke-width="0.5" stroke-linecap="round" stroke-linejoin="round" d="M67.7,92.2
	c0.5-0.3,1-0.4,1.5-0.5"/>
<path fill="none" stroke="#0B0C0C" stroke-width="0.5" stroke-linecap="round" stroke-linejoin="round" d="M93.3,91.6
	c0.1-2.8,1.2-5.1,2.4-5c1.2,0,2,2.4,1.9,5.2c-0.1,2.8-1.2,5.1-2.3,5S93.2,94.4,93.3,91.6z"/>
</svg>
