<?xml version="1.0" encoding="utf-8"?>
<!-- Generator: Adobe Illustrator 25.4.0, SVG Export Plug-In . SVG Version: 6.00 Build 0)  -->
<svg version="1.1" id="Ebene_1" xmlns="http://www.w3.org/2000/svg" xmlns:xlink="http://www.w3.org/1999/xlink" x="0px" y="0px"
	 viewBox="0 0 120 156" enable-background="new 0 0 120 156" xml:space="preserve">
<ellipse transform="matrix(0.1179 -0.993 0.993 0.1179 -24.2891 128.1734)" fill="#F4F3F4" cx="60" cy="77.8" rx="51.2" ry="51.2"/>
<line fill="none" stroke="#949494" stroke-width="0.2" stroke-linecap="round" stroke-linejoin="round" x1="6.1" y1="65" x2="113.8" y2="63.8"/>
<line fill="none" stroke="#949494" stroke-width="0.2" stroke-linecap="round" stroke-linejoin="round" x1="48.2" y1="117.4" x2="76.1" y2="117.1"/>
<path fill="none" stroke="#949494" stroke-width="0.2" stroke-linecap="round" stroke-linejoin="round" d="M114.5,74.6
	c-10.1-4.3-12.7,0.7-20.1,1.2c-6.3,0.5-5.3-1.6-11.5-1.2c-6.2,0.4-6.3,2.9-12.6,3c-6,0-6.5-2.5-12-2.3c-7.6,0.3-7.7,2.9-13.5,2.9
	c-6.4,0-5.6-2.8-11.5-2.9c-5.9-0.2-6.6,3.5-11.7,3.5c-5.7,0-9.6-4-16-0.6"/>
<path fill="none" stroke="#949494" stroke-width="0.2" stroke-linecap="round" stroke-linejoin="round" d="M108.7,85.7
	c-9.1-3.8-11.3,0.6-17.8,1.1c-5.6,0.4-4.7-1.4-10.2-1.1c-5.5,0.3-5.6,2.6-11.2,2.7s-5.8-2.2-10.7-2c-6.7,0.3-6.8,2.6-12,2.6
	c-5.7,0-5-2.5-10.2-2.6c-5.2-0.2-5.9,3.2-10.4,3.1c-5,0-8.6-3.6-14.3-0.5"/>
<line fill="none" stroke="#949494" stroke-width="0.2" stroke-linecap="round" stroke-linejoin="round" x1="31.5" y1="29.6" x2="31.4" y2="38.4"/>
<path fill="none" stroke="#949494" stroke-width="0.2" stroke-linecap="round" stroke-linejoin="round" d="M30,42
	c-0.1-0.8,0.5-1.5,1.2-1.6c0.8-0.1,1.5,0.5,1.6,1.2c0,0.1,0,0.2,0,0.4c0.1,0.8-0.5,1.5-1.2,1.6c-0.8,0.1-1.5-0.5-1.6-1.2
	C30,42.3,30,42.2,30,42z"/>
<path fill="none" stroke="#949494" stroke-width="0.2" stroke-linecap="round" stroke-linejoin="round" d="M30.9,38.6h0.9"/>
<line fill="none" stroke="#949494" stroke-width="0.2" stroke-linecap="round" stroke-linejoin="round" x1="31" y1="38.6" x2="30.8" y2="40.7"/>
<line fill="none" stroke="#949494" stroke-width="0.2" stroke-linecap="round" stroke-linejoin="round" x1="31.9" y1="38.6" x2="32" y2="40.6"/>
<line fill="none" stroke="#949494" stroke-width="0.2" stroke-linecap="round" stroke-linejoin="round" x1="31.1" y1="43.6" x2="30.6" y2="58.2"/>
<line fill="none" stroke="#949494" stroke-width="0.2" stroke-linecap="round" stroke-linejoin="round" x1="32" y1="43.6" x2="32.2" y2="57.7"/>
<polyline fill="none" stroke="#949494" stroke-width="0.2" stroke-linecap="round" stroke-linejoin="round" points="18.1,64.6 
	18.1,51.1 27,51.1 27,59.1 "/>
<polyline fill="none" stroke="#949494" stroke-width="0.2" stroke-linecap="round" stroke-linejoin="round" points="13.4,50.3 
	14.2,50.3 17.3,50.3 "/>
<path fill="none" stroke="#949494" stroke-width="0.2" stroke-linecap="round" stroke-linejoin="round" d="M13.2,51.1l1.2,0.2h3V61"
	/>
<line fill="none" stroke="#949494" stroke-width="0.2" stroke-linecap="round" stroke-linejoin="round" x1="14.4" y1="51.5" x2="14.3" y2="58.4"/>
<line fill="none" stroke="#949494" stroke-width="0.2" stroke-linecap="round" stroke-linejoin="round" x1="13.2" y1="51.2" x2="13.1" y2="58.1"/>
<polyline fill="none" stroke="#949494" stroke-width="0.2" stroke-linecap="round" stroke-linejoin="round" points="14,58.8 
	17.3,58.8 17.3,61.3 "/>
<polyline fill="none" stroke="#949494" stroke-width="0.2" stroke-linecap="round" stroke-linejoin="round" points="10.4,61.6 
	13.7,61.5 18.2,61.4 "/>
<path fill="none" stroke="#949494" stroke-width="0.2" stroke-linecap="round" stroke-linejoin="round" d="M10.4,61.8v2.9"/>
<path fill="none" stroke="#949494" stroke-width="0.2" stroke-linecap="round" stroke-linejoin="round" d="M13,62v2.7"/>
<polyline fill="none" stroke="#949494" stroke-width="0.2" stroke-linecap="round" stroke-linejoin="round" points="18.2,59.3 
	27.8,59.2 27.8,61 "/>
<polyline fill="none" stroke="#949494" stroke-width="0.2" stroke-linecap="round" stroke-linejoin="round" points="24.1,64.6 
	24.3,62.5 25.1,61.1 33.2,61.1 "/>
<polyline fill="none" stroke="#949494" stroke-width="0.2" stroke-linecap="round" stroke-linejoin="round" points="32.3,58.4 
	28.8,58.5 28.9,60.8 "/>
<polyline fill="none" stroke="#949494" stroke-width="0.2" stroke-linecap="round" stroke-linejoin="round" points="51.1,64.5 
	51.1,60.7 35.1,60.7 "/>
<polyline fill="none" stroke="#949494" stroke-width="0.2" stroke-linecap="round" stroke-linejoin="round" points="47.6,57.7 
	50.1,57.8 50.1,60.6 "/>
<polyline fill="none" stroke="#949494" stroke-width="0.2" stroke-linecap="round" stroke-linejoin="round" points="51.1,60.7 
	52.8,60.3 55.4,60.3 "/>
<polyline fill="none" stroke="#949494" stroke-width="0.2" stroke-linecap="round" stroke-linejoin="round" points="53.4,64.3 
	53.6,62.8 60.2,62.9 60.2,64.2 "/>
<polyline fill="none" stroke="#949494" stroke-width="0.2" stroke-linecap="round" stroke-linejoin="round" points="55.7,62.7 
	55.7,59 58.8,59 58.8,62.7 "/>
<polyline fill="none" stroke="#949494" stroke-width="0.2" stroke-linecap="round" stroke-linejoin="round" points="50.3,58.7 
	52.6,58.6 52.6,54.7 53.1,54.5 53.6,53.4 54.1,54.4 54.6,54.6 54.6,58.3 56.4,58.4 56.4,59 "/>
<polyline fill="none" stroke="#949494" stroke-width="0.2" stroke-linecap="round" stroke-linejoin="round" points="62.1,64.2 
	62.1,62.2 76.3,62 "/>
<polyline fill="none" stroke="#949494" stroke-width="0.2" stroke-linecap="round" stroke-linejoin="round" points="62.1,62.1 
	63,60.6 75.9,60.4 "/>
<polyline fill="none" stroke="#949494" stroke-width="0.2" stroke-linecap="round" stroke-linejoin="round" points="59.1,59.6 
	67.7,59.6 67.6,60.5 "/>
<polyline fill="none" stroke="#949494" stroke-width="0.2" stroke-linecap="round" stroke-linejoin="round" points="73.2,60.4 
	73.4,58.2 75.6,58.1 75.7,58.7 "/>
<polyline fill="none" stroke="#949494" stroke-width="0.2" stroke-linecap="round" stroke-linejoin="round" points="73.8,58.1 
	73.8,56.7 75.1,56.6 75.1,58 "/>
<polyline fill="none" stroke="#949494" stroke-width="0.2" stroke-linecap="round" stroke-linejoin="round" points="73.9,56.6 
	73.9,55.6 74.3,54.8 74.8,55.5 74.8,56.5 "/>
<polyline fill="none" stroke="#949494" stroke-width="0.2" stroke-linecap="round" stroke-linejoin="round" points="73.3,58.3 
	67,58.4 67,59.5 "/>
<polyline fill="none" stroke="#949494" stroke-width="0.2" stroke-linecap="round" stroke-linejoin="round" points="69.7,58.2 
	70,54.6 70.4,58.2 71,54.9 71.2,58.1 "/>
<polyline fill="none" stroke="#949494" stroke-width="0.2" stroke-linecap="round" stroke-linejoin="round" points="81.7,58.4 
	92.6,58.4 92.7,63.8 "/>
<polyline fill="none" stroke="#949494" stroke-width="0.2" stroke-linecap="round" stroke-linejoin="round" points="92.8,61.1 
	100.2,61 100.3,63.9 "/>
<polyline fill="none" stroke="#949494" stroke-width="0.2" stroke-linecap="round" stroke-linejoin="round" points="91.5,58.2 
	91.4,56.5 95.3,56.5 95.3,61 "/>
<polyline fill="none" stroke="#949494" stroke-width="0.2" stroke-linecap="round" stroke-linejoin="round" points="102.4,63.6 
	102.2,52.2 106.4,52.1 106.9,63.8 "/>
<line fill="none" stroke="#949494" stroke-width="0.2" stroke-linecap="round" stroke-linejoin="round" x1="102.2" y1="58.7" x2="95.6" y2="58.8"/>
<polyline fill="none" stroke="#949494" stroke-width="0.2" stroke-linecap="round" stroke-linejoin="round" points="106.9,60.2 
	111.1,60.2 111.2,63.5 "/>
<polyline fill="none" stroke="#949494" stroke-width="0.2" stroke-linecap="round" stroke-linejoin="round" points="11.7,61.4 
	11.8,58.4 14.2,58.3 "/>
<path fill="#FFFFFF" d="M23.3,117.3l-0.4-8.2l-3.6-2.3l0.8-4.9L23.5,88c0,0-3.1,1.1-4.3-0.3c-1.2-1.5-1.4-5.7-0.5-10.6
	c0.9-4.8,0.9-6.3,4.3-6.8s5.4-1,6.3-1.8c0.7-0.7,1.6-1.1,2.5-1.2c1,0,1,0,1.3-1c0.3-1.9,0.4-3.9,0.5-5.9c0,0,0.3-0.2-0.5-0.7
	c-0.8-0.4-1.6-0.7-0.8-1.8c0.8-1.1,1.2-7.3,6.4-7.6c5.3-0.3,8.2,2.7,8.5,8.2c1.3,0.3,1.5,1.3-0.1,1.5c-1.6,0.2-1.2,0.6-1.6,2.2
	s-1.5,4.7-1.5,4.7l3.8,0.4l22.2,2.6l-2.3,11.4c-0.1,0.9,0.2,1.8,0.9,2.3c1.3,0.8,1.8,2.3,1.4,3.7c-0.6,1.5-1.6,2.8-2.9,3.8
	c0,0-0.6,0-0.8,1.7c-0.2,1-0.4,2-0.7,3l-16.5-1c0,0,0.8,6.5,1.5,10.9c0.7,4.3,1.7,5.5-0.2,5.6c-1.9,0.2-2.5-0.6-2.5,1.5
	s0,15.5,0,15.5S31.8,126.5,23.3,117.3z"/>
<path fill="#FFFFFF" d="M93.5,118.1c-5,3.6-10.5,6.5-16.2,8.7c-0.8-5.9-1.1-11.9-0.9-17.9c0.3-2.6,0.5-3.5-0.4-4.3
	c-1.4-2.4-2.4-5.1-2.9-7.9c-0.3-1.9-0.2-2.8,1-8.9c1.2-6,1.6-12.9,3.8-13.8s4-1.4,3.7-2.4c-0.3-1-1.8-1.8-2.8-2.4
	c-1.1-0.6-1.7-2.5-1.4-5.6c-1.1-1.3-2.2-1.9-2.7-2.7c-0.5-0.8-1.3-1.3,0.5-2.2c1.2-0.4,2-1.3,2.3-2.5c1.2-2.4,3.8-3.8,6.5-3.5
	c3.9,0.4,5.4,4.8,5.8,6.4c0.4,1.6,1.8,2.2-0.8,4.8c0.1,1.6-0.2,3.1-0.8,4.6c1.6,0.2,1.8,1.5,2.9,1.7c1.1,0.2,5,0.2,5.9,2.3
	c1.5,4.5,2.6,9.2,3.5,13.9c0.5,2.8,0.7,3.8-3.5,5.8c-0.1,3.2,0.2,6.4,0.9,9.6c0.8,4.2,2.3,8-0.2,9c-2.6,1-3,1.1-3,1.1
	C94.1,114.1,93.7,116.1,93.5,118.1z"/>
<path fill="none" stroke="#0B0C0C" stroke-width="0.5" stroke-linecap="round" stroke-linejoin="round" d="M76.5,58.4
	c0,0-5.7,0.9-0.7,3.7c0.9,1.7,4.9,3.6,9.4,3c4.5-0.6,6.1-3.9,4.2-5.6c-0.5-2.9-2-6.9-6.5-6.7C79.7,52.9,77,55.2,76.5,58.4z"/>
<path fill="none" stroke="#0B0C0C" stroke-width="0.5" stroke-linecap="round" stroke-linejoin="round" d="M88.2,64.3
	c0.1,1.3,0,2.7-0.4,4"/>
<path fill="none" stroke="#0B0C0C" stroke-width="0.5" stroke-linecap="round" stroke-linejoin="round" d="M77,63.5
	c0,1.3,0,4.7,1.2,5.5s3.1,0.9,3.3,2.8"/>
<path fill="none" stroke="#0B0C0C" stroke-width="0.5" stroke-linecap="round" stroke-linejoin="round" d="M81.1,65.5
	c-0.2,1.8,2,3.1,3.2,3.9"/>
<path fill="none" stroke="#0B0C0C" stroke-width="0.5" stroke-linecap="round" stroke-linejoin="round" d="M96.7,92.6
	c4.1-2,4.2-2.5,3.3-7.3s-2.4-13-4.8-13.9c-1.4-0.5-2.9-0.8-4.3-1c-1-0.2-1.1-1.2-2-1.6c-1.3-0.5-4.5,0.9-4.9,1.1
	c-1.4,0.7-2,2.2-3,2.6c-1.3,0.7-3.5,1.2-4.1,2.7c-1.2,4.2-2.1,8.5-2.8,12.8c-0.7,2.6-1.2,5.3-1.3,8c0.5,2.3,1.9,8.5,2.9,8.7
	c3.7,0.6,5.6-4.5,5.3-5.7s-1.8-2.3-1.5-3.6c0.9-3.8,2.3-7.4,4.2-10.9"/>
<path fill="none" stroke="#0B0C0C" stroke-width="0.5" stroke-linecap="round" stroke-linejoin="round" d="M81.2,99
	c1.3,0.2,2.5-1.4,3.6-1.1c1.2,0.3,0,1.5-0.5,1.8c-1.3,0.8-3.1,2.4-5.3,3.9"/>
<path fill="none" stroke="#0B0C0C" stroke-width="0.5" stroke-linecap="round" stroke-linejoin="round" d="M97.5,82.8
	c-3.2,13.2,1.9,26.1,0.9,27.2c-2.8,3.2-16.1,4.2-17.7,3.9c-3.3-0.4-3.6-6.7-4.6-9.1"/>
<path fill="none" stroke="#0B0C0C" stroke-width="0.5" stroke-linecap="round" stroke-linejoin="round" d="M76.3,105.8
	c0,3-1.1,14.1,1.2,23"/>
<path fill="none" stroke="#0B0C0C" stroke-width="0.5" stroke-linecap="round" stroke-linejoin="round" d="M94.3,112.2
	c0,2.2-1.4,5.4-1.3,9"/>
<path fill="none" stroke="#0B0C0C" stroke-width="0.5" stroke-linecap="round" stroke-linejoin="round" d="M47.1,58.6
	c0,0,0.4-7.9-6.5-8.3c-6.9-0.4-7.4,6.3-7.6,7c-0.2,0.7-1.7,1.4,0.1,2.2c5.1,1.6,10.6,1.6,15.8,0C50.3,59.2,48.4,58.8,47.1,58.6z"/>
<path fill="none" stroke="#0B0C0C" stroke-width="0.5" stroke-linecap="round" stroke-linejoin="round" d="M66.8,87.3
	c0.4-2.2-0.6-3-3.2-3s-8.2,0-10.4-4.2c-2.2-4.2-1.7-4.7-5.4-6s-6.7-1.7-7.1-3.2c-0.4-1.5-2.2-2.2-5.7-2.9c-3.5-0.7-3.5-0.8-4.5-0.3
	s-1,1.7-4,2.3c-3,0.7-6.5,0-7,3.2s-2.8,13.4,0,15c1.2,0.5,2.6,0.5,3.9,0"/>
<path fill="none" stroke="#0B0C0C" stroke-width="0.5" stroke-linecap="round" stroke-linejoin="round" d="M49.1,74.7
	c-2.2,2.2-2.9,7.8-2.2,10.5c0.4,1.2,1,2.4,1.8,3.4c0.5,0.7-0.7,4.3,2.7,21.9c0.2,1.2-8.5,1.3-14.1,1.4c-11.9,0-17.2-4-18.2-5.3
	c-0.5-0.6,4.9-18.3,4.6-19.4c-0.6-1.9-1.3-3.8-2.2-5.7"/>
<path fill="none" stroke="#0B0C0C" stroke-width="0.5" stroke-linecap="round" stroke-linejoin="round" d="M66.8,87.2
	c-0.1,1.4-0.6,2.7-1.4,3.8c-1.3,1.3-6.2,0.5-7.3,0.4c-3.5-0.7-6.8-1.9-10-3.5"/>
<path fill="none" stroke="#0B0C0C" stroke-width="0.5" stroke-linecap="round" stroke-linejoin="round" d="M45.7,60.6
	c-0.3,3.2-1.7,7.8-5,9"/>
<path fill="none" stroke="#0B0C0C" stroke-width="0.5" stroke-linecap="round" stroke-linejoin="round" d="M33.6,60.2
	c0,0.7,0.1,1.5,0.2,2.2c0,1.6-0.3,3.2-0.9,4.7"/>
<path fill="none" stroke="#0B0C0C" stroke-width="0.5" stroke-linecap="round" stroke-linejoin="round" d="M44.8,62.9
	c-2.2-2.2-4.3,1.9-6.7,3c-0.7,0.3-1.6-0.3-2.3-0.5c-0.7-0.1-1.5,0-2.2,0.3"/>
<path fill="none" stroke="#0B0C0C" stroke-width="0.5" stroke-linecap="round" stroke-linejoin="round" d="M66.1,90.6
	c0.2,0,3.4,1.3,3.8-3.2c0.3-3.8-0.7-2.8-1.7-4.1c-0.3-0.4-0.7-0.6-0.5-1.9c0-0.7,0.1-2.1-1-0.9s-0.6,2.8-1.9,3.6"/>
<polyline fill="none" stroke="#0B0C0C" stroke-width="0.5" stroke-linecap="round" stroke-linejoin="round" points="67.8,82.1 
	70.2,69.9 44.3,66.9 "/>
<path fill="none" stroke="#0B0C0C" stroke-width="0.5" stroke-linecap="round" stroke-linejoin="round" d="M66.5,91
	c-0.3,0.7-0.8,5-0.8,5c-5.5,0-11-0.4-16.4-1.2"/>
<path fill="none" stroke="#0B0C0C" stroke-width="0.5" stroke-linecap="round" stroke-linejoin="round" d="M47.7,112.2
	c0.3,5.7,0.3,11.5,0,17.2"/>
<path fill="none" stroke="#0B0C0C" stroke-width="0.5" stroke-linecap="round" stroke-linejoin="round" d="M22.7,109.6
	c0,1,0.2,4.9,0.3,5.9"/>
<polyline fill="none" stroke="#0B0C0C" stroke-width="0.5" stroke-linecap="round" stroke-linejoin="round" points="43.2,72.1 
	43.7,69.3 57.9,71.3 "/>
<polyline fill="none" stroke="#0B0C0C" stroke-width="0.5" stroke-linecap="round" stroke-linejoin="round" points="61.6,72 
	65.7,72.5 63.3,84.1 "/>
<polyline fill="none" stroke="#0B0C0C" stroke-width="0.5" stroke-linecap="round" stroke-linejoin="round" points="64.4,77.3 
	58,76.5 56.9,82.4 "/>
<line fill="none" stroke="#0B0C0C" stroke-width="0.5" stroke-linecap="round" stroke-linejoin="round" x1="55.2" y1="71.4" x2="54.2" y2="76.3"/>
<line fill="none" stroke="#0B0C0C" stroke-width="0.5" stroke-linecap="round" stroke-linejoin="round" x1="58" y1="71.3" x2="60.5" y2="70.7"/>
</svg>
