<svg width="26" height="24" viewBox="0 0 26 24" fill="none" xmlns="http://www.w3.org/2000/svg">
<path d="M25.4681 10.4852C24.7269 11.3862 21.7049 15.0545 20.8802 16.0556C20.7611 16.201 20.5513 16.2367 20.3917 16.139L13.4181 11.9011C13.3061 11.8319 13.2369 11.7104 13.2369 11.5769V3.2846C13.2369 3.10345 13.3656 2.94613 13.5444 2.91276C14.7551 2.68156 19.1738 1.83541 20.2939 1.62089C20.4512 1.5899 20.6085 1.66379 20.692 1.79965C21.4189 3.02956 24.8008 8.82631 25.5063 10.0562C25.5825 10.1921 25.5682 10.3637 25.4681 10.4852Z" fill="#EFEFEF"/>
<path d="M7.34243 0.207368C7.57838 0.0715063 7.84532 0 8.11701 0H17.6098C17.8815 0 18.1484 0.0715063 18.3844 0.207368L19.4092 0.798484C19.5117 0.858072 19.4855 1.01062 19.3687 1.03207L13.1482 2.22384C12.9552 2.25959 12.7597 2.25959 12.5667 2.22384L6.35336 1.03445C6.23896 1.013 6.21274 0.858072 6.31284 0.800867L7.34243 0.207368Z" fill="#EFEFEF"/>
<path d="M5.43631 1.62089C6.55647 1.83541 10.968 2.67918 12.1787 2.91039C12.3575 2.94376 12.4862 3.10107 12.4862 3.28222V11.5745C12.4862 11.708 12.4171 11.8296 12.3027 11.8987L5.32668 16.1318C5.16461 16.2296 4.95726 16.1938 4.8381 16.0484C4.01585 15.0473 1.00095 11.3838 0.26212 10.4853C0.162021 10.3637 0.147721 10.1921 0.226371 10.0562C0.931834 8.82632 4.31138 3.02956 5.04068 1.80204C5.11933 1.6638 5.27901 1.59229 5.43631 1.62089Z" fill="#EFEFEF"/>
<path d="M5.03119 22.2335L0.212115 13.9698C0.0738828 13.7338 0 13.4621 0 13.1904V11.7007C0 11.5815 0.147766 11.5291 0.224032 11.6196L4.45443 16.7633C4.57121 16.9063 4.66177 17.066 4.72136 17.24L6.80676 23.2394C6.8449 23.349 6.72573 23.4491 6.62325 23.3895L5.59365 22.796C5.36247 22.6602 5.16704 22.4647 5.03119 22.2335Z" fill="#EFEFEF"/>
<path d="M7.77439 23.7378C7.39782 22.6557 5.91778 18.3963 5.51738 17.2427C5.4578 17.0735 5.52691 16.8876 5.67945 16.7946L12.665 12.5567C12.7865 12.4828 12.9367 12.4828 13.0582 12.5567L20.0437 16.8017C20.1963 16.8947 20.263 17.0806 20.2058 17.2499C19.8078 18.4011 18.3325 22.6581 17.9583 23.7378C17.9059 23.8904 17.7629 23.9929 17.6032 23.9929C16.1804 24.0024 9.55473 24.0024 8.13188 23.9929C7.96982 23.9905 7.82682 23.8904 7.77439 23.7378Z" fill="#EFEFEF"/>
<path d="M25.5179 13.97L20.6988 22.2313C20.563 22.4625 20.3675 22.658 20.1363 22.7915L19.1044 23.3874C19.0019 23.4469 18.8827 23.3468 18.9209 23.2372L20.9943 17.245C21.0539 17.071 21.1445 16.9089 21.2637 16.7659L25.506 11.6151C25.5822 11.5245 25.73 11.577 25.73 11.6961V13.1882C25.73 13.4623 25.6561 13.7341 25.5179 13.97Z" fill="#EFEFEF"/>
</svg>
