<?xml version="1.0" encoding="utf-8"?>
<!-- Generator: Adobe Illustrator 25.4.0, SVG Export Plug-In . SVG Version: 6.00 Build 0)  -->
<svg version="1.1" id="Ebene_1" xmlns="http://www.w3.org/2000/svg" xmlns:xlink="http://www.w3.org/1999/xlink" x="0px" y="0px"
	 viewBox="0 0 120 156" enable-background="new 0 0 120 156" xml:space="preserve">
<circle fill="#F4F3F4" cx="60" cy="77.8" r="51.2"/>
<path fill="none" stroke="#949494" stroke-width="0.2" stroke-linecap="round" stroke-linejoin="round" d="M5.4,84
	c1.1-1,2.4-0.5,3.6-1c1.2-0.6,1.5-2.2,2.5-2.2s3,1.7,3.9,1.4s1.3-3.4,1.4-4c0.6-3.6,1-7.2,1.6-10.7c0-0.6,1-4.1,1-4
	c0.5,1.8,0.6,3.7,0.5,5.6c0.4,5.1,0.7,10.2,1.1,15.3c0,0.3,0.3,6,0.4,6c0.1,0,1.5-2,1.8-2.2c3.1-1.9,5.6-4.5,7.5-7.6
	c0.1-0.2,0.4-0.4,0.6-0.4c2.2-0.2,4.1,3.6,6.9,3.4c2.1-0.1,4-0.9,6.1-1c1.3,0,3,0.7,4.2,0.3c1.2-0.4,1.4-1.9,2.5-1.9
	c0.8,0,2.8,2,3.4,1.5c2.7-2.8,5.8-3.2,5.8,2.4c0,1.8,0,3.5,0,5.3c0,0-0.1,1,0,1c0.1-0.1,0.2-0.3,0.3-0.4c1.8-2.9,5.1-3.1,6.8-6
	c0.6-1,1.4-4.8,2.4-5.2c1.6-0.8,5.1,3.9,6.9,4.4c2.4,0.6,4.4-1,6.7-1c1.6,0.2,3.3,0.2,4.9,0.1c0.9-0.2,1.4-1.4,2.4-1.5
	c0.9-0.1,2.2,1.6,3.1,1c2.1-1.3,2.7-11.6,2.9-13.7c0-0.2,0.1-4.7,0.7-4.7c0.9,0,1.4,4.4,1.5,5.1c0.7,5,1.4,9.9,2,14.9
	c0,0.4-0.4,5.1,0.1,5.2c0.5,0,1.3-1.7,1.6-2.1c0.7-0.8,2.2-0.6,3.1-1.8c0.9-1.1,1.3-3.9,2.6-4.7s4.4,1.5,6.9,0.5"/>
<path fill="#FFFFFF" d="M105.9,114.8c3.9-5.1,5-11.7,3.1-17.8c-3.5,0.3-7,0.4-10.5,0.3c0,0-1.7,0-4-0.2c-2.3-0.1-4.6,0.1-6.8,0.4
	c-1,0.4-2.2,0.5-3.2,0.2c-1.7-0.5-3.3-1.1-5-1.8c-2-1-6-1.5-7.7-0.1c-1.6,1.4-3,3-4.4,4.3c-1.8,1.3-3.8,2.3-5.9,3
	c-1.6,0.7-3,1.7-4.2,3c-0.2,0.4-1.2,0.6-2.4,0.4c-2.3-0.5-4.6-1.1-6.9-1.9c-2.7-0.9-6.8-2.2-7.4-1c-0.6,1.2-0.8,1.2-1.5,1.2
	c-0.7,0-3.9,0.2-3.3,2c0.6,1.9,3.3,2.2,4.9,2.8c1.6,0.6,6.6,2.7,8.6,3.8c2.8,1,5.7,1.9,8.6,2.6c2.4,0.9,5.4,2.7,7,2.4
	c1.6-0.4,7.6-3.2,11.5-4.8s8-3.4,8.9-2.9c1.1,0.6,2.3,1,3.5,1.2c1.7,0.3,6.9,1.4,8.4,1.5c1.5,0.1,1.1-0.3,2.8,0L105.9,114.8z"/>
<path fill="#FFFFFF" d="M16.3,44.3c-2.8-0.5-4.4-0.7-4.4-0.7S3.6,49.8,7,63.5c3.8-0.4,9.2-1.2,9.2-1.2c1.3,0.1,2.5,0.1,3.8,0
	c2.7,0,5.5-0.4,8.1-1.2c1.6-0.9,3.3-1.6,5.1-1.9c2.9-0.6,5.8-0.7,8.7-0.3c3.7,0.6,7.1,1.7,11.3,0c3.6-1.7,7.2-3.2,11-4.4
	c1.8-0.5,3.7-0.5,5.4,0c2.5,0.5,3.7,0.1,5.3,1.1c1.7,1.1,3.6,1.9,5.5,2.4c0.9,0.2,1.7,0.3,2.6,0.2c1.1-0.2,3.6-0.9,2.5-2.2
	c-1.1-1.3-4-2.8-5.4-4.1c-1.4-1.6-3-2.9-4.7-4.1c-2.1-1.2-3.1-1.8-5.5-3c-2.1-0.8-4.1-1.8-6-3c-1.5-1.1-3.4-3-5.8-2
	c-2.4,1-6.8,2-10.8,3.4c-4.5,1.4-9.1,2.4-13.7,3c-2.1,0-1.6-0.9-3.5-1S19.5,44.9,16.3,44.3z"/>
<path fill="#FFFFFF" d="M59.6,67.6c0.6,0,10.4-10.3,18-2.2c11.8,12.6-17.8,34.5-17.8,34.5S29.1,78.3,42.2,64.9
	C50.8,56.3,59,67.6,59.6,67.6z"/>
<path fill="none" stroke="#0B0C0C" stroke-width="0.5" stroke-linecap="round" stroke-linejoin="round" d="M59.6,67.6
	c0.6,0,10.4-10.3,18-2.2c11.8,12.6-17.8,34.5-17.8,34.5S29.1,78.3,42.2,64.9C50.8,56.3,59,67.6,59.6,67.6z"/>
<path fill="none" stroke="#0B0C0C" stroke-width="0.5" stroke-linecap="round" stroke-linejoin="round" d="M87.2,98.1
	c-2.8-0.1-5.6-0.9-8.1-2.2c-2.8-1.3-6-1.1-8.5,0.7c-2.5,2-2.7,4.2-5.9,5.3c-3.2,1.1-8.7,2.9-7.7,6s7.2,1.4,10.2-0.3
	c2.3-1.1,4.7-1.9,7.2-2.2"/>
<path fill="none" stroke="#0B0C0C" stroke-width="0.5" stroke-linecap="round" stroke-linejoin="round" d="M56.7,106.4
	c-3.8,0.5-8.3-1.6-11.9-2.6c-1.2-0.4-3.7-1-4.8,0c-1.4,1.4,5.2,4.4,6,5c1.7,1.2,3.5,2.2,5.4,3.2c2.9,0.8,5.9,1.4,8.9,1.7
	c2.3,0.7,4.7,1.1,7.1,1"/>
<path fill="none" stroke="#0B0C0C" stroke-width="0.5" stroke-linecap="round" stroke-linejoin="round" d="M40.2,105
	c-3.2-1.2-6.1,1-4.3,2.8c0.8,0.9,4.6,1.6,6.7,2.6c2.6,1.2,5.1,2.7,7.7,3.8c2.6,1,5.6,1.5,8.3,2.4c1.8,0.9,3.8,1.5,5.7,2
	c2.1,0.2,4.2-1.4,6-2.2c3.8-1.6,7.7-3.3,11.5-4.9c1.8-0.6,3.7-1,5.6-1.2"/>
<path fill="none" stroke="#0B0C0C" stroke-width="0.5" stroke-linecap="round" stroke-linejoin="round" d="M85.7,97.6
	c3.5-1.5,3.7,7.6,2.2,12c-0.5,1.5-2.4,2.9-3.6,1.3"/>
<path fill="none" stroke="#0B0C0C" stroke-width="0.5" stroke-linecap="round" stroke-linejoin="round" d="M86.2,97.5
	c0,0,9.4-0.9,11.8,0c2.4,0.4,1.9,16.3,0.3,16.1c-4.8-0.6-12.9-2-12.9-2"/>
<line fill="none" stroke="#0B0C0C" stroke-width="0.5" stroke-linecap="round" stroke-linejoin="round" x1="98.2" y1="97.4" x2="112.9" y2="96.8"/>
<line fill="none" stroke="#0B0C0C" stroke-width="0.5" stroke-linecap="round" stroke-linejoin="round" x1="98.9" y1="113.3" x2="106" y2="114.8"/>
<path fill="none" stroke="#0B0C0C" stroke-width="0.5" stroke-linecap="round" stroke-linejoin="round" d="M68.7,54
	c-4.6,0-5.1,0-10.6,2.9c-5.4,2.9-9.4,3.6-14.4,2.2S29.3,60.5,27,60.5"/>
<path fill="none" stroke="#0B0C0C" stroke-width="0.5" stroke-linecap="round" stroke-linejoin="round" d="M41.2,57
	c6.1-0.6,9.6-4.4,11.1-5.4c1.9-1.1,4.1-1.4,6.2-0.9c4.7,1.7,9.5,3.1,14.3,4.2c2.2,0,4.6-0.9,0.9-2.9c-2.3-1.1-4.5-2.4-6.7-3.7
	c-1.9-1-3.9-1.8-6-2.4c-2.7-1-5.5-2.6-7.4-2.2"/>
<path fill="none" stroke="#0B0C0C" stroke-width="0.5" stroke-linecap="round" stroke-linejoin="round" d="M74.4,55
	c2.6,1.4,6.3,3.6,7.6,2.2c1.3-1.3,0.3-2.2-2.6-4.2c-2.9-2-6.8-4.1-8.3-5.2c-1.9-1.5-4.1-2.6-6.4-3.5c-2-0.7-3.8-1.7-5.6-2.8"/>
<path fill="none" stroke="#0B0C0C" stroke-width="0.5" stroke-linecap="round" stroke-linejoin="round" d="M81.2,58.1
	c0,0,2.9,1,4-1.2c1.1-2.2-1.2-2.2-4.4-4.8s-4.9-4.4-6.7-5.6c-1.8-1.2-7.5-3.4-9.8-4.9c-2.3-1.5-3.4-3.1-6.7-2.1
	c-3.3,1-16.9,5.4-20,6.1c-2.4,0.4-4.8,0.5-7.2,0.4"/>
<path fill="none" stroke="#0B0C0C" stroke-width="0.5" stroke-linecap="round" stroke-linejoin="round" d="M32.7,45.9
	c-0.5-1.8-2.4-0.4-3.6,1.6c-2,3.3-3.8,8.1-3.2,11.5c0.6,3.3,4.1,2,4.1,1.3"/>
<path fill="none" stroke="#0B0C0C" stroke-width="0.5" stroke-linecap="round" stroke-linejoin="round" d="M29.4,60.8
	c1.4,0.2-11.6,2.5-12.9,1.2c-1.7-1.8-3-12.1,3.7-16.9c4-0.2,8.1-0.2,12.1,0"/>
<line fill="none" stroke="#0B0C0C" stroke-width="0.5" stroke-linecap="round" stroke-linejoin="round" x1="16.7" y1="62.2" x2="7.1" y2="63.5"/>
<line fill="none" stroke="#0B0C0C" stroke-width="0.5" stroke-linecap="round" stroke-linejoin="round" x1="20.2" y1="45" x2="12.1" y2="43.7"/>
</svg>
